<?xml version='1.0' encoding='UTF-8' standalone='no'?>
<svg width="157.988mm" viewBox="0 0 1866 177" xmlns="http://www.w3.org/2000/svg" xmlns:cc="http://creativecommons.org/ns#" baseProfile="tiny" xmlns:xlink="http://www.w3.org/1999/xlink" version="1.2" height="14.986mm">
 <defs>
  <linearGradient x2="448.819" x1="0" id="gradient1" y1="0" gradientUnits="userSpaceOnUse" y2="0">
   <stop stop-opacity="1" offset="0" stop-color="#00007f"/>
   <stop stop-opacity="1" offset="0.142857" stop-color="#0061c8"/>
   <stop stop-opacity="1" offset="0.285714" stop-color="#0cb6ed"/>
   <stop stop-opacity="1" offset="0.320867" stop-color="#00fbff"/>
   <stop stop-opacity="1" offset="0.428571" stop-color="#3ce7a4"/>
   <stop stop-opacity="1" offset="0.571429" stop-color="#86e75b"/>
   <stop stop-opacity="1" offset="0.714286" stop-color="#e7b612"/>
   <stop stop-opacity="1" offset="0.857143" stop-color="#db6100"/>
   <stop stop-opacity="1" offset="1" stop-color="#aa0000"/>
  </linearGradient>
  <linearGradient x2="909.449" x1="460.63" id="gradient2" y1="0" gradientUnits="userSpaceOnUse" y2="0">
   <stop stop-opacity="1" offset="0" stop-color="#814810"/>
   <stop stop-opacity="1" offset="0.230769" stop-color="#d6a058"/>
   <stop stop-opacity="1" offset="0.461538" stop-color="#f5f5f5"/>
   <stop stop-opacity="1" offset="0.692308" stop-color="#27f5b8"/>
   <stop stop-opacity="1" offset="1" stop-color="#006f5c"/>
  </linearGradient>
  <linearGradient x2="1370.08" x1="921.26" id="gradient3" y1="0" gradientUnits="userSpaceOnUse" y2="0">
   <stop stop-opacity="1" offset="0" stop-color="#390048"/>
   <stop stop-opacity="1" offset="0.0909091" stop-color="#482475"/>
   <stop stop-opacity="1" offset="0.181818" stop-color="#2718cb"/>
   <stop stop-opacity="1" offset="0.272727" stop-color="#00acfc"/>
   <stop stop-opacity="1" offset="0.363636" stop-color="#21e6dd"/>
   <stop stop-opacity="1" offset="0.454545" stop-color="#01ff89"/>
   <stop stop-opacity="1" offset="0.545455" stop-color="#0c5400"/>
   <stop stop-opacity="1" offset="0.618182" stop-color="#2efe00"/>
   <stop stop-opacity="1" offset="0.727273" stop-color="#64ff45"/>
   <stop stop-opacity="1" offset="0.818182" stop-color="#bcdf27"/>
   <stop stop-opacity="1" offset="0.909091" stop-color="#fbff01"/>
   <stop stop-opacity="1" offset="1" stop-color="#ff4000"/>
  </linearGradient>
  <linearGradient x2="1830.71" x1="1381.89" id="gradient4" y1="0" gradientUnits="userSpaceOnUse" y2="0">
   <stop stop-opacity="1" offset="0" stop-color="#0019a8"/>
   <stop stop-opacity="1" offset="0.0357005" stop-color="#0024ff"/>
   <stop stop-opacity="1" offset="0.0714153" stop-color="#0060ff"/>
   <stop stop-opacity="1" offset="0.114273" stop-color="#0088ff"/>
   <stop stop-opacity="1" offset="0.142845" stop-color="#00ffff"/>
   <stop stop-opacity="1" offset="0.185703" stop-color="#00ffb7"/>
   <stop stop-opacity="1" offset="0.214274" stop-color="#00ff87"/>
   <stop stop-opacity="1" offset="0.257132" stop-color="#00ff57"/>
   <stop stop-opacity="1" offset="0.285704" stop-color="#008000"/>
   <stop stop-opacity="1" offset="0.328562" stop-color="#57ff00"/>
   <stop stop-opacity="1" offset="0.357134" stop-color="#6fff00"/>
   <stop stop-opacity="1" offset="0.399991" stop-color="#87ff00"/>
   <stop stop-opacity="1" offset="0.428563" stop-color="#9fff00"/>
   <stop stop-opacity="1" offset="0.471421" stop-color="#b7ff00"/>
   <stop stop-opacity="1" offset="0.499993" stop-color="#cfff00"/>
   <stop stop-opacity="1" offset="0.542851" stop-color="#e7ff00"/>
   <stop stop-opacity="1" offset="0.571422" stop-color="#ffff00"/>
   <stop stop-opacity="1" offset="0.61428" stop-color="#ffef00"/>
   <stop stop-opacity="1" offset="0.642852" stop-color="#ffdf00"/>
   <stop stop-opacity="1" offset="0.68571" stop-color="#ffcf00"/>
   <stop stop-opacity="1" offset="0.714282" stop-color="#ffbf00"/>
   <stop stop-opacity="1" offset="0.757139" stop-color="#ffaf00"/>
   <stop stop-opacity="1" offset="0.785711" stop-color="#ff7f00"/>
   <stop stop-opacity="1" offset="0.828569" stop-color="#ff5f00"/>
   <stop stop-opacity="1" offset="0.857141" stop-color="#ff3f00"/>
   <stop stop-opacity="1" offset="0.899999" stop-color="#ff2f00"/>
   <stop stop-opacity="1" offset="0.92857" stop-color="#ff1f00"/>
   <stop stop-opacity="1" offset="1" stop-color="#ff1400"/>
  </linearGradient>
 </defs>
 <g stroke-linejoin="bevel" stroke-width="1" fill-rule="evenodd" fill="none" stroke-linecap="square" stroke="black">
  <g stroke-linejoin="bevel" font-weight="400" stroke-opacity="1" stroke-width="1" transform="matrix(1,0,0,1,0,0)" font-size="32.5" font-family="MS Shell Dlg 2" fill="none" stroke-linecap="square" stroke="#000000" font-style="normal"/>
  <g stroke-linejoin="bevel" font-weight="400" stroke-opacity="1" stroke-width="1" transform="matrix(1,0,0,1,0,0)" font-size="32.5" font-family="MS Shell Dlg 2" fill="none" stroke-linecap="square" stroke="#000000" font-style="normal"/>
  <g stroke-linejoin="bevel" font-weight="400" stroke-opacity="1" stroke-width="1" transform="matrix(11.8,0,0,11.8,0,0)" font-size="32.5" font-family="MS Shell Dlg 2" fill="none" stroke-linecap="square" stroke="#000000" font-style="normal"/>
  <g stroke-linejoin="bevel" font-weight="400" stroke-opacity="1" stroke-width="1" transform="matrix(0.999067,0,0,0.999067,0,0)" font-size="32.5" font-family="MS Shell Dlg 2" fill="none" stroke-linecap="square" stroke="#000000" font-style="normal"/>
  <g font-weight="400" transform="matrix(0.999067,0,0,0.999067,0,0)" font-size="32.5" fill-opacity="1" font-family="MS Shell Dlg 2" fill="#ffffff" stroke="none" font-style="normal">
   <path fill-rule="evenodd" vector-effect="none" d="M-2,-2 L1869,-2 L1869,180 L-2,180 L-2,-2"/>
  </g>
  <g stroke-linejoin="bevel" font-weight="400" stroke-opacity="1" stroke-width="1" transform="matrix(0.999067,0,0,0.999067,0,0)" font-size="32.5" font-family="MS Shell Dlg 2" fill="none" stroke-linecap="square" stroke="#000000" font-style="normal"/>
  <g stroke-linejoin="bevel" font-weight="400" stroke-opacity="1" stroke-width="1" transform="matrix(11.8,0,0,11.8,0,0)" font-size="32.5" font-family="MS Shell Dlg 2" fill="none" stroke-linecap="square" stroke="#000000" font-style="normal"/>
  <g stroke-linejoin="bevel" font-weight="400" stroke-opacity="1" stroke-width="1" transform="matrix(11.8,0,0,11.8,0,0)" font-size="32.5" font-family="MS Shell Dlg 2" fill="none" stroke-linecap="square" stroke="#000000" font-style="normal"/>
  <g stroke-linejoin="bevel" font-weight="400" stroke-opacity="1" stroke-width="1" transform="matrix(11.8,0,0,11.8,0,0)" font-size="32.5" font-family="MS Shell Dlg 2" fill="none" stroke-linecap="square" stroke="#000000" font-style="normal"/>
  <g stroke-linejoin="bevel" font-weight="400" stroke-opacity="1" stroke-width="1" transform="matrix(11.8,0,0,11.8,0,0)" font-size="32.5" font-family="MS Shell Dlg 2" fill="none" stroke-linecap="square" stroke="#000000" font-style="normal"/>
  <g stroke-linejoin="bevel" font-weight="400" stroke-opacity="1" stroke-width="1" transform="matrix(11.8,0,0,11.8,11.8,0)" font-size="32.5" font-family="MS Shell Dlg 2" fill="none" stroke-linecap="square" stroke="#000000" font-style="normal"/>
  <g stroke-linejoin="bevel" font-weight="400" stroke-opacity="1" stroke-width="1" transform="matrix(11.8,0,0,11.8,11.8,0)" font-size="32.5" font-family="MS Shell Dlg 2" fill="none" stroke-linecap="square" stroke="#000000" font-style="normal"/>
  <g font-weight="400" transform="matrix(11.8,0,0,11.8,11.8,0)" font-size="32.5" fill-opacity="1" font-family="MS Shell Dlg 2" fill="#ffffff" stroke="none" font-style="normal">
   <path fill-rule="evenodd" vector-effect="none" d="M0,0 L157.498,0 L157.498,15.034 L0,15.034 L0,0"/>
  </g>
  <g stroke-linejoin="bevel" font-weight="400" stroke-opacity="1" stroke-width="1" transform="matrix(11.8,0,0,11.8,11.8,0)" font-size="32.5" font-family="MS Shell Dlg 2" fill="none" stroke-linecap="square" stroke="#000000" font-style="normal"/>
  <g stroke-linejoin="bevel" font-weight="400" stroke-opacity="1" stroke-width="1" transform="matrix(0.999067,0,0,0.999067,11.8,0)" font-size="32.5" font-family="MS Shell Dlg 2" fill="none" stroke-linecap="square" stroke="#000000" font-style="normal"/>
  <g stroke-linejoin="bevel" font-weight="400" stroke-opacity="1" stroke-width="1" transform="matrix(11.8,0,0,11.8,11.8,0)" font-size="32.5" font-family="MS Shell Dlg 2" fill="none" stroke-linecap="square" stroke="#000000" font-style="normal"/>
  <g stroke-linejoin="bevel" font-weight="400" stroke-opacity="1" stroke-width="1" transform="matrix(1.18,0,0,1.18,11.8,0)" font-size="42" font-family="Montserrat" fill="none" stroke-linecap="square" stroke="#000000" font-style="normal">
   <text y="47" font-weight="400" font-size="42" fill-opacity="1" font-family="Montserrat" fill="#000000" xml:space="preserve" x="0" stroke="none" font-style="normal">Temperatura</text>
  </g>
  <g stroke-linejoin="bevel" font-weight="400" stroke-opacity="1" stroke-width="1" transform="matrix(11.8,0,0,11.8,11.8,0)" font-size="32.5" font-family="MS Shell Dlg 2" fill="none" stroke-linecap="square" stroke="#000000" font-style="normal"/>
  <g stroke-linejoin="miter" font-weight="400" stroke-opacity="1" stroke-width="1" transform="matrix(0.999067,0,0,0.999067,11.8,0)" font-size="32.5" font-family="MS Shell Dlg 2" fill="url(#gradient1)" stroke-linecap="square" stroke="#000000" stroke-miterlimit="2" font-style="normal">
   <rect width="448" y="67" vector-effect="non-scaling-stroke" x="0" height="47"/>
  </g>
  <g stroke-linejoin="bevel" font-weight="400" stroke-opacity="1" stroke-width="1" transform="matrix(11.8,0,0,11.8,11.8,0)" font-size="32.5" font-family="MS Shell Dlg 2" fill="none" stroke-linecap="square" stroke="#000000" font-style="normal"/>
  <g stroke-linejoin="bevel" font-weight="400" stroke-opacity="1" stroke-width="1" transform="matrix(0.999067,0,0,0.999067,11.8,0)" font-size="32.5" font-family="MS Shell Dlg 2" fill="none" stroke-linecap="square" stroke="#000000" font-style="normal"/>
  <g stroke-linejoin="bevel" font-weight="400" stroke-opacity="1" stroke-width="1" transform="matrix(0.399627,0,0,0.399627,11.8,163.664)" font-size="32.5" font-family="MS Shell Dlg 2" fill="none" stroke-linecap="square" stroke="#000000" font-style="normal"/>
  <g font-weight="400" transform="matrix(0.999067,0,0,0.999067,11.8,163.664)" font-size="32.5" fill-opacity="1" font-family="MS Shell Dlg 2" fill="#000000" stroke="none" font-style="normal">
   <path fill-rule="nonzero" vector-effect="none" d="M24.38,-2.944 L24.38,0 L1.794,0 L1.794,-2.346 L15.18,-15.456 C16.8667,-17.112 18.009,-18.5457 18.607,-19.757 C19.205,-20.9683 19.504,-22.1873 19.504,-23.414 C19.504,-25.3153 18.8523,-26.795 17.549,-27.853 C16.2457,-28.911 14.3827,-29.44 11.96,-29.44 C8.188,-29.44 5.25933,-28.244 3.174,-25.852 L0.828,-27.876 C2.08533,-29.348 3.68767,-30.4827 5.635,-31.28 C7.58233,-32.0773 9.78267,-32.476 12.236,-32.476 C15.5173,-32.476 18.1163,-31.7017 20.033,-30.153 C21.9497,-28.6043 22.908,-26.4807 22.908,-23.782 C22.908,-22.126 22.54,-20.5313 21.804,-18.998 C21.068,-17.4647 19.6727,-15.7013 17.618,-13.708 L6.67,-2.944 L24.38,-2.944 M39.34,-18.4 C42.7133,-18.216 45.2817,-17.3037 47.045,-15.663 C48.8083,-14.0223 49.69,-11.8833 49.69,-9.246 C49.69,-7.406 49.2453,-5.773 48.356,-4.347 C47.4667,-2.921 46.148,-1.794 44.4,-0.966 C42.652,-0.138 40.5207,0.276 38.006,0.276 C35.6753,0.276 33.475,-0.0996667 31.405,-0.851 C29.335,-1.60233 27.6713,-2.60667 26.414,-3.864 L28.024,-6.486 C29.0973,-5.382 30.5233,-4.485 32.302,-3.795 C34.0807,-3.105 35.982,-2.76 38.006,-2.76 C40.6433,-2.76 42.6827,-3.335 44.124,-4.485 C45.5653,-5.635 46.286,-7.222 46.286,-9.246 C46.286,-11.2393 45.5653,-12.8033 44.124,-13.938 C42.6827,-15.0727 40.5053,-15.64 37.592,-15.64 L35.292,-15.64 L35.292,-18.078 L44.216,-29.256 L27.748,-29.256 L27.748,-32.2 L48.448,-32.2 L48.448,-29.854 L39.34,-18.4 M56.876,0.23 C56.2013,0.23 55.6263,-0.0153333 55.151,-0.506 C54.6757,-0.996667 54.438,-1.59467 54.438,-2.3 C54.438,-3.00533 54.6757,-3.59567 55.151,-4.071 C55.6263,-4.54633 56.2013,-4.784 56.876,-4.784 C57.5507,-4.784 58.1333,-4.54633 58.624,-4.071 C59.1147,-3.59567 59.36,-3.00533 59.36,-2.3 C59.36,-1.59467 59.1147,-0.996667 58.624,-0.506 C58.1333,-0.0153333 57.5507,0.23 56.876,0.23 M82.838,-16.882 C84.862,-16.2073 86.4183,-15.1953 87.507,-13.846 C88.5957,-12.4967 89.14,-10.8713 89.14,-8.97 C89.14,-7.09933 88.634,-5.46633 87.622,-4.071 C86.61,-2.67567 85.161,-1.60233 83.275,-0.851 C81.389,-0.0996667 79.1733,0.276 76.628,0.276 C72.764,0.276 69.728,-0.552 67.52,-2.208 C65.312,-3.864 64.208,-6.118 64.208,-8.97 C64.208,-10.902 64.737,-12.535 65.795,-13.869 C66.853,-15.203 68.394,-16.2073 70.418,-16.882 C68.762,-17.526 67.5047,-18.4537 66.646,-19.665 C65.7873,-20.8763 65.358,-22.31 65.358,-23.966 C65.358,-26.5727 66.3777,-28.6427 68.417,-30.176 C70.4563,-31.7093 73.1933,-32.476 76.628,-32.476 C78.8973,-32.476 80.883,-32.131 82.585,-31.441 C84.287,-30.751 85.6133,-29.762 86.564,-28.474 C87.5147,-27.186 87.99,-25.6833 87.99,-23.966 C87.99,-22.31 87.5453,-20.8763 86.656,-19.665 C85.7667,-18.4537 84.494,-17.526 82.838,-16.882 M68.67,-23.874 C68.67,-22.0953 69.3753,-20.6847 70.786,-19.642 C72.1967,-18.5993 74.144,-18.078 76.628,-18.078 C79.112,-18.078 81.067,-18.5993 82.493,-19.642 C83.919,-20.6847 84.632,-22.08 84.632,-23.828 C84.632,-25.6373 83.9037,-27.0633 82.447,-28.106 C80.9903,-29.1487 79.0507,-29.67 76.628,-29.67 C74.1747,-29.67 72.235,-29.1487 70.809,-28.106 C69.383,-27.0633 68.67,-25.6527 68.67,-23.874 M76.628,-2.53 C79.48,-2.53 81.711,-3.11267 83.321,-4.278 C84.931,-5.44333 85.736,-7.02267 85.736,-9.016 C85.736,-11.0093 84.931,-12.581 83.321,-13.731 C81.711,-14.881 79.48,-15.456 76.628,-15.456 C73.8067,-15.456 71.591,-14.881 69.981,-13.731 C68.371,-12.581 67.566,-11.0093 67.566,-9.016 C67.566,-6.992 68.3633,-5.405 69.958,-4.255 C71.5527,-3.105 73.776,-2.53 76.628,-2.53 M112.614,-17.848 C111.265,-17.848 110.03,-18.17 108.911,-18.814 C107.792,-19.458 106.91,-20.3397 106.266,-21.459 C105.622,-22.5783 105.3,-23.8127 105.3,-25.162 C105.3,-26.4807 105.622,-27.6997 106.266,-28.819 C106.91,-29.9383 107.792,-30.82 108.911,-31.464 C110.03,-32.108 111.265,-32.43 112.614,-32.43 C113.963,-32.43 115.205,-32.108 116.34,-31.464 C117.475,-30.82 118.364,-29.9383 119.008,-28.819 C119.652,-27.6997 119.974,-26.4807 119.974,-25.162 C119.974,-23.8127 119.652,-22.5783 119.008,-21.459 C118.364,-20.3397 117.475,-19.458 116.34,-18.814 C115.205,-18.17 113.963,-17.848 112.614,-17.848 M112.614,-19.78 C114.117,-19.78 115.382,-20.2937 116.409,-21.321 C117.436,-22.3483 117.95,-23.6287 117.95,-25.162 C117.95,-26.6647 117.436,-27.9297 116.409,-28.957 C115.382,-29.9843 114.117,-30.498 112.614,-30.498 C111.111,-30.498 109.854,-29.9843 108.842,-28.957 C107.83,-27.9297 107.324,-26.6647 107.324,-25.162 C107.324,-23.6287 107.83,-22.3483 108.842,-21.321 C109.854,-20.2937 111.111,-19.78 112.614,-19.78 M141.228,0.276 C138.039,0.276 135.164,-0.429333 132.603,-1.84 C130.042,-3.25067 128.034,-5.20567 126.577,-7.705 C125.12,-10.2043 124.392,-13.0027 124.392,-16.1 C124.392,-19.1973 125.12,-21.9957 126.577,-24.495 C128.034,-26.9943 130.05,-28.9493 132.626,-30.36 C135.202,-31.7707 138.085,-32.476 141.274,-32.476 C143.666,-32.476 145.874,-32.0773 147.898,-31.28 C149.922,-30.4827 151.639,-29.3173 153.05,-27.784 L150.888,-25.622 C148.373,-28.1673 145.199,-29.44 141.366,-29.44 C138.821,-29.44 136.505,-28.8573 134.42,-27.692 C132.335,-26.5267 130.702,-24.932 129.521,-22.908 C128.34,-20.884 127.75,-18.6147 127.75,-16.1 C127.75,-13.5853 128.34,-11.316 129.521,-9.292 C130.702,-7.268 132.335,-5.67333 134.42,-4.508 C136.505,-3.34267 138.821,-2.76 141.366,-2.76 C145.23,-2.76 148.404,-4.048 150.888,-6.624 L153.05,-4.462 C151.639,-2.92867 149.914,-1.75567 147.875,-0.943 C145.836,-0.130333 143.62,0.276 141.228,0.276 "/>
  </g>
  <g stroke-linejoin="bevel" font-weight="400" stroke-opacity="1" stroke-width="1" transform="matrix(0.399627,0,0,0.399627,11.8,163.664)" font-size="32.5" font-family="MS Shell Dlg 2" fill="none" stroke-linecap="square" stroke="#000000" font-style="normal"/>
  <g stroke-linejoin="bevel" font-weight="400" stroke-opacity="1" stroke-width="1" transform="matrix(0.999067,0,0,0.999067,11.8,0)" font-size="32.5" font-family="MS Shell Dlg 2" fill="none" stroke-linecap="square" stroke="#000000" font-style="normal"/>
  <g stroke-linejoin="bevel" font-weight="400" stroke-opacity="1" stroke-width="1" transform="matrix(0.399627,0,0,0.399627,304.346,163.664)" font-size="32.5" font-family="MS Shell Dlg 2" fill="none" stroke-linecap="square" stroke="#000000" font-style="normal"/>
  <g font-weight="400" transform="matrix(0.999067,0,0,0.999067,304.346,163.664)" font-size="32.5" fill-opacity="1" font-family="MS Shell Dlg 2" fill="#000000" stroke="none" font-style="normal">
   <path fill-rule="nonzero" vector-effect="none" d="M13.34,-18.4 C16.7133,-18.216 19.2817,-17.3037 21.045,-15.663 C22.8083,-14.0223 23.69,-11.8833 23.69,-9.246 C23.69,-7.406 23.2453,-5.773 22.356,-4.347 C21.4667,-2.921 20.148,-1.794 18.4,-0.966 C16.652,-0.138 14.5207,0.276 12.006,0.276 C9.67533,0.276 7.475,-0.0996667 5.405,-0.851 C3.335,-1.60233 1.67133,-2.60667 0.414,-3.864 L2.024,-6.486 C3.09733,-5.382 4.52333,-4.485 6.302,-3.795 C8.08067,-3.105 9.982,-2.76 12.006,-2.76 C14.6433,-2.76 16.6827,-3.335 18.124,-4.485 C19.5653,-5.635 20.286,-7.222 20.286,-9.246 C20.286,-11.2393 19.5653,-12.8033 18.124,-13.938 C16.6827,-15.0727 14.5053,-15.64 11.592,-15.64 L9.292,-15.64 L9.292,-18.078 L18.216,-29.256 L1.748,-29.256 L1.748,-32.2 L22.448,-32.2 L22.448,-29.854 L13.34,-18.4 M41.226,0.276 C38.742,0.276 36.5263,-0.383333 34.579,-1.702 C32.6317,-3.02067 31.1137,-4.91433 30.025,-7.383 C28.9363,-9.85167 28.392,-12.7573 28.392,-16.1 C28.392,-19.4427 28.9363,-22.3483 30.025,-24.817 C31.1137,-27.2857 32.6317,-29.1793 34.579,-30.498 C36.5263,-31.8167 38.742,-32.476 41.226,-32.476 C43.71,-32.476 45.9257,-31.8167 47.873,-30.498 C49.8203,-29.1793 51.346,-27.2857 52.45,-24.817 C53.554,-22.3483 54.106,-19.4427 54.106,-16.1 C54.106,-12.7573 53.554,-9.85167 52.45,-7.383 C51.346,-4.91433 49.8203,-3.02067 47.873,-1.702 C45.9257,-0.383333 43.71,0.276 41.226,0.276 M41.226,-2.76 C43.0967,-2.76 44.745,-3.28133 46.171,-4.324 C47.597,-5.36667 48.7087,-6.88467 49.506,-8.878 C50.3033,-10.8713 50.702,-13.2787 50.702,-16.1 C50.702,-18.9213 50.3033,-21.3287 49.506,-23.322 C48.7087,-25.3153 47.597,-26.8333 46.171,-27.876 C44.745,-28.9187 43.0967,-29.44 41.226,-29.44 C39.3553,-29.44 37.707,-28.9187 36.281,-27.876 C34.855,-26.8333 33.7433,-25.3153 32.946,-23.322 C32.1487,-21.3287 31.75,-18.9213 31.75,-16.1 C31.75,-13.2787 32.1487,-10.8713 32.946,-8.878 C33.7433,-6.88467 34.855,-5.36667 36.281,-4.324 C37.707,-3.28133 39.3553,-2.76 41.226,-2.76 M60.876,0.23 C60.2013,0.23 59.6263,-0.0153333 59.151,-0.506 C58.6757,-0.996667 58.438,-1.59467 58.438,-2.3 C58.438,-3.00533 58.6757,-3.59567 59.151,-4.071 C59.6263,-4.54633 60.2013,-4.784 60.876,-4.784 C61.5507,-4.784 62.1333,-4.54633 62.624,-4.071 C63.1147,-3.59567 63.36,-3.00533 63.36,-2.3 C63.36,-1.59467 63.1147,-0.996667 62.624,-0.506 C62.1333,-0.0153333 61.5507,0.23 60.876,0.23 M90.116,-32.2 L90.116,-29.854 L76.638,0 L73.05,0 L86.298,-29.256 L69.738,-29.256 L69.738,-23.23 L66.472,-23.23 L66.472,-32.2 L90.116,-32.2 M113.614,-17.848 C112.265,-17.848 111.03,-18.17 109.911,-18.814 C108.792,-19.458 107.91,-20.3397 107.266,-21.459 C106.622,-22.5783 106.3,-23.8127 106.3,-25.162 C106.3,-26.4807 106.622,-27.6997 107.266,-28.819 C107.91,-29.9383 108.792,-30.82 109.911,-31.464 C111.03,-32.108 112.265,-32.43 113.614,-32.43 C114.963,-32.43 116.205,-32.108 117.34,-31.464 C118.475,-30.82 119.364,-29.9383 120.008,-28.819 C120.652,-27.6997 120.974,-26.4807 120.974,-25.162 C120.974,-23.8127 120.652,-22.5783 120.008,-21.459 C119.364,-20.3397 118.475,-19.458 117.34,-18.814 C116.205,-18.17 114.963,-17.848 113.614,-17.848 M113.614,-19.78 C115.117,-19.78 116.382,-20.2937 117.409,-21.321 C118.436,-22.3483 118.95,-23.6287 118.95,-25.162 C118.95,-26.6647 118.436,-27.9297 117.409,-28.957 C116.382,-29.9843 115.117,-30.498 113.614,-30.498 C112.111,-30.498 110.854,-29.9843 109.842,-28.957 C108.83,-27.9297 108.324,-26.6647 108.324,-25.162 C108.324,-23.6287 108.83,-22.3483 109.842,-21.321 C110.854,-20.2937 112.111,-19.78 113.614,-19.78 M142.228,0.276 C139.039,0.276 136.164,-0.429333 133.603,-1.84 C131.042,-3.25067 129.034,-5.20567 127.577,-7.705 C126.12,-10.2043 125.392,-13.0027 125.392,-16.1 C125.392,-19.1973 126.12,-21.9957 127.577,-24.495 C129.034,-26.9943 131.05,-28.9493 133.626,-30.36 C136.202,-31.7707 139.085,-32.476 142.274,-32.476 C144.666,-32.476 146.874,-32.0773 148.898,-31.28 C150.922,-30.4827 152.639,-29.3173 154.05,-27.784 L151.888,-25.622 C149.373,-28.1673 146.199,-29.44 142.366,-29.44 C139.821,-29.44 137.505,-28.8573 135.42,-27.692 C133.335,-26.5267 131.702,-24.932 130.521,-22.908 C129.34,-20.884 128.75,-18.6147 128.75,-16.1 C128.75,-13.5853 129.34,-11.316 130.521,-9.292 C131.702,-7.268 133.335,-5.67333 135.42,-4.508 C137.505,-3.34267 139.821,-2.76 142.366,-2.76 C146.23,-2.76 149.404,-4.048 151.888,-6.624 L154.05,-4.462 C152.639,-2.92867 150.914,-1.75567 148.875,-0.943 C146.836,-0.130333 144.62,0.276 142.228,0.276 "/>
  </g>
  <g stroke-linejoin="bevel" font-weight="400" stroke-opacity="1" stroke-width="1" transform="matrix(0.399627,0,0,0.399627,304.346,163.664)" font-size="32.5" font-family="MS Shell Dlg 2" fill="none" stroke-linecap="square" stroke="#000000" font-style="normal"/>
  <g stroke-linejoin="bevel" font-weight="400" stroke-opacity="1" stroke-width="1" transform="matrix(0.999067,0,0,0.999067,11.8,0)" font-size="32.5" font-family="MS Shell Dlg 2" fill="none" stroke-linecap="square" stroke="#000000" font-style="normal"/>
  <g stroke-linejoin="bevel" font-weight="400" stroke-opacity="1" stroke-width="1" transform="matrix(11.8,0,0,11.8,11.8,0)" font-size="32.5" font-family="MS Shell Dlg 2" fill="none" stroke-linecap="square" stroke="#000000" font-style="normal"/>
  <g stroke-linejoin="bevel" font-weight="400" stroke-opacity="1" stroke-width="1" transform="matrix(1.18,0,0,1.18,11.8,0)" font-size="42" font-family="Montserrat" fill="none" stroke-linecap="square" stroke="#000000" font-style="normal">
   <text y="47" font-weight="400" font-size="42" fill-opacity="1" font-family="Montserrat" fill="#000000" xml:space="preserve" x="390" stroke="none" font-style="normal">Salinidad</text>
  </g>
  <g stroke-linejoin="bevel" font-weight="400" stroke-opacity="1" stroke-width="1" transform="matrix(11.8,0,0,11.8,11.8,0)" font-size="32.5" font-family="MS Shell Dlg 2" fill="none" stroke-linecap="square" stroke="#000000" font-style="normal"/>
  <g stroke-linejoin="miter" font-weight="400" stroke-opacity="1" stroke-width="1" transform="matrix(0.999067,0,0,0.999067,11.8,0)" font-size="32.5" font-family="MS Shell Dlg 2" fill="url(#gradient2)" stroke-linecap="square" stroke="#000000" stroke-miterlimit="2" font-style="normal">
   <rect width="448" y="67" vector-effect="non-scaling-stroke" x="460" height="47"/>
  </g>
  <g stroke-linejoin="bevel" font-weight="400" stroke-opacity="1" stroke-width="1" transform="matrix(11.8,0,0,11.8,11.8,0)" font-size="32.5" font-family="MS Shell Dlg 2" fill="none" stroke-linecap="square" stroke="#000000" font-style="normal"/>
  <g stroke-linejoin="bevel" font-weight="400" stroke-opacity="1" stroke-width="1" transform="matrix(0.999067,0,0,0.999067,11.8,0)" font-size="32.5" font-family="MS Shell Dlg 2" fill="none" stroke-linecap="square" stroke="#000000" font-style="normal"/>
  <g stroke-linejoin="bevel" font-weight="400" stroke-opacity="1" stroke-width="1" transform="matrix(0.399627,0,0,0.399627,472,163.664)" font-size="32.5" font-family="MS Shell Dlg 2" fill="none" stroke-linecap="square" stroke="#000000" font-style="normal"/>
  <g font-weight="400" transform="matrix(0.999067,0,0,0.999067,472,163.664)" font-size="32.5" fill-opacity="1" font-family="MS Shell Dlg 2" fill="#000000" stroke="none" font-style="normal">
   <path fill-rule="nonzero" vector-effect="none" d="M13.34,-18.4 C16.7133,-18.216 19.2817,-17.3037 21.045,-15.663 C22.8083,-14.0223 23.69,-11.8833 23.69,-9.246 C23.69,-7.406 23.2453,-5.773 22.356,-4.347 C21.4667,-2.921 20.148,-1.794 18.4,-0.966 C16.652,-0.138 14.5207,0.276 12.006,0.276 C9.67533,0.276 7.475,-0.0996667 5.405,-0.851 C3.335,-1.60233 1.67133,-2.60667 0.414,-3.864 L2.024,-6.486 C3.09733,-5.382 4.52333,-4.485 6.302,-3.795 C8.08067,-3.105 9.982,-2.76 12.006,-2.76 C14.6433,-2.76 16.6827,-3.335 18.124,-4.485 C19.5653,-5.635 20.286,-7.222 20.286,-9.246 C20.286,-11.2393 19.5653,-12.8033 18.124,-13.938 C16.6827,-15.0727 14.5053,-15.64 11.592,-15.64 L9.292,-15.64 L9.292,-18.078 L18.216,-29.256 L1.748,-29.256 L1.748,-32.2 L22.448,-32.2 L22.448,-29.854 L13.34,-18.4 M55.762,-8.464 L49.322,-8.464 L49.322,0 L46.01,0 L46.01,-8.464 L27.84,-8.464 L27.84,-10.856 L44.906,-32.2 L48.586,-32.2 L32.118,-11.408 L46.102,-11.408 L46.102,-18.86 L49.322,-18.86 L49.322,-11.408 L55.762,-11.408 L55.762,-8.464 M61.876,0.23 C61.2013,0.23 60.6263,-0.0153333 60.151,-0.506 C59.6757,-0.996667 59.438,-1.59467 59.438,-2.3 C59.438,-3.00533 59.6757,-3.59567 60.151,-4.071 C60.6263,-4.54633 61.2013,-4.784 61.876,-4.784 C62.5507,-4.784 63.1333,-4.54633 63.624,-4.071 C64.1147,-3.59567 64.36,-3.00533 64.36,-2.3 C64.36,-1.59467 64.1147,-0.996667 63.624,-0.506 C63.1333,-0.0153333 62.5507,0.23 61.876,0.23 M77.856,-18.998 C82.5173,-18.998 85.9137,-18.1623 88.045,-16.491 C90.1763,-14.8197 91.242,-12.4813 91.242,-9.476 C91.242,-7.60533 90.805,-5.934 89.931,-4.462 C89.057,-2.99 87.746,-1.83233 85.998,-0.989 C84.25,-0.145667 82.1033,0.276 79.558,0.276 C77.258,0.276 75.073,-0.0996667 73.003,-0.851 C70.933,-1.60233 69.2693,-2.60667 68.012,-3.864 L69.622,-6.486 C70.6953,-5.382 72.106,-4.485 73.854,-3.795 C75.602,-3.105 77.488,-2.76 79.512,-2.76 C82.18,-2.76 84.2423,-3.358 85.699,-4.554 C87.1557,-5.75 87.884,-7.34467 87.884,-9.338 C87.884,-11.546 87.0637,-13.2173 85.423,-14.352 C83.7823,-15.4867 81.0147,-16.054 77.12,-16.054 L70.266,-16.054 L71.922,-32.2 L89.54,-32.2 L89.54,-29.256 L74.82,-29.256 L73.716,-18.998 L77.856,-18.998 M123.216,0.276 C119.045,0.276 115.795,-0.92 113.464,-3.312 C111.133,-5.704 109.968,-9.18467 109.968,-13.754 L109.968,-32.2 L113.372,-32.2 L113.372,-13.892 C113.372,-10.1507 114.215,-7.36 115.902,-5.52 C117.589,-3.68 120.027,-2.76 123.216,-2.76 C126.436,-2.76 128.889,-3.68 130.576,-5.52 C132.263,-7.36 133.106,-10.1507 133.106,-13.892 L133.106,-32.2 L136.418,-32.2 L136.418,-13.754 C136.418,-9.18467 135.26,-5.704 132.945,-3.312 C130.63,-0.92 127.387,0.276 123.216,0.276 M158.296,-32.2 C162.405,-32.2 165.625,-31.2187 167.956,-29.256 C170.287,-27.2933 171.452,-24.5947 171.452,-21.16 C171.452,-17.7253 170.287,-15.0343 167.956,-13.087 C165.625,-11.1397 162.405,-10.166 158.296,-10.166 L149.648,-10.166 L149.648,0 L146.244,0 L146.244,-32.2 L158.296,-32.2 M158.204,-13.156 C161.393,-13.156 163.831,-13.8537 165.518,-15.249 C167.205,-16.6443 168.048,-18.6147 168.048,-21.16 C168.048,-23.7667 167.205,-25.7677 165.518,-27.163 C163.831,-28.5583 161.393,-29.256 158.204,-29.256 L149.648,-29.256 L149.648,-13.156 L158.204,-13.156 M188.122,0.276 C185.73,0.276 183.438,-0.107333 181.245,-0.874 C179.052,-1.64067 177.358,-2.65267 176.162,-3.91 L177.496,-6.532 C178.661,-5.36667 180.21,-4.42367 182.142,-3.703 C184.074,-2.98233 186.067,-2.622 188.122,-2.622 C191.005,-2.622 193.167,-3.151 194.608,-4.209 C196.049,-5.267 196.77,-6.63933 196.77,-8.326 C196.77,-9.614 196.379,-10.6413 195.597,-11.408 C194.815,-12.1747 193.857,-12.765 192.722,-13.179 C191.587,-13.593 190.008,-14.0453 187.984,-14.536 C185.561,-15.1493 183.629,-15.7397 182.188,-16.307 C180.747,-16.8743 179.512,-17.7407 178.485,-18.906 C177.458,-20.0713 176.944,-21.6507 176.944,-23.644 C176.944,-25.2693 177.373,-26.749 178.232,-28.083 C179.091,-29.417 180.409,-30.4827 182.188,-31.28 C183.967,-32.0773 186.175,-32.476 188.812,-32.476 C190.652,-32.476 192.454,-32.223 194.217,-31.717 C195.98,-31.211 197.506,-30.5133 198.794,-29.624 L197.644,-26.91 C196.295,-27.7993 194.853,-28.4663 193.32,-28.911 C191.787,-29.3557 190.284,-29.578 188.812,-29.578 C185.991,-29.578 183.867,-29.0337 182.441,-27.945 C181.015,-26.8563 180.302,-25.4533 180.302,-23.736 C180.302,-22.448 180.693,-21.413 181.475,-20.631 C182.257,-19.849 183.238,-19.251 184.419,-18.837 C185.6,-18.423 187.187,-17.9707 189.18,-17.48 C191.541,-16.8973 193.45,-16.3223 194.907,-15.755 C196.364,-15.1877 197.598,-14.329 198.61,-13.179 C199.622,-12.029 200.128,-10.4727 200.128,-8.51 C200.128,-6.88467 199.691,-5.405 198.817,-4.071 C197.943,-2.737 196.601,-1.679 194.792,-0.897 C192.983,-0.115 190.759,0.276 188.122,0.276 "/>
  </g>
  <g stroke-linejoin="bevel" font-weight="400" stroke-opacity="1" stroke-width="1" transform="matrix(0.399627,0,0,0.399627,472,163.664)" font-size="32.5" font-family="MS Shell Dlg 2" fill="none" stroke-linecap="square" stroke="#000000" font-style="normal"/>
  <g stroke-linejoin="bevel" font-weight="400" stroke-opacity="1" stroke-width="1" transform="matrix(0.999067,0,0,0.999067,11.8,0)" font-size="32.5" font-family="MS Shell Dlg 2" fill="none" stroke-linecap="square" stroke="#000000" font-style="normal"/>
  <g stroke-linejoin="bevel" font-weight="400" stroke-opacity="1" stroke-width="1" transform="matrix(0.399627,0,0,0.399627,720.587,163.664)" font-size="32.5" font-family="MS Shell Dlg 2" fill="none" stroke-linecap="square" stroke="#000000" font-style="normal"/>
  <g font-weight="400" transform="matrix(0.999067,0,0,0.999067,720.587,163.664)" font-size="32.5" fill-opacity="1" font-family="MS Shell Dlg 2" fill="#000000" stroke="none" font-style="normal">
   <path fill-rule="nonzero" vector-effect="none" d="M13.34,-18.4 C16.7133,-18.216 19.2817,-17.3037 21.045,-15.663 C22.8083,-14.0223 23.69,-11.8833 23.69,-9.246 C23.69,-7.406 23.2453,-5.773 22.356,-4.347 C21.4667,-2.921 20.148,-1.794 18.4,-0.966 C16.652,-0.138 14.5207,0.276 12.006,0.276 C9.67533,0.276 7.475,-0.0996667 5.405,-0.851 C3.335,-1.60233 1.67133,-2.60667 0.414,-3.864 L2.024,-6.486 C3.09733,-5.382 4.52333,-4.485 6.302,-3.795 C8.08067,-3.105 9.982,-2.76 12.006,-2.76 C14.6433,-2.76 16.6827,-3.335 18.124,-4.485 C19.5653,-5.635 20.286,-7.222 20.286,-9.246 C20.286,-11.2393 19.5653,-12.8033 18.124,-13.938 C16.6827,-15.0727 14.5053,-15.64 11.592,-15.64 L9.292,-15.64 L9.292,-18.078 L18.216,-29.256 L1.748,-29.256 L1.748,-32.2 L22.448,-32.2 L22.448,-29.854 L13.34,-18.4 M36.856,-18.998 C41.5173,-18.998 44.9137,-18.1623 47.045,-16.491 C49.1763,-14.8197 50.242,-12.4813 50.242,-9.476 C50.242,-7.60533 49.805,-5.934 48.931,-4.462 C48.057,-2.99 46.746,-1.83233 44.998,-0.989 C43.25,-0.145667 41.1033,0.276 38.558,0.276 C36.258,0.276 34.073,-0.0996667 32.003,-0.851 C29.933,-1.60233 28.2693,-2.60667 27.012,-3.864 L28.622,-6.486 C29.6953,-5.382 31.106,-4.485 32.854,-3.795 C34.602,-3.105 36.488,-2.76 38.512,-2.76 C41.18,-2.76 43.2423,-3.358 44.699,-4.554 C46.1557,-5.75 46.884,-7.34467 46.884,-9.338 C46.884,-11.546 46.0637,-13.2173 44.423,-14.352 C42.7823,-15.4867 40.0147,-16.054 36.12,-16.054 L29.266,-16.054 L30.922,-32.2 L48.54,-32.2 L48.54,-29.256 L33.82,-29.256 L32.716,-18.998 L36.856,-18.998 M56.876,0.23 C56.2013,0.23 55.6263,-0.0153333 55.151,-0.506 C54.6757,-0.996667 54.438,-1.59467 54.438,-2.3 C54.438,-3.00533 54.6757,-3.59567 55.151,-4.071 C55.6263,-4.54633 56.2013,-4.784 56.876,-4.784 C57.5507,-4.784 58.1333,-4.54633 58.624,-4.071 C59.1147,-3.59567 59.36,-3.00533 59.36,-2.3 C59.36,-1.59467 59.1147,-0.996667 58.624,-0.506 C58.1333,-0.0153333 57.5507,0.23 56.876,0.23 M82.838,-16.882 C84.862,-16.2073 86.4183,-15.1953 87.507,-13.846 C88.5957,-12.4967 89.14,-10.8713 89.14,-8.97 C89.14,-7.09933 88.634,-5.46633 87.622,-4.071 C86.61,-2.67567 85.161,-1.60233 83.275,-0.851 C81.389,-0.0996667 79.1733,0.276 76.628,0.276 C72.764,0.276 69.728,-0.552 67.52,-2.208 C65.312,-3.864 64.208,-6.118 64.208,-8.97 C64.208,-10.902 64.737,-12.535 65.795,-13.869 C66.853,-15.203 68.394,-16.2073 70.418,-16.882 C68.762,-17.526 67.5047,-18.4537 66.646,-19.665 C65.7873,-20.8763 65.358,-22.31 65.358,-23.966 C65.358,-26.5727 66.3777,-28.6427 68.417,-30.176 C70.4563,-31.7093 73.1933,-32.476 76.628,-32.476 C78.8973,-32.476 80.883,-32.131 82.585,-31.441 C84.287,-30.751 85.6133,-29.762 86.564,-28.474 C87.5147,-27.186 87.99,-25.6833 87.99,-23.966 C87.99,-22.31 87.5453,-20.8763 86.656,-19.665 C85.7667,-18.4537 84.494,-17.526 82.838,-16.882 M68.67,-23.874 C68.67,-22.0953 69.3753,-20.6847 70.786,-19.642 C72.1967,-18.5993 74.144,-18.078 76.628,-18.078 C79.112,-18.078 81.067,-18.5993 82.493,-19.642 C83.919,-20.6847 84.632,-22.08 84.632,-23.828 C84.632,-25.6373 83.9037,-27.0633 82.447,-28.106 C80.9903,-29.1487 79.0507,-29.67 76.628,-29.67 C74.1747,-29.67 72.235,-29.1487 70.809,-28.106 C69.383,-27.0633 68.67,-25.6527 68.67,-23.874 M76.628,-2.53 C79.48,-2.53 81.711,-3.11267 83.321,-4.278 C84.931,-5.44333 85.736,-7.02267 85.736,-9.016 C85.736,-11.0093 84.931,-12.581 83.321,-13.731 C81.711,-14.881 79.48,-15.456 76.628,-15.456 C73.8067,-15.456 71.591,-14.881 69.981,-13.731 C68.371,-12.581 67.566,-11.0093 67.566,-9.016 C67.566,-6.992 68.3633,-5.405 69.958,-4.255 C71.5527,-3.105 73.776,-2.53 76.628,-2.53 M121.216,0.276 C117.045,0.276 113.795,-0.92 111.464,-3.312 C109.133,-5.704 107.968,-9.18467 107.968,-13.754 L107.968,-32.2 L111.372,-32.2 L111.372,-13.892 C111.372,-10.1507 112.215,-7.36 113.902,-5.52 C115.589,-3.68 118.027,-2.76 121.216,-2.76 C124.436,-2.76 126.889,-3.68 128.576,-5.52 C130.263,-7.36 131.106,-10.1507 131.106,-13.892 L131.106,-32.2 L134.418,-32.2 L134.418,-13.754 C134.418,-9.18467 133.26,-5.704 130.945,-3.312 C128.63,-0.92 125.387,0.276 121.216,0.276 M156.296,-32.2 C160.405,-32.2 163.625,-31.2187 165.956,-29.256 C168.287,-27.2933 169.452,-24.5947 169.452,-21.16 C169.452,-17.7253 168.287,-15.0343 165.956,-13.087 C163.625,-11.1397 160.405,-10.166 156.296,-10.166 L147.648,-10.166 L147.648,0 L144.244,0 L144.244,-32.2 L156.296,-32.2 M156.204,-13.156 C159.393,-13.156 161.831,-13.8537 163.518,-15.249 C165.205,-16.6443 166.048,-18.6147 166.048,-21.16 C166.048,-23.7667 165.205,-25.7677 163.518,-27.163 C161.831,-28.5583 159.393,-29.256 156.204,-29.256 L147.648,-29.256 L147.648,-13.156 L156.204,-13.156 M186.122,0.276 C183.73,0.276 181.438,-0.107333 179.245,-0.874 C177.052,-1.64067 175.358,-2.65267 174.162,-3.91 L175.496,-6.532 C176.661,-5.36667 178.21,-4.42367 180.142,-3.703 C182.074,-2.98233 184.067,-2.622 186.122,-2.622 C189.005,-2.622 191.167,-3.151 192.608,-4.209 C194.049,-5.267 194.77,-6.63933 194.77,-8.326 C194.77,-9.614 194.379,-10.6413 193.597,-11.408 C192.815,-12.1747 191.857,-12.765 190.722,-13.179 C189.587,-13.593 188.008,-14.0453 185.984,-14.536 C183.561,-15.1493 181.629,-15.7397 180.188,-16.307 C178.747,-16.8743 177.512,-17.7407 176.485,-18.906 C175.458,-20.0713 174.944,-21.6507 174.944,-23.644 C174.944,-25.2693 175.373,-26.749 176.232,-28.083 C177.091,-29.417 178.409,-30.4827 180.188,-31.28 C181.967,-32.0773 184.175,-32.476 186.812,-32.476 C188.652,-32.476 190.454,-32.223 192.217,-31.717 C193.98,-31.211 195.506,-30.5133 196.794,-29.624 L195.644,-26.91 C194.295,-27.7993 192.853,-28.4663 191.32,-28.911 C189.787,-29.3557 188.284,-29.578 186.812,-29.578 C183.991,-29.578 181.867,-29.0337 180.441,-27.945 C179.015,-26.8563 178.302,-25.4533 178.302,-23.736 C178.302,-22.448 178.693,-21.413 179.475,-20.631 C180.257,-19.849 181.238,-19.251 182.419,-18.837 C183.6,-18.423 185.187,-17.9707 187.18,-17.48 C189.541,-16.8973 191.45,-16.3223 192.907,-15.755 C194.364,-15.1877 195.598,-14.329 196.61,-13.179 C197.622,-12.029 198.128,-10.4727 198.128,-8.51 C198.128,-6.88467 197.691,-5.405 196.817,-4.071 C195.943,-2.737 194.601,-1.679 192.792,-0.897 C190.983,-0.115 188.759,0.276 186.122,0.276 "/>
  </g>
  <g stroke-linejoin="bevel" font-weight="400" stroke-opacity="1" stroke-width="1" transform="matrix(0.399627,0,0,0.399627,720.587,163.664)" font-size="32.5" font-family="MS Shell Dlg 2" fill="none" stroke-linecap="square" stroke="#000000" font-style="normal"/>
  <g stroke-linejoin="bevel" font-weight="400" stroke-opacity="1" stroke-width="1" transform="matrix(0.999067,0,0,0.999067,11.8,0)" font-size="32.5" font-family="MS Shell Dlg 2" fill="none" stroke-linecap="square" stroke="#000000" font-style="normal"/>
  <g stroke-linejoin="bevel" font-weight="400" stroke-opacity="1" stroke-width="1" transform="matrix(11.8,0,0,11.8,11.8,0)" font-size="32.5" font-family="MS Shell Dlg 2" fill="none" stroke-linecap="square" stroke="#000000" font-style="normal"/>
  <g stroke-linejoin="bevel" font-weight="400" stroke-opacity="1" stroke-width="1" transform="matrix(1.18,0,0,1.18,11.8,0)" font-size="42" font-family="Montserrat" fill="none" stroke-linecap="square" stroke="#000000" font-style="normal">
   <text y="47" font-weight="400" font-size="42" fill-opacity="1" font-family="Montserrat" fill="#000000" xml:space="preserve" x="780" stroke="none" font-style="normal">Oxígeno</text>
  </g>
  <g stroke-linejoin="bevel" font-weight="400" stroke-opacity="1" stroke-width="1" transform="matrix(11.8,0,0,11.8,11.8,0)" font-size="32.5" font-family="MS Shell Dlg 2" fill="none" stroke-linecap="square" stroke="#000000" font-style="normal"/>
  <g stroke-linejoin="miter" font-weight="400" stroke-opacity="1" stroke-width="1" transform="matrix(0.999067,0,0,0.999067,11.8,0)" font-size="32.5" font-family="MS Shell Dlg 2" fill="url(#gradient3)" stroke-linecap="square" stroke="#000000" stroke-miterlimit="2" font-style="normal">
   <rect width="448" y="67" vector-effect="non-scaling-stroke" x="921" height="47"/>
  </g>
  <g stroke-linejoin="bevel" font-weight="400" stroke-opacity="1" stroke-width="1" transform="matrix(11.8,0,0,11.8,11.8,0)" font-size="32.5" font-family="MS Shell Dlg 2" fill="none" stroke-linecap="square" stroke="#000000" font-style="normal"/>
  <g stroke-linejoin="bevel" font-weight="400" stroke-opacity="1" stroke-width="1" transform="matrix(0.999067,0,0,0.999067,11.8,0)" font-size="32.5" font-family="MS Shell Dlg 2" fill="none" stroke-linecap="square" stroke="#000000" font-style="normal"/>
  <g stroke-linejoin="bevel" font-weight="400" stroke-opacity="1" stroke-width="1" transform="matrix(0.399627,0,0,0.399627,932.2,163.664)" font-size="32.5" font-family="MS Shell Dlg 2" fill="none" stroke-linecap="square" stroke="#000000" font-style="normal"/>
  <g font-weight="400" transform="matrix(0.999067,0,0,0.999067,932.2,163.664)" font-size="32.5" fill-opacity="1" font-family="MS Shell Dlg 2" fill="#000000" stroke="none" font-style="normal">
   <path fill-rule="nonzero" vector-effect="none" d="M11.316,-32.2 L11.316,0 L8.004,0 L8.004,-29.256 L0.414,-29.256 L0.414,-32.2 L11.316,-32.2 M21.876,0.23 C21.2013,0.23 20.6263,-0.0153333 20.151,-0.506 C19.6757,-0.996667 19.438,-1.59467 19.438,-2.3 C19.438,-3.00533 19.6757,-3.59567 20.151,-4.071 C20.6263,-4.54633 21.2013,-4.784 21.876,-4.784 C22.5507,-4.784 23.1333,-4.54633 23.624,-4.071 C24.1147,-3.59567 24.36,-3.00533 24.36,-2.3 C24.36,-1.59467 24.1147,-0.996667 23.624,-0.506 C23.1333,-0.0153333 22.5507,0.23 21.876,0.23 M51.116,-32.2 L51.116,-29.854 L37.638,0 L34.05,0 L47.298,-29.256 L30.738,-29.256 L30.738,-23.23 L27.472,-23.23 L27.472,-32.2 L51.116,-32.2 M99.73,-24.38 C102.766,-24.38 105.15,-23.506 106.883,-21.758 C108.616,-20.01 109.482,-17.434 109.482,-14.03 L109.482,0 L106.216,0 L106.216,-13.708 C106.216,-16.2227 105.61,-18.1393 104.399,-19.458 C103.188,-20.7767 101.478,-21.436 99.27,-21.436 C96.7553,-21.436 94.7773,-20.6617 93.336,-19.113 C91.8947,-17.5643 91.174,-15.4253 91.174,-12.696 L91.174,0 L87.908,0 L87.908,-13.708 C87.908,-16.2227 87.3023,-18.1393 86.091,-19.458 C84.8797,-20.7767 83.1547,-21.436 80.916,-21.436 C78.432,-21.436 76.4617,-20.6617 75.005,-19.113 C73.5483,-17.5643 72.82,-15.4253 72.82,-12.696 L72.82,0 L69.554,0 L69.554,-24.196 L72.682,-24.196 L72.682,-19.78 C73.5407,-21.252 74.7367,-22.3867 76.27,-23.184 C77.8033,-23.9813 79.5667,-24.38 81.56,-24.38 C83.584,-24.38 85.3397,-23.9507 86.827,-23.092 C88.3143,-22.2333 89.426,-20.9607 90.162,-19.274 C91.0513,-20.8687 92.3317,-22.1183 94.003,-23.023 C95.6743,-23.9277 97.5833,-24.38 99.73,-24.38 M140.956,-24.196 L140.956,-2.944 C140.956,1.16533 139.952,4.209 137.943,6.187 C135.934,8.165 132.906,9.154 128.858,9.154 C126.619,9.154 124.496,8.82433 122.487,8.165 C120.478,7.50567 118.845,6.59333 117.588,5.428 L119.244,2.944 C120.409,3.98667 121.828,4.79933 123.499,5.382 C125.17,5.96467 126.926,6.256 128.766,6.256 C131.833,6.256 134.087,5.543 135.528,4.117 C136.969,2.691 137.69,0.475333 137.69,-2.53 L137.69,-5.612 C136.678,-4.07867 135.352,-2.91333 133.711,-2.116 C132.07,-1.31867 130.253,-0.92 128.26,-0.92 C125.991,-0.92 123.928,-1.41833 122.073,-2.415 C120.218,-3.41167 118.761,-4.807 117.703,-6.601 C116.645,-8.395 116.116,-10.4267 116.116,-12.696 C116.116,-14.9653 116.645,-16.9893 117.703,-18.768 C118.761,-20.5467 120.21,-21.9267 122.05,-22.908 C123.89,-23.8893 125.96,-24.38 128.26,-24.38 C130.315,-24.38 132.17,-23.966 133.826,-23.138 C135.482,-22.31 136.816,-21.114 137.828,-19.55 L137.828,-24.196 L140.956,-24.196 M128.582,-3.818 C130.33,-3.818 131.909,-4.19367 133.32,-4.945 C134.731,-5.69633 135.827,-6.74667 136.609,-8.096 C137.391,-9.44533 137.782,-10.9787 137.782,-12.696 C137.782,-14.4133 137.391,-15.939 136.609,-17.273 C135.827,-18.607 134.738,-19.6497 133.343,-20.401 C131.948,-21.1523 130.361,-21.528 128.582,-21.528 C126.834,-21.528 125.262,-21.16 123.867,-20.424 C122.472,-19.688 121.383,-18.6453 120.601,-17.296 C119.819,-15.9467 119.428,-14.4133 119.428,-12.696 C119.428,-10.9787 119.819,-9.44533 120.601,-8.096 C121.383,-6.74667 122.472,-5.69633 123.867,-4.945 C125.262,-4.19367 126.834,-3.818 128.582,-3.818 M160.03,-38.732 L163.02,-38.732 L147.84,4.6 L144.85,4.6 L160.03,-38.732 M165.554,-34.132 L168.82,-34.132 L168.82,0 L165.554,0 L165.554,-34.132"/>
  </g>
  <g stroke-linejoin="bevel" font-weight="400" stroke-opacity="1" stroke-width="1" transform="matrix(0.399627,0,0,0.399627,932.2,163.664)" font-size="32.5" font-family="MS Shell Dlg 2" fill="none" stroke-linecap="square" stroke="#000000" font-style="normal"/>
  <g stroke-linejoin="bevel" font-weight="400" stroke-opacity="1" stroke-width="1" transform="matrix(0.999067,0,0,0.999067,11.8,0)" font-size="32.5" font-family="MS Shell Dlg 2" fill="none" stroke-linecap="square" stroke="#000000" font-style="normal"/>
  <g stroke-linejoin="bevel" font-weight="400" stroke-opacity="1" stroke-width="1" transform="matrix(0.399627,0,0,0.399627,1181.79,163.664)" font-size="32.5" font-family="MS Shell Dlg 2" fill="none" stroke-linecap="square" stroke="#000000" font-style="normal"/>
  <g font-weight="400" transform="matrix(0.999067,0,0,0.999067,1181.79,163.664)" font-size="32.5" fill-opacity="1" font-family="MS Shell Dlg 2" fill="#000000" stroke="none" font-style="normal">
   <path fill-rule="nonzero" vector-effect="none" d="M11.316,-32.2 L11.316,0 L8.004,0 L8.004,-29.256 L0.414,-29.256 L0.414,-32.2 L11.316,-32.2 M41.38,-2.944 L41.38,0 L18.794,0 L18.794,-2.346 L32.18,-15.456 C33.8667,-17.112 35.009,-18.5457 35.607,-19.757 C36.205,-20.9683 36.504,-22.1873 36.504,-23.414 C36.504,-25.3153 35.8523,-26.795 34.549,-27.853 C33.2457,-28.911 31.3827,-29.44 28.96,-29.44 C25.188,-29.44 22.2593,-28.244 20.174,-25.852 L17.828,-27.876 C19.0853,-29.348 20.6877,-30.4827 22.635,-31.28 C24.5823,-32.0773 26.7827,-32.476 29.236,-32.476 C32.5173,-32.476 35.1163,-31.7017 37.033,-30.153 C38.9497,-28.6043 39.908,-26.4807 39.908,-23.782 C39.908,-22.126 39.54,-20.5313 38.804,-18.998 C38.068,-17.4647 36.6727,-15.7013 34.618,-13.708 L23.67,-2.944 L41.38,-2.944 M47.876,0.23 C47.2013,0.23 46.6263,-0.0153333 46.151,-0.506 C45.6757,-0.996667 45.438,-1.59467 45.438,-2.3 C45.438,-3.00533 45.6757,-3.59567 46.151,-4.071 C46.6263,-4.54633 47.2013,-4.784 47.876,-4.784 C48.5507,-4.784 49.1333,-4.54633 49.624,-4.071 C50.1147,-3.59567 50.36,-3.00533 50.36,-2.3 C50.36,-1.59467 50.1147,-0.996667 49.624,-0.506 C49.1333,-0.0153333 48.5507,0.23 47.876,0.23 M77.116,-32.2 L77.116,-29.854 L63.638,0 L60.05,0 L73.298,-29.256 L56.738,-29.256 L56.738,-23.23 L53.472,-23.23 L53.472,-32.2 L77.116,-32.2 M125.73,-24.38 C128.766,-24.38 131.15,-23.506 132.883,-21.758 C134.616,-20.01 135.482,-17.434 135.482,-14.03 L135.482,0 L132.216,0 L132.216,-13.708 C132.216,-16.2227 131.61,-18.1393 130.399,-19.458 C129.188,-20.7767 127.478,-21.436 125.27,-21.436 C122.755,-21.436 120.777,-20.6617 119.336,-19.113 C117.895,-17.5643 117.174,-15.4253 117.174,-12.696 L117.174,0 L113.908,0 L113.908,-13.708 C113.908,-16.2227 113.302,-18.1393 112.091,-19.458 C110.88,-20.7767 109.155,-21.436 106.916,-21.436 C104.432,-21.436 102.462,-20.6617 101.005,-19.113 C99.5483,-17.5643 98.82,-15.4253 98.82,-12.696 L98.82,0 L95.554,0 L95.554,-24.196 L98.682,-24.196 L98.682,-19.78 C99.5407,-21.252 100.737,-22.3867 102.27,-23.184 C103.803,-23.9813 105.567,-24.38 107.56,-24.38 C109.584,-24.38 111.34,-23.9507 112.827,-23.092 C114.314,-22.2333 115.426,-20.9607 116.162,-19.274 C117.051,-20.8687 118.332,-22.1183 120.003,-23.023 C121.674,-23.9277 123.583,-24.38 125.73,-24.38 M166.956,-24.196 L166.956,-2.944 C166.956,1.16533 165.952,4.209 163.943,6.187 C161.934,8.165 158.906,9.154 154.858,9.154 C152.619,9.154 150.496,8.82433 148.487,8.165 C146.478,7.50567 144.845,6.59333 143.588,5.428 L145.244,2.944 C146.409,3.98667 147.828,4.79933 149.499,5.382 C151.17,5.96467 152.926,6.256 154.766,6.256 C157.833,6.256 160.087,5.543 161.528,4.117 C162.969,2.691 163.69,0.475333 163.69,-2.53 L163.69,-5.612 C162.678,-4.07867 161.352,-2.91333 159.711,-2.116 C158.07,-1.31867 156.253,-0.92 154.26,-0.92 C151.991,-0.92 149.928,-1.41833 148.073,-2.415 C146.218,-3.41167 144.761,-4.807 143.703,-6.601 C142.645,-8.395 142.116,-10.4267 142.116,-12.696 C142.116,-14.9653 142.645,-16.9893 143.703,-18.768 C144.761,-20.5467 146.21,-21.9267 148.05,-22.908 C149.89,-23.8893 151.96,-24.38 154.26,-24.38 C156.315,-24.38 158.17,-23.966 159.826,-23.138 C161.482,-22.31 162.816,-21.114 163.828,-19.55 L163.828,-24.196 L166.956,-24.196 M154.582,-3.818 C156.33,-3.818 157.909,-4.19367 159.32,-4.945 C160.731,-5.69633 161.827,-6.74667 162.609,-8.096 C163.391,-9.44533 163.782,-10.9787 163.782,-12.696 C163.782,-14.4133 163.391,-15.939 162.609,-17.273 C161.827,-18.607 160.738,-19.6497 159.343,-20.401 C157.948,-21.1523 156.361,-21.528 154.582,-21.528 C152.834,-21.528 151.262,-21.16 149.867,-20.424 C148.472,-19.688 147.383,-18.6453 146.601,-17.296 C145.819,-15.9467 145.428,-14.4133 145.428,-12.696 C145.428,-10.9787 145.819,-9.44533 146.601,-8.096 C147.383,-6.74667 148.472,-5.69633 149.867,-4.945 C151.262,-4.19367 152.834,-3.818 154.582,-3.818 M186.03,-38.732 L189.02,-38.732 L173.84,4.6 L170.85,4.6 L186.03,-38.732 M191.554,-34.132 L194.82,-34.132 L194.82,0 L191.554,0 L191.554,-34.132"/>
  </g>
  <g stroke-linejoin="bevel" font-weight="400" stroke-opacity="1" stroke-width="1" transform="matrix(0.399627,0,0,0.399627,1181.79,163.664)" font-size="32.5" font-family="MS Shell Dlg 2" fill="none" stroke-linecap="square" stroke="#000000" font-style="normal"/>
  <g stroke-linejoin="bevel" font-weight="400" stroke-opacity="1" stroke-width="1" transform="matrix(0.999067,0,0,0.999067,11.8,0)" font-size="32.5" font-family="MS Shell Dlg 2" fill="none" stroke-linecap="square" stroke="#000000" font-style="normal"/>
  <g stroke-linejoin="bevel" font-weight="400" stroke-opacity="1" stroke-width="1" transform="matrix(11.8,0,0,11.8,11.8,0)" font-size="32.5" font-family="MS Shell Dlg 2" fill="none" stroke-linecap="square" stroke="#000000" font-style="normal"/>
  <g stroke-linejoin="bevel" font-weight="400" stroke-opacity="1" stroke-width="1" transform="matrix(1.18,0,0,1.18,11.8,0)" font-size="42" font-family="Montserrat" fill="none" stroke-linecap="square" stroke="#000000" font-style="normal">
   <text y="47" font-weight="400" font-size="42" fill-opacity="1" font-family="Montserrat" fill="#000000" xml:space="preserve" x="1170" stroke="none" font-style="normal">Clorofila-a</text>
  </g>
  <g stroke-linejoin="bevel" font-weight="400" stroke-opacity="1" stroke-width="1" transform="matrix(11.8,0,0,11.8,11.8,0)" font-size="32.5" font-family="MS Shell Dlg 2" fill="none" stroke-linecap="square" stroke="#000000" font-style="normal"/>
  <g stroke-linejoin="miter" font-weight="400" stroke-opacity="1" stroke-width="1" transform="matrix(0.999067,0,0,0.999067,11.8,0)" font-size="32.5" font-family="MS Shell Dlg 2" fill="url(#gradient4)" stroke-linecap="square" stroke="#000000" stroke-miterlimit="2" font-style="normal">
   <rect width="448" y="67" vector-effect="non-scaling-stroke" x="1381" height="47"/>
  </g>
  <g stroke-linejoin="bevel" font-weight="400" stroke-opacity="1" stroke-width="1" transform="matrix(11.8,0,0,11.8,11.8,0)" font-size="32.5" font-family="MS Shell Dlg 2" fill="none" stroke-linecap="square" stroke="#000000" font-style="normal"/>
  <g stroke-linejoin="bevel" font-weight="400" stroke-opacity="1" stroke-width="1" transform="matrix(0.999067,0,0,0.999067,11.8,0)" font-size="32.5" font-family="MS Shell Dlg 2" fill="none" stroke-linecap="square" stroke="#000000" font-style="normal"/>
  <g stroke-linejoin="bevel" font-weight="400" stroke-opacity="1" stroke-width="1" transform="matrix(0.399627,0,0,0.399627,1392.4,163.664)" font-size="32.5" font-family="MS Shell Dlg 2" fill="none" stroke-linecap="square" stroke="#000000" font-style="normal"/>
  <g font-weight="400" transform="matrix(0.999067,0,0,0.999067,1392.4,163.664)" font-size="32.5" fill-opacity="1" font-family="MS Shell Dlg 2" fill="#000000" stroke="none" font-style="normal">
   <path fill-rule="nonzero" vector-effect="none" d="M15.226,0.276 C12.742,0.276 10.5263,-0.383333 8.579,-1.702 C6.63167,-3.02067 5.11367,-4.91433 4.025,-7.383 C2.93633,-9.85167 2.392,-12.7573 2.392,-16.1 C2.392,-19.4427 2.93633,-22.3483 4.025,-24.817 C5.11367,-27.2857 6.63167,-29.1793 8.579,-30.498 C10.5263,-31.8167 12.742,-32.476 15.226,-32.476 C17.71,-32.476 19.9257,-31.8167 21.873,-30.498 C23.8203,-29.1793 25.346,-27.2857 26.45,-24.817 C27.554,-22.3483 28.106,-19.4427 28.106,-16.1 C28.106,-12.7573 27.554,-9.85167 26.45,-7.383 C25.346,-4.91433 23.8203,-3.02067 21.873,-1.702 C19.9257,-0.383333 17.71,0.276 15.226,0.276 M15.226,-2.76 C17.0967,-2.76 18.745,-3.28133 20.171,-4.324 C21.597,-5.36667 22.7087,-6.88467 23.506,-8.878 C24.3033,-10.8713 24.702,-13.2787 24.702,-16.1 C24.702,-18.9213 24.3033,-21.3287 23.506,-23.322 C22.7087,-25.3153 21.597,-26.8333 20.171,-27.876 C18.745,-28.9187 17.0967,-29.44 15.226,-29.44 C13.3553,-29.44 11.707,-28.9187 10.281,-27.876 C8.855,-26.8333 7.74333,-25.3153 6.946,-23.322 C6.14867,-21.3287 5.75,-18.9213 5.75,-16.1 C5.75,-13.2787 6.14867,-10.8713 6.946,-8.878 C7.74333,-6.88467 8.855,-5.36667 10.281,-4.324 C11.707,-3.28133 13.3553,-2.76 15.226,-2.76 M68.358,-24.196 L68.358,0 L65.23,0 L65.23,-4.416 C64.3713,-2.944 63.1907,-1.80167 61.688,-0.989 C60.1853,-0.176333 58.468,0.23 56.536,0.23 C53.3773,0.23 50.8857,-0.651667 49.061,-2.415 C47.2363,-4.17833 46.324,-6.762 46.324,-10.166 L46.324,-24.196 L49.59,-24.196 L49.59,-10.488 C49.59,-7.94267 50.2187,-6.01067 51.476,-4.692 C52.7333,-3.37333 54.5273,-2.714 56.858,-2.714 C59.4033,-2.714 61.412,-3.48833 62.884,-5.037 C64.356,-6.58567 65.092,-8.74 65.092,-11.5 L65.092,-24.196 L68.358,-24.196 M99.956,-24.196 L99.956,-2.944 C99.956,1.16533 98.9517,4.209 96.943,6.187 C94.9343,8.165 91.906,9.154 87.858,9.154 C85.6193,9.154 83.4957,8.82433 81.487,8.165 C79.4783,7.50567 77.8453,6.59333 76.588,5.428 L78.244,2.944 C79.4093,3.98667 80.8277,4.79933 82.499,5.382 C84.1703,5.96467 85.926,6.256 87.766,6.256 C90.8327,6.256 93.0867,5.543 94.528,4.117 C95.9693,2.691 96.69,0.475333 96.69,-2.53 L96.69,-5.612 C95.678,-4.07867 94.3517,-2.91333 92.711,-2.116 C91.0703,-1.31867 89.2533,-0.92 87.26,-0.92 C84.9907,-0.92 82.9283,-1.41833 81.073,-2.415 C79.2177,-3.41167 77.761,-4.807 76.703,-6.601 C75.645,-8.395 75.116,-10.4267 75.116,-12.696 C75.116,-14.9653 75.645,-16.9893 76.703,-18.768 C77.761,-20.5467 79.21,-21.9267 81.05,-22.908 C82.89,-23.8893 84.96,-24.38 87.26,-24.38 C89.3147,-24.38 91.17,-23.966 92.826,-23.138 C94.482,-22.31 95.816,-21.114 96.828,-19.55 L96.828,-24.196 L99.956,-24.196 M87.582,-3.818 C89.33,-3.818 90.9093,-4.19367 92.32,-4.945 C93.7307,-5.69633 94.827,-6.74667 95.609,-8.096 C96.391,-9.44533 96.782,-10.9787 96.782,-12.696 C96.782,-14.4133 96.391,-15.939 95.609,-17.273 C94.827,-18.607 93.7383,-19.6497 92.343,-20.401 C90.9477,-21.1523 89.3607,-21.528 87.582,-21.528 C85.834,-21.528 84.2623,-21.16 82.867,-20.424 C81.4717,-19.688 80.383,-18.6453 79.601,-17.296 C78.819,-15.9467 78.428,-14.4133 78.428,-12.696 C78.428,-10.9787 78.819,-9.44533 79.601,-8.096 C80.383,-6.74667 81.4717,-5.69633 82.867,-4.945 C84.2623,-4.19367 85.834,-3.818 87.582,-3.818 M119.03,-38.732 L122.02,-38.732 L106.84,4.6 L103.85,4.6 L119.03,-38.732 M151.73,-24.38 C154.766,-24.38 157.15,-23.506 158.883,-21.758 C160.616,-20.01 161.482,-17.434 161.482,-14.03 L161.482,0 L158.216,0 L158.216,-13.708 C158.216,-16.2227 157.61,-18.1393 156.399,-19.458 C155.188,-20.7767 153.478,-21.436 151.27,-21.436 C148.755,-21.436 146.777,-20.6617 145.336,-19.113 C143.895,-17.5643 143.174,-15.4253 143.174,-12.696 L143.174,0 L139.908,0 L139.908,-13.708 C139.908,-16.2227 139.302,-18.1393 138.091,-19.458 C136.88,-20.7767 135.155,-21.436 132.916,-21.436 C130.432,-21.436 128.462,-20.6617 127.005,-19.113 C125.548,-17.5643 124.82,-15.4253 124.82,-12.696 L124.82,0 L121.554,0 L121.554,-24.196 L124.682,-24.196 L124.682,-19.78 C125.541,-21.252 126.737,-22.3867 128.27,-23.184 C129.803,-23.9813 131.567,-24.38 133.56,-24.38 C135.584,-24.38 137.34,-23.9507 138.827,-23.092 C140.314,-22.2333 141.426,-20.9607 142.162,-19.274 C143.051,-20.8687 144.332,-22.1183 146.003,-23.023 C147.674,-23.9277 149.583,-24.38 151.73,-24.38 M170.554,-34.132 L173.82,-34.132 L173.82,0 L170.554,0 L170.554,-34.132"/>
  </g>
  <g stroke-linejoin="bevel" font-weight="400" stroke-opacity="1" stroke-width="1" transform="matrix(0.399627,0,0,0.399627,1392.4,163.664)" font-size="32.5" font-family="MS Shell Dlg 2" fill="none" stroke-linecap="square" stroke="#000000" font-style="normal"/>
  <g stroke-linejoin="bevel" font-weight="400" stroke-opacity="1" stroke-width="1" transform="matrix(0.999067,0,0,0.999067,11.8,0)" font-size="32.5" font-family="MS Shell Dlg 2" fill="none" stroke-linecap="square" stroke="#000000" font-style="normal"/>
  <g stroke-linejoin="bevel" font-weight="400" stroke-opacity="1" stroke-width="1" transform="matrix(0.399627,0,0,0.399627,1627,163.664)" font-size="32.5" font-family="MS Shell Dlg 2" fill="none" stroke-linecap="square" stroke="#000000" font-style="normal"/>
  <g font-weight="400" transform="matrix(0.999067,0,0,0.999067,1627,163.664)" font-size="32.5" fill-opacity="1" font-family="MS Shell Dlg 2" fill="#000000" stroke="none" font-style="normal">
   <path fill-rule="nonzero" vector-effect="none" d="M15.226,0.276 C12.742,0.276 10.5263,-0.383333 8.579,-1.702 C6.63167,-3.02067 5.11367,-4.91433 4.025,-7.383 C2.93633,-9.85167 2.392,-12.7573 2.392,-16.1 C2.392,-19.4427 2.93633,-22.3483 4.025,-24.817 C5.11367,-27.2857 6.63167,-29.1793 8.579,-30.498 C10.5263,-31.8167 12.742,-32.476 15.226,-32.476 C17.71,-32.476 19.9257,-31.8167 21.873,-30.498 C23.8203,-29.1793 25.346,-27.2857 26.45,-24.817 C27.554,-22.3483 28.106,-19.4427 28.106,-16.1 C28.106,-12.7573 27.554,-9.85167 26.45,-7.383 C25.346,-4.91433 23.8203,-3.02067 21.873,-1.702 C19.9257,-0.383333 17.71,0.276 15.226,0.276 M15.226,-2.76 C17.0967,-2.76 18.745,-3.28133 20.171,-4.324 C21.597,-5.36667 22.7087,-6.88467 23.506,-8.878 C24.3033,-10.8713 24.702,-13.2787 24.702,-16.1 C24.702,-18.9213 24.3033,-21.3287 23.506,-23.322 C22.7087,-25.3153 21.597,-26.8333 20.171,-27.876 C18.745,-28.9187 17.0967,-29.44 15.226,-29.44 C13.3553,-29.44 11.707,-28.9187 10.281,-27.876 C8.855,-26.8333 7.74333,-25.3153 6.946,-23.322 C6.14867,-21.3287 5.75,-18.9213 5.75,-16.1 C5.75,-13.2787 6.14867,-10.8713 6.946,-8.878 C7.74333,-6.88467 8.855,-5.36667 10.281,-4.324 C11.707,-3.28133 13.3553,-2.76 15.226,-2.76 M34.876,0.23 C34.2013,0.23 33.6263,-0.0153333 33.151,-0.506 C32.6757,-0.996667 32.438,-1.59467 32.438,-2.3 C32.438,-3.00533 32.6757,-3.59567 33.151,-4.071 C33.6263,-4.54633 34.2013,-4.784 34.876,-4.784 C35.5507,-4.784 36.1333,-4.54633 36.624,-4.071 C37.1147,-3.59567 37.36,-3.00533 37.36,-2.3 C37.36,-1.59467 37.1147,-0.996667 36.624,-0.506 C36.1333,-0.0153333 35.5507,0.23 34.876,0.23 M64.116,-32.2 L64.116,-29.854 L50.638,0 L47.05,0 L60.298,-29.256 L43.738,-29.256 L43.738,-23.23 L40.472,-23.23 L40.472,-32.2 L64.116,-32.2 M104.358,-24.196 L104.358,0 L101.23,0 L101.23,-4.416 C100.371,-2.944 99.1907,-1.80167 97.688,-0.989 C96.1853,-0.176333 94.468,0.23 92.536,0.23 C89.3773,0.23 86.8857,-0.651667 85.061,-2.415 C83.2363,-4.17833 82.324,-6.762 82.324,-10.166 L82.324,-24.196 L85.59,-24.196 L85.59,-10.488 C85.59,-7.94267 86.2187,-6.01067 87.476,-4.692 C88.7333,-3.37333 90.5273,-2.714 92.858,-2.714 C95.4033,-2.714 97.412,-3.48833 98.884,-5.037 C100.356,-6.58567 101.092,-8.74 101.092,-11.5 L101.092,-24.196 L104.358,-24.196 M135.956,-24.196 L135.956,-2.944 C135.956,1.16533 134.952,4.209 132.943,6.187 C130.934,8.165 127.906,9.154 123.858,9.154 C121.619,9.154 119.496,8.82433 117.487,8.165 C115.478,7.50567 113.845,6.59333 112.588,5.428 L114.244,2.944 C115.409,3.98667 116.828,4.79933 118.499,5.382 C120.17,5.96467 121.926,6.256 123.766,6.256 C126.833,6.256 129.087,5.543 130.528,4.117 C131.969,2.691 132.69,0.475333 132.69,-2.53 L132.69,-5.612 C131.678,-4.07867 130.352,-2.91333 128.711,-2.116 C127.07,-1.31867 125.253,-0.92 123.26,-0.92 C120.991,-0.92 118.928,-1.41833 117.073,-2.415 C115.218,-3.41167 113.761,-4.807 112.703,-6.601 C111.645,-8.395 111.116,-10.4267 111.116,-12.696 C111.116,-14.9653 111.645,-16.9893 112.703,-18.768 C113.761,-20.5467 115.21,-21.9267 117.05,-22.908 C118.89,-23.8893 120.96,-24.38 123.26,-24.38 C125.315,-24.38 127.17,-23.966 128.826,-23.138 C130.482,-22.31 131.816,-21.114 132.828,-19.55 L132.828,-24.196 L135.956,-24.196 M123.582,-3.818 C125.33,-3.818 126.909,-4.19367 128.32,-4.945 C129.731,-5.69633 130.827,-6.74667 131.609,-8.096 C132.391,-9.44533 132.782,-10.9787 132.782,-12.696 C132.782,-14.4133 132.391,-15.939 131.609,-17.273 C130.827,-18.607 129.738,-19.6497 128.343,-20.401 C126.948,-21.1523 125.361,-21.528 123.582,-21.528 C121.834,-21.528 120.262,-21.16 118.867,-20.424 C117.472,-19.688 116.383,-18.6453 115.601,-17.296 C114.819,-15.9467 114.428,-14.4133 114.428,-12.696 C114.428,-10.9787 114.819,-9.44533 115.601,-8.096 C116.383,-6.74667 117.472,-5.69633 118.867,-4.945 C120.262,-4.19367 121.834,-3.818 123.582,-3.818 M155.03,-38.732 L158.02,-38.732 L142.84,4.6 L139.85,4.6 L155.03,-38.732 M187.73,-24.38 C190.766,-24.38 193.15,-23.506 194.883,-21.758 C196.616,-20.01 197.482,-17.434 197.482,-14.03 L197.482,0 L194.216,0 L194.216,-13.708 C194.216,-16.2227 193.61,-18.1393 192.399,-19.458 C191.188,-20.7767 189.478,-21.436 187.27,-21.436 C184.755,-21.436 182.777,-20.6617 181.336,-19.113 C179.895,-17.5643 179.174,-15.4253 179.174,-12.696 L179.174,0 L175.908,0 L175.908,-13.708 C175.908,-16.2227 175.302,-18.1393 174.091,-19.458 C172.88,-20.7767 171.155,-21.436 168.916,-21.436 C166.432,-21.436 164.462,-20.6617 163.005,-19.113 C161.548,-17.5643 160.82,-15.4253 160.82,-12.696 L160.82,0 L157.554,0 L157.554,-24.196 L160.682,-24.196 L160.682,-19.78 C161.541,-21.252 162.737,-22.3867 164.27,-23.184 C165.803,-23.9813 167.567,-24.38 169.56,-24.38 C171.584,-24.38 173.34,-23.9507 174.827,-23.092 C176.314,-22.2333 177.426,-20.9607 178.162,-19.274 C179.051,-20.8687 180.332,-22.1183 182.003,-23.023 C183.674,-23.9277 185.583,-24.38 187.73,-24.38 M206.554,-34.132 L209.82,-34.132 L209.82,0 L206.554,0 L206.554,-34.132"/>
  </g>
  <g stroke-linejoin="bevel" font-weight="400" stroke-opacity="1" stroke-width="1" transform="matrix(0.399627,0,0,0.399627,1627,163.664)" font-size="32.5" font-family="MS Shell Dlg 2" fill="none" stroke-linecap="square" stroke="#000000" font-style="normal"/>
  <g stroke-linejoin="bevel" font-weight="400" stroke-opacity="1" stroke-width="1" transform="matrix(0.999067,0,0,0.999067,11.8,0)" font-size="32.5" font-family="MS Shell Dlg 2" fill="none" stroke-linecap="square" stroke="#000000" font-style="normal"/>
  <g stroke-linejoin="bevel" font-weight="400" stroke-opacity="1" stroke-width="1" transform="matrix(11.8,0,0,11.8,11.8,0)" font-size="32.5" font-family="MS Shell Dlg 2" fill="none" stroke-linecap="square" stroke="#000000" font-style="normal"/>
  <g stroke-linejoin="bevel" font-weight="400" stroke-opacity="1" stroke-width="1" transform="matrix(0.999067,0,0,0.999067,11.8,0)" font-size="32.5" font-family="MS Shell Dlg 2" fill="none" stroke-linecap="square" stroke="#000000" font-style="normal"/>
  <g stroke-linejoin="bevel" font-weight="400" stroke-opacity="1" stroke-width="1" transform="matrix(11.8,0,0,11.8,11.8,0)" font-size="32.5" font-family="MS Shell Dlg 2" fill="none" stroke-linecap="square" stroke="#000000" font-style="normal"/>
  <g stroke-linejoin="bevel" font-weight="400" stroke-opacity="1" stroke-width="1" transform="matrix(11.8,0,0,11.8,11.8,0)" font-size="32.5" font-family="MS Shell Dlg 2" fill="none" stroke-linecap="square" stroke="#000000" font-style="normal"/>
  <g stroke-linejoin="bevel" font-weight="400" stroke-opacity="1" stroke-width="1" transform="matrix(1,0,0,1,0,0)" font-size="32.5" font-family="MS Shell Dlg 2" fill="none" stroke-linecap="square" stroke="#000000" font-style="normal"/>
 </g>
 <metadata>
  <rdf:RDF xmlns:rdf="http://www.w3.org/1999/02/22-rdf-syntax-ns#" xmlns:dc="http://purl.org/dc/elements/1.1/" xmlns:rdfs="http://www.w3.org/2000/01/rdf-schema#">
   <rdf:Description dc:identifier="" dc:description="" dc:title="" dc:format="image/svg+xml" dc:date="2021-12-09T10:37:00">
    <dc:creator>
     <rdf:Bag>
      <rdf:li>INAPESCA</rdf:li>
     </rdf:Bag>
    </dc:creator>
    <dc:publisher>
     <rdf:Bag>
      <rdf:li>QGIS 3.24.0-Tisler</rdf:li>
     </rdf:Bag>
    </dc:publisher>
    <dc:subject>
     <rdf:Bag/>
    </dc:subject>
   </rdf:Description>
   <cc:Work rdf:about="">
    <dc:format>image/svg+xml</dc:format>
    <dc:title></dc:title>
    <dc:date>2021-12-09T10:37:00</dc:date>
    <dc:identifier></dc:identifier>
    <dc:description></dc:description>
    <dc:creator>
     <cc:Agent>
      <dc:title>INAPESCA</dc:title>
     </cc:Agent>
    </dc:creator>
    <dc:publisher>
     <cc:Agent>
      <dc:title>QGIS 3.24.0-Tisler</dc:title>
     </cc:Agent>
    </dc:publisher>
   </cc:Work>
  </rdf:RDF>
 </metadata>
</svg>
