<?xml version='1.0' encoding='UTF-8' standalone='no'?>
<svg height="14.986mm" xmlns:xlink="http://www.w3.org/1999/xlink" xmlns:cc="http://creativecommons.org/ns#" version="1.2" baseProfile="tiny" width="157.988mm" xmlns="http://www.w3.org/2000/svg" viewBox="0 0 1866 177">
 <defs>
  <linearGradient y1="0" id="gradient1" x1="0" x2="448.819" y2="0" gradientUnits="userSpaceOnUse">
   <stop stop-opacity="1" stop-color="#00007f" offset="0"/>
   <stop stop-opacity="1" stop-color="#0061c8" offset="0.125"/>
   <stop stop-opacity="1" stop-color="#0cb6ed" offset="0.25"/>
   <stop stop-opacity="1" stop-color="#00fbff" offset="0.375"/>
   <stop stop-opacity="1" stop-color="#3ce7a4" offset="0.5"/>
   <stop stop-opacity="1" stop-color="#86e75b" offset="0.625"/>
   <stop stop-opacity="1" stop-color="#e7b612" offset="0.75"/>
   <stop stop-opacity="1" stop-color="#db6100" offset="0.875"/>
   <stop stop-opacity="1" stop-color="#aa0000" offset="1"/>
  </linearGradient>
  <linearGradient y1="0" id="gradient2" x1="460.63" x2="909.449" y2="0" gradientUnits="userSpaceOnUse">
   <stop stop-opacity="1" stop-color="#814810" offset="0"/>
   <stop stop-opacity="1" stop-color="#d6a058" offset="0.25"/>
   <stop stop-opacity="1" stop-color="#f5f5f5" offset="0.5"/>
   <stop stop-opacity="1" stop-color="#27f5b8" offset="0.75"/>
   <stop stop-opacity="1" stop-color="#006f5c" offset="1"/>
  </linearGradient>
  <linearGradient y1="0" id="gradient3" x1="921.26" x2="1370.08" y2="0" gradientUnits="userSpaceOnUse">
   <stop stop-opacity="1" stop-color="#390048" offset="0"/>
   <stop stop-opacity="1" stop-color="#482475" offset="0.0909091"/>
   <stop stop-opacity="1" stop-color="#2718cb" offset="0.181818"/>
   <stop stop-opacity="1" stop-color="#00acfc" offset="0.272727"/>
   <stop stop-opacity="1" stop-color="#21e6dd" offset="0.363636"/>
   <stop stop-opacity="1" stop-color="#01ff89" offset="0.454545"/>
   <stop stop-opacity="1" stop-color="#0c5400" offset="0.545455"/>
   <stop stop-opacity="1" stop-color="#2efe00" offset="0.636364"/>
   <stop stop-opacity="1" stop-color="#64ff45" offset="0.727273"/>
   <stop stop-opacity="1" stop-color="#bcdf27" offset="0.818182"/>
   <stop stop-opacity="1" stop-color="#fbff01" offset="0.909091"/>
   <stop stop-opacity="1" stop-color="#ff4000" offset="1"/>
  </linearGradient>
  <linearGradient y1="0" id="gradient4" x1="1381.89" x2="1830.71" y2="0" gradientUnits="userSpaceOnUse">
   <stop stop-opacity="1" stop-color="#0019a8" offset="0"/>
   <stop stop-opacity="1" stop-color="#0024ff" offset="7e-05"/>
   <stop stop-opacity="1" stop-color="#0060ff" offset="0.04"/>
   <stop stop-opacity="1" stop-color="#0088ff" offset="0.08"/>
   <stop stop-opacity="1" stop-color="#00ffff" offset="0.12"/>
   <stop stop-opacity="1" stop-color="#00ffb7" offset="0.16"/>
   <stop stop-opacity="1" stop-color="#00ff87" offset="0.2"/>
   <stop stop-opacity="1" stop-color="#00ff57" offset="0.24"/>
   <stop stop-opacity="1" stop-color="#008000" offset="0.28"/>
   <stop stop-opacity="1" stop-color="#57ff00" offset="0.32"/>
   <stop stop-opacity="1" stop-color="#6fff00" offset="0.36"/>
   <stop stop-opacity="1" stop-color="#87ff00" offset="0.4"/>
   <stop stop-opacity="1" stop-color="#9fff00" offset="0.44"/>
   <stop stop-opacity="1" stop-color="#b7ff00" offset="0.48"/>
   <stop stop-opacity="1" stop-color="#cfff00" offset="0.52"/>
   <stop stop-opacity="1" stop-color="#e7ff00" offset="0.56"/>
   <stop stop-opacity="1" stop-color="#ffff00" offset="0.6"/>
   <stop stop-opacity="1" stop-color="#ffef00" offset="0.64"/>
   <stop stop-opacity="1" stop-color="#ffdf00" offset="0.68"/>
   <stop stop-opacity="1" stop-color="#ffcf00" offset="0.72"/>
   <stop stop-opacity="1" stop-color="#ffbf00" offset="0.76"/>
   <stop stop-opacity="1" stop-color="#ffaf00" offset="0.8"/>
   <stop stop-opacity="1" stop-color="#ff7f00" offset="0.84"/>
   <stop stop-opacity="1" stop-color="#ff5f00" offset="0.88"/>
   <stop stop-opacity="1" stop-color="#ff3f00" offset="0.92"/>
   <stop stop-opacity="1" stop-color="#ff2f00" offset="0.96"/>
   <stop stop-opacity="1" stop-color="#ff1f00" offset="1"/>
  </linearGradient>
 </defs>
 <g stroke-linecap="square" stroke="black" fill="none" stroke-width="1" stroke-linejoin="bevel" fill-rule="evenodd">
  <g stroke-linecap="square" font-weight="400" stroke="#000000" stroke-opacity="1" fill="none" stroke-width="1" transform="matrix(1,0,0,1,0,0)" font-size="32.5" stroke-linejoin="bevel" font-family="MS Shell Dlg 2" font-style="normal"/>
  <g stroke-linecap="square" font-weight="400" stroke="#000000" stroke-opacity="1" fill="none" stroke-width="1" transform="matrix(1,0,0,1,0,0)" font-size="32.5" stroke-linejoin="bevel" font-family="MS Shell Dlg 2" font-style="normal"/>
  <g stroke-linecap="square" font-weight="400" stroke="#000000" stroke-opacity="1" fill="none" stroke-width="1" transform="matrix(11.8,0,0,11.8,0,0)" font-size="32.5" stroke-linejoin="bevel" font-family="MS Shell Dlg 2" font-style="normal"/>
  <g stroke-linecap="square" font-weight="400" stroke="#000000" stroke-opacity="1" fill="none" stroke-width="1" transform="matrix(0.999067,0,0,0.999067,0,0)" font-size="32.5" stroke-linejoin="bevel" font-family="MS Shell Dlg 2" font-style="normal"/>
  <g font-weight="400" stroke="none" fill="#ffffff" transform="matrix(0.999067,0,0,0.999067,0,0)" font-size="32.5" fill-opacity="1" font-family="MS Shell Dlg 2" font-style="normal">
   <path vector-effect="none" d="M-2,-2 L1869,-2 L1869,180 L-2,180 L-2,-2" fill-rule="evenodd"/>
  </g>
  <g stroke-linecap="square" font-weight="400" stroke="#000000" stroke-opacity="1" fill="none" stroke-width="1" transform="matrix(0.999067,0,0,0.999067,0,0)" font-size="32.5" stroke-linejoin="bevel" font-family="MS Shell Dlg 2" font-style="normal"/>
  <g stroke-linecap="square" font-weight="400" stroke="#000000" stroke-opacity="1" fill="none" stroke-width="1" transform="matrix(11.8,0,0,11.8,0,0)" font-size="32.5" stroke-linejoin="bevel" font-family="MS Shell Dlg 2" font-style="normal"/>
  <g stroke-linecap="square" font-weight="400" stroke="#000000" stroke-opacity="1" fill="none" stroke-width="1" transform="matrix(11.8,0,0,11.8,0,0)" font-size="32.5" stroke-linejoin="bevel" font-family="MS Shell Dlg 2" font-style="normal"/>
  <g stroke-linecap="square" font-weight="400" stroke="#000000" stroke-opacity="1" fill="none" stroke-width="1" transform="matrix(11.8,0,0,11.8,0,0)" font-size="32.5" stroke-linejoin="bevel" font-family="MS Shell Dlg 2" font-style="normal"/>
  <g stroke-linecap="square" font-weight="400" stroke="#000000" stroke-opacity="1" fill="none" stroke-width="1" transform="matrix(11.8,0,0,11.8,0,0)" font-size="32.5" stroke-linejoin="bevel" font-family="MS Shell Dlg 2" font-style="normal"/>
  <g stroke-linecap="square" font-weight="400" stroke="#000000" stroke-opacity="1" fill="none" stroke-width="1" transform="matrix(11.8,0,0,11.8,11.8,0)" font-size="32.5" stroke-linejoin="bevel" font-family="MS Shell Dlg 2" font-style="normal"/>
  <g stroke-linecap="square" font-weight="400" stroke="#000000" stroke-opacity="1" fill="none" stroke-width="1" transform="matrix(11.8,0,0,11.8,11.8,0)" font-size="32.5" stroke-linejoin="bevel" font-family="MS Shell Dlg 2" font-style="normal"/>
  <g font-weight="400" stroke="none" fill="#ffffff" transform="matrix(11.8,0,0,11.8,11.8,0)" font-size="32.5" fill-opacity="1" font-family="MS Shell Dlg 2" font-style="normal">
   <path vector-effect="none" d="M0,0 L157,0 L157,15.034 L0,15.034 L0,0" fill-rule="evenodd"/>
  </g>
  <g stroke-linecap="square" font-weight="400" stroke="#000000" stroke-opacity="1" fill="none" stroke-width="1" transform="matrix(11.8,0,0,11.8,11.8,0)" font-size="32.5" stroke-linejoin="bevel" font-family="MS Shell Dlg 2" font-style="normal"/>
  <g stroke-linecap="square" font-weight="400" stroke="#000000" stroke-opacity="1" fill="none" stroke-width="1" transform="matrix(0.999067,0,0,0.999067,11.8,0)" font-size="32.5" stroke-linejoin="bevel" font-family="MS Shell Dlg 2" font-style="normal"/>
  <g stroke-linecap="square" font-weight="400" stroke="#000000" stroke-opacity="1" fill="none" stroke-width="1" transform="matrix(11.8,0,0,11.8,11.8,0)" font-size="32.5" stroke-linejoin="bevel" font-family="MS Shell Dlg 2" font-style="normal"/>
  <g stroke-linecap="square" font-weight="400" stroke="#000000" stroke-opacity="1" fill="none" stroke-width="1" transform="matrix(1.18,0,0,1.18,11.8,0)" font-size="42" stroke-linejoin="bevel" font-family="Montserrat" font-style="normal">
   <text font-weight="400" stroke="none" xml:space="preserve" fill="#000000" font-size="42" fill-opacity="1" y="47" x="0" font-family="Montserrat" font-style="normal">Temperatura</text>
  </g>
  <g stroke-linecap="square" font-weight="400" stroke="#000000" stroke-opacity="1" fill="none" stroke-width="1" transform="matrix(11.8,0,0,11.8,11.8,0)" font-size="32.5" stroke-linejoin="bevel" font-family="MS Shell Dlg 2" font-style="normal"/>
  <g stroke-linecap="square" font-weight="400" stroke="#000000" stroke-miterlimit="2" stroke-opacity="1" fill="url(#gradient1)" stroke-width="1" transform="matrix(0.999067,0,0,0.999067,11.8,0)" font-size="32.5" stroke-linejoin="miter" font-family="MS Shell Dlg 2" font-style="normal">
   <rect height="47" vector-effect="non-scaling-stroke" width="448" y="67" x="0"/>
  </g>
  <g stroke-linecap="square" font-weight="400" stroke="#000000" stroke-opacity="1" fill="none" stroke-width="1" transform="matrix(11.8,0,0,11.8,11.8,0)" font-size="32.5" stroke-linejoin="bevel" font-family="MS Shell Dlg 2" font-style="normal"/>
  <g stroke-linecap="square" font-weight="400" stroke="#000000" stroke-opacity="1" fill="none" stroke-width="1" transform="matrix(0.999067,0,0,0.999067,11.8,0)" font-size="32.5" stroke-linejoin="bevel" font-family="MS Shell Dlg 2" font-style="normal"/>
  <g stroke-linecap="square" font-weight="400" stroke="#000000" stroke-opacity="1" fill="none" stroke-width="1" transform="matrix(0.399627,0,0,0.399627,11.8,163.664)" font-size="32.5" stroke-linejoin="bevel" font-family="MS Shell Dlg 2" font-style="normal"/>
  <g font-weight="400" stroke="none" fill="#000000" transform="matrix(0.999067,0,0,0.999067,11.8,163.664)" font-size="32.5" fill-opacity="1" font-family="MS Shell Dlg 2" font-style="normal">
   <path vector-effect="none" d="M24.38,-2.944 L24.38,0 L1.794,0 L1.794,-2.346 L15.18,-15.456 C16.8667,-17.112 18.009,-18.5457 18.607,-19.757 C19.205,-20.9683 19.504,-22.1873 19.504,-23.414 C19.504,-25.3153 18.8523,-26.795 17.549,-27.853 C16.2457,-28.911 14.3827,-29.44 11.96,-29.44 C8.188,-29.44 5.25933,-28.244 3.174,-25.852 L0.828,-27.876 C2.08533,-29.348 3.68767,-30.4827 5.635,-31.28 C7.58233,-32.0773 9.78267,-32.476 12.236,-32.476 C15.5173,-32.476 18.1163,-31.7017 20.033,-30.153 C21.9497,-28.6043 22.908,-26.4807 22.908,-23.782 C22.908,-22.126 22.54,-20.5313 21.804,-18.998 C21.068,-17.4647 19.6727,-15.7013 17.618,-13.708 L6.67,-2.944 L24.38,-2.944 M50.38,-2.944 L50.38,0 L27.794,0 L27.794,-2.346 L41.18,-15.456 C42.8667,-17.112 44.009,-18.5457 44.607,-19.757 C45.205,-20.9683 45.504,-22.1873 45.504,-23.414 C45.504,-25.3153 44.8523,-26.795 43.549,-27.853 C42.2457,-28.911 40.3827,-29.44 37.96,-29.44 C34.188,-29.44 31.2593,-28.244 29.174,-25.852 L26.828,-27.876 C28.0853,-29.348 29.6877,-30.4827 31.635,-31.28 C33.5823,-32.0773 35.7827,-32.476 38.236,-32.476 C41.5173,-32.476 44.1163,-31.7017 46.033,-30.153 C47.9497,-28.6043 48.908,-26.4807 48.908,-23.782 C48.908,-22.126 48.54,-20.5313 47.804,-18.998 C47.068,-17.4647 45.6727,-15.7013 43.618,-13.708 L32.67,-2.944 L50.38,-2.944 M56.876,0.23 C56.2013,0.23 55.6263,-0.0153333 55.151,-0.506 C54.6757,-0.996667 54.438,-1.59467 54.438,-2.3 C54.438,-3.00533 54.6757,-3.59567 55.151,-4.071 C55.6263,-4.54633 56.2013,-4.784 56.876,-4.784 C57.5507,-4.784 58.1333,-4.54633 58.624,-4.071 C59.1147,-3.59567 59.36,-3.00533 59.36,-2.3 C59.36,-1.59467 59.1147,-0.996667 58.624,-0.506 C58.1333,-0.0153333 57.5507,0.23 56.876,0.23 M86.116,-32.2 L86.116,-29.854 L72.638,0 L69.05,0 L82.298,-29.256 L65.738,-29.256 L65.738,-23.23 L62.472,-23.23 L62.472,-32.2 L86.116,-32.2 M109.614,-17.848 C108.265,-17.848 107.03,-18.17 105.911,-18.814 C104.792,-19.458 103.91,-20.3397 103.266,-21.459 C102.622,-22.5783 102.3,-23.8127 102.3,-25.162 C102.3,-26.4807 102.622,-27.6997 103.266,-28.819 C103.91,-29.9383 104.792,-30.82 105.911,-31.464 C107.03,-32.108 108.265,-32.43 109.614,-32.43 C110.963,-32.43 112.205,-32.108 113.34,-31.464 C114.475,-30.82 115.364,-29.9383 116.008,-28.819 C116.652,-27.6997 116.974,-26.4807 116.974,-25.162 C116.974,-23.8127 116.652,-22.5783 116.008,-21.459 C115.364,-20.3397 114.475,-19.458 113.34,-18.814 C112.205,-18.17 110.963,-17.848 109.614,-17.848 M109.614,-19.78 C111.117,-19.78 112.382,-20.2937 113.409,-21.321 C114.436,-22.3483 114.95,-23.6287 114.95,-25.162 C114.95,-26.6647 114.436,-27.9297 113.409,-28.957 C112.382,-29.9843 111.117,-30.498 109.614,-30.498 C108.111,-30.498 106.854,-29.9843 105.842,-28.957 C104.83,-27.9297 104.324,-26.6647 104.324,-25.162 C104.324,-23.6287 104.83,-22.3483 105.842,-21.321 C106.854,-20.2937 108.111,-19.78 109.614,-19.78 M138.228,0.276 C135.039,0.276 132.164,-0.429333 129.603,-1.84 C127.042,-3.25067 125.034,-5.20567 123.577,-7.705 C122.12,-10.2043 121.392,-13.0027 121.392,-16.1 C121.392,-19.1973 122.12,-21.9957 123.577,-24.495 C125.034,-26.9943 127.05,-28.9493 129.626,-30.36 C132.202,-31.7707 135.085,-32.476 138.274,-32.476 C140.666,-32.476 142.874,-32.0773 144.898,-31.28 C146.922,-30.4827 148.639,-29.3173 150.05,-27.784 L147.888,-25.622 C145.373,-28.1673 142.199,-29.44 138.366,-29.44 C135.821,-29.44 133.505,-28.8573 131.42,-27.692 C129.335,-26.5267 127.702,-24.932 126.521,-22.908 C125.34,-20.884 124.75,-18.6147 124.75,-16.1 C124.75,-13.5853 125.34,-11.316 126.521,-9.292 C127.702,-7.268 129.335,-5.67333 131.42,-4.508 C133.505,-3.34267 135.821,-2.76 138.366,-2.76 C142.23,-2.76 145.404,-4.048 147.888,-6.624 L150.05,-4.462 C148.639,-2.92867 146.914,-1.75567 144.875,-0.943 C142.836,-0.130333 140.62,0.276 138.228,0.276 " fill-rule="nonzero"/>
  </g>
  <g stroke-linecap="square" font-weight="400" stroke="#000000" stroke-opacity="1" fill="none" stroke-width="1" transform="matrix(0.399627,0,0,0.399627,11.8,163.664)" font-size="32.5" stroke-linejoin="bevel" font-family="MS Shell Dlg 2" font-style="normal"/>
  <g stroke-linecap="square" font-weight="400" stroke="#000000" stroke-opacity="1" fill="none" stroke-width="1" transform="matrix(0.999067,0,0,0.999067,11.8,0)" font-size="32.5" stroke-linejoin="bevel" font-family="MS Shell Dlg 2" font-style="normal"/>
  <g stroke-linecap="square" font-weight="400" stroke="#000000" stroke-opacity="1" fill="none" stroke-width="1" transform="matrix(0.399627,0,0,0.399627,304.346,163.664)" font-size="32.5" stroke-linejoin="bevel" font-family="MS Shell Dlg 2" font-style="normal"/>
  <g font-weight="400" stroke="none" fill="#000000" transform="matrix(0.999067,0,0,0.999067,304.346,163.664)" font-size="32.5" fill-opacity="1" font-family="MS Shell Dlg 2" font-style="normal">
   <path vector-effect="none" d="M13.34,-18.4 C16.7133,-18.216 19.2817,-17.3037 21.045,-15.663 C22.8083,-14.0223 23.69,-11.8833 23.69,-9.246 C23.69,-7.406 23.2453,-5.773 22.356,-4.347 C21.4667,-2.921 20.148,-1.794 18.4,-0.966 C16.652,-0.138 14.5207,0.276 12.006,0.276 C9.67533,0.276 7.475,-0.0996667 5.405,-0.851 C3.335,-1.60233 1.67133,-2.60667 0.414,-3.864 L2.024,-6.486 C3.09733,-5.382 4.52333,-4.485 6.302,-3.795 C8.08067,-3.105 9.982,-2.76 12.006,-2.76 C14.6433,-2.76 16.6827,-3.335 18.124,-4.485 C19.5653,-5.635 20.286,-7.222 20.286,-9.246 C20.286,-11.2393 19.5653,-12.8033 18.124,-13.938 C16.6827,-15.0727 14.5053,-15.64 11.592,-15.64 L9.292,-15.64 L9.292,-18.078 L18.216,-29.256 L1.748,-29.256 L1.748,-32.2 L22.448,-32.2 L22.448,-29.854 L13.34,-18.4 M41.226,0.276 C38.742,0.276 36.5263,-0.383333 34.579,-1.702 C32.6317,-3.02067 31.1137,-4.91433 30.025,-7.383 C28.9363,-9.85167 28.392,-12.7573 28.392,-16.1 C28.392,-19.4427 28.9363,-22.3483 30.025,-24.817 C31.1137,-27.2857 32.6317,-29.1793 34.579,-30.498 C36.5263,-31.8167 38.742,-32.476 41.226,-32.476 C43.71,-32.476 45.9257,-31.8167 47.873,-30.498 C49.8203,-29.1793 51.346,-27.2857 52.45,-24.817 C53.554,-22.3483 54.106,-19.4427 54.106,-16.1 C54.106,-12.7573 53.554,-9.85167 52.45,-7.383 C51.346,-4.91433 49.8203,-3.02067 47.873,-1.702 C45.9257,-0.383333 43.71,0.276 41.226,0.276 M41.226,-2.76 C43.0967,-2.76 44.745,-3.28133 46.171,-4.324 C47.597,-5.36667 48.7087,-6.88467 49.506,-8.878 C50.3033,-10.8713 50.702,-13.2787 50.702,-16.1 C50.702,-18.9213 50.3033,-21.3287 49.506,-23.322 C48.7087,-25.3153 47.597,-26.8333 46.171,-27.876 C44.745,-28.9187 43.0967,-29.44 41.226,-29.44 C39.3553,-29.44 37.707,-28.9187 36.281,-27.876 C34.855,-26.8333 33.7433,-25.3153 32.946,-23.322 C32.1487,-21.3287 31.75,-18.9213 31.75,-16.1 C31.75,-13.2787 32.1487,-10.8713 32.946,-8.878 C33.7433,-6.88467 34.855,-5.36667 36.281,-4.324 C37.707,-3.28133 39.3553,-2.76 41.226,-2.76 M60.876,0.23 C60.2013,0.23 59.6263,-0.0153333 59.151,-0.506 C58.6757,-0.996667 58.438,-1.59467 58.438,-2.3 C58.438,-3.00533 58.6757,-3.59567 59.151,-4.071 C59.6263,-4.54633 60.2013,-4.784 60.876,-4.784 C61.5507,-4.784 62.1333,-4.54633 62.624,-4.071 C63.1147,-3.59567 63.36,-3.00533 63.36,-2.3 C63.36,-1.59467 63.1147,-0.996667 62.624,-0.506 C62.1333,-0.0153333 61.5507,0.23 60.876,0.23 M90.116,-32.2 L90.116,-29.854 L76.638,0 L73.05,0 L86.298,-29.256 L69.738,-29.256 L69.738,-23.23 L66.472,-23.23 L66.472,-32.2 L90.116,-32.2 M113.614,-17.848 C112.265,-17.848 111.03,-18.17 109.911,-18.814 C108.792,-19.458 107.91,-20.3397 107.266,-21.459 C106.622,-22.5783 106.3,-23.8127 106.3,-25.162 C106.3,-26.4807 106.622,-27.6997 107.266,-28.819 C107.91,-29.9383 108.792,-30.82 109.911,-31.464 C111.03,-32.108 112.265,-32.43 113.614,-32.43 C114.963,-32.43 116.205,-32.108 117.34,-31.464 C118.475,-30.82 119.364,-29.9383 120.008,-28.819 C120.652,-27.6997 120.974,-26.4807 120.974,-25.162 C120.974,-23.8127 120.652,-22.5783 120.008,-21.459 C119.364,-20.3397 118.475,-19.458 117.34,-18.814 C116.205,-18.17 114.963,-17.848 113.614,-17.848 M113.614,-19.78 C115.117,-19.78 116.382,-20.2937 117.409,-21.321 C118.436,-22.3483 118.95,-23.6287 118.95,-25.162 C118.95,-26.6647 118.436,-27.9297 117.409,-28.957 C116.382,-29.9843 115.117,-30.498 113.614,-30.498 C112.111,-30.498 110.854,-29.9843 109.842,-28.957 C108.83,-27.9297 108.324,-26.6647 108.324,-25.162 C108.324,-23.6287 108.83,-22.3483 109.842,-21.321 C110.854,-20.2937 112.111,-19.78 113.614,-19.78 M142.228,0.276 C139.039,0.276 136.164,-0.429333 133.603,-1.84 C131.042,-3.25067 129.034,-5.20567 127.577,-7.705 C126.12,-10.2043 125.392,-13.0027 125.392,-16.1 C125.392,-19.1973 126.12,-21.9957 127.577,-24.495 C129.034,-26.9943 131.05,-28.9493 133.626,-30.36 C136.202,-31.7707 139.085,-32.476 142.274,-32.476 C144.666,-32.476 146.874,-32.0773 148.898,-31.28 C150.922,-30.4827 152.639,-29.3173 154.05,-27.784 L151.888,-25.622 C149.373,-28.1673 146.199,-29.44 142.366,-29.44 C139.821,-29.44 137.505,-28.8573 135.42,-27.692 C133.335,-26.5267 131.702,-24.932 130.521,-22.908 C129.34,-20.884 128.75,-18.6147 128.75,-16.1 C128.75,-13.5853 129.34,-11.316 130.521,-9.292 C131.702,-7.268 133.335,-5.67333 135.42,-4.508 C137.505,-3.34267 139.821,-2.76 142.366,-2.76 C146.23,-2.76 149.404,-4.048 151.888,-6.624 L154.05,-4.462 C152.639,-2.92867 150.914,-1.75567 148.875,-0.943 C146.836,-0.130333 144.62,0.276 142.228,0.276 " fill-rule="nonzero"/>
  </g>
  <g stroke-linecap="square" font-weight="400" stroke="#000000" stroke-opacity="1" fill="none" stroke-width="1" transform="matrix(0.399627,0,0,0.399627,304.346,163.664)" font-size="32.5" stroke-linejoin="bevel" font-family="MS Shell Dlg 2" font-style="normal"/>
  <g stroke-linecap="square" font-weight="400" stroke="#000000" stroke-opacity="1" fill="none" stroke-width="1" transform="matrix(0.999067,0,0,0.999067,11.8,0)" font-size="32.5" stroke-linejoin="bevel" font-family="MS Shell Dlg 2" font-style="normal"/>
  <g stroke-linecap="square" font-weight="400" stroke="#000000" stroke-opacity="1" fill="none" stroke-width="1" transform="matrix(11.8,0,0,11.8,11.8,0)" font-size="32.5" stroke-linejoin="bevel" font-family="MS Shell Dlg 2" font-style="normal"/>
  <g stroke-linecap="square" font-weight="400" stroke="#000000" stroke-opacity="1" fill="none" stroke-width="1" transform="matrix(1.18,0,0,1.18,11.8,0)" font-size="42" stroke-linejoin="bevel" font-family="Montserrat" font-style="normal">
   <text font-weight="400" stroke="none" xml:space="preserve" fill="#000000" font-size="42" fill-opacity="1" y="47" x="390" font-family="Montserrat" font-style="normal">Salinidad</text>
  </g>
  <g stroke-linecap="square" font-weight="400" stroke="#000000" stroke-opacity="1" fill="none" stroke-width="1" transform="matrix(11.8,0,0,11.8,11.8,0)" font-size="32.5" stroke-linejoin="bevel" font-family="MS Shell Dlg 2" font-style="normal"/>
  <g stroke-linecap="square" font-weight="400" stroke="#000000" stroke-miterlimit="2" stroke-opacity="1" fill="url(#gradient2)" stroke-width="1" transform="matrix(0.999067,0,0,0.999067,11.8,0)" font-size="32.5" stroke-linejoin="miter" font-family="MS Shell Dlg 2" font-style="normal">
   <rect height="47" vector-effect="non-scaling-stroke" width="448" y="67" x="460"/>
  </g>
  <g stroke-linecap="square" font-weight="400" stroke="#000000" stroke-opacity="1" fill="none" stroke-width="1" transform="matrix(11.8,0,0,11.8,11.8,0)" font-size="32.5" stroke-linejoin="bevel" font-family="MS Shell Dlg 2" font-style="normal"/>
  <g stroke-linecap="square" font-weight="400" stroke="#000000" stroke-opacity="1" fill="none" stroke-width="1" transform="matrix(0.999067,0,0,0.999067,11.8,0)" font-size="32.5" stroke-linejoin="bevel" font-family="MS Shell Dlg 2" font-style="normal"/>
  <g stroke-linecap="square" font-weight="400" stroke="#000000" stroke-opacity="1" fill="none" stroke-width="1" transform="matrix(0.399627,0,0,0.399627,472,163.664)" font-size="32.5" stroke-linejoin="bevel" font-family="MS Shell Dlg 2" font-style="normal"/>
  <g font-weight="400" stroke="none" fill="#000000" transform="matrix(0.999067,0,0,0.999067,472,163.664)" font-size="32.5" fill-opacity="1" font-family="MS Shell Dlg 2" font-style="normal">
   <path vector-effect="none" d="M13.34,-18.4 C16.7133,-18.216 19.2817,-17.3037 21.045,-15.663 C22.8083,-14.0223 23.69,-11.8833 23.69,-9.246 C23.69,-7.406 23.2453,-5.773 22.356,-4.347 C21.4667,-2.921 20.148,-1.794 18.4,-0.966 C16.652,-0.138 14.5207,0.276 12.006,0.276 C9.67533,0.276 7.475,-0.0996667 5.405,-0.851 C3.335,-1.60233 1.67133,-2.60667 0.414,-3.864 L2.024,-6.486 C3.09733,-5.382 4.52333,-4.485 6.302,-3.795 C8.08067,-3.105 9.982,-2.76 12.006,-2.76 C14.6433,-2.76 16.6827,-3.335 18.124,-4.485 C19.5653,-5.635 20.286,-7.222 20.286,-9.246 C20.286,-11.2393 19.5653,-12.8033 18.124,-13.938 C16.6827,-15.0727 14.5053,-15.64 11.592,-15.64 L9.292,-15.64 L9.292,-18.078 L18.216,-29.256 L1.748,-29.256 L1.748,-32.2 L22.448,-32.2 L22.448,-29.854 L13.34,-18.4 M39.34,-18.4 C42.7133,-18.216 45.2817,-17.3037 47.045,-15.663 C48.8083,-14.0223 49.69,-11.8833 49.69,-9.246 C49.69,-7.406 49.2453,-5.773 48.356,-4.347 C47.4667,-2.921 46.148,-1.794 44.4,-0.966 C42.652,-0.138 40.5207,0.276 38.006,0.276 C35.6753,0.276 33.475,-0.0996667 31.405,-0.851 C29.335,-1.60233 27.6713,-2.60667 26.414,-3.864 L28.024,-6.486 C29.0973,-5.382 30.5233,-4.485 32.302,-3.795 C34.0807,-3.105 35.982,-2.76 38.006,-2.76 C40.6433,-2.76 42.6827,-3.335 44.124,-4.485 C45.5653,-5.635 46.286,-7.222 46.286,-9.246 C46.286,-11.2393 45.5653,-12.8033 44.124,-13.938 C42.6827,-15.0727 40.5053,-15.64 37.592,-15.64 L35.292,-15.64 L35.292,-18.078 L44.216,-29.256 L27.748,-29.256 L27.748,-32.2 L48.448,-32.2 L48.448,-29.854 L39.34,-18.4 M82.216,0.276 C78.0453,0.276 74.7947,-0.92 72.464,-3.312 C70.1333,-5.704 68.968,-9.18467 68.968,-13.754 L68.968,-32.2 L72.372,-32.2 L72.372,-13.892 C72.372,-10.1507 73.2153,-7.36 74.902,-5.52 C76.5887,-3.68 79.0267,-2.76 82.216,-2.76 C85.436,-2.76 87.8893,-3.68 89.576,-5.52 C91.2627,-7.36 92.106,-10.1507 92.106,-13.892 L92.106,-32.2 L95.418,-32.2 L95.418,-13.754 C95.418,-9.18467 94.2603,-5.704 91.945,-3.312 C89.6297,-0.92 86.3867,0.276 82.216,0.276 M117.296,-32.2 C121.405,-32.2 124.625,-31.2187 126.956,-29.256 C129.287,-27.2933 130.452,-24.5947 130.452,-21.16 C130.452,-17.7253 129.287,-15.0343 126.956,-13.087 C124.625,-11.1397 121.405,-10.166 117.296,-10.166 L108.648,-10.166 L108.648,0 L105.244,0 L105.244,-32.2 L117.296,-32.2 M117.204,-13.156 C120.393,-13.156 122.831,-13.8537 124.518,-15.249 C126.205,-16.6443 127.048,-18.6147 127.048,-21.16 C127.048,-23.7667 126.205,-25.7677 124.518,-27.163 C122.831,-28.5583 120.393,-29.256 117.204,-29.256 L108.648,-29.256 L108.648,-13.156 L117.204,-13.156 M147.122,0.276 C144.73,0.276 142.438,-0.107333 140.245,-0.874 C138.052,-1.64067 136.358,-2.65267 135.162,-3.91 L136.496,-6.532 C137.661,-5.36667 139.21,-4.42367 141.142,-3.703 C143.074,-2.98233 145.067,-2.622 147.122,-2.622 C150.005,-2.622 152.167,-3.151 153.608,-4.209 C155.049,-5.267 155.77,-6.63933 155.77,-8.326 C155.77,-9.614 155.379,-10.6413 154.597,-11.408 C153.815,-12.1747 152.857,-12.765 151.722,-13.179 C150.587,-13.593 149.008,-14.0453 146.984,-14.536 C144.561,-15.1493 142.629,-15.7397 141.188,-16.307 C139.747,-16.8743 138.512,-17.7407 137.485,-18.906 C136.458,-20.0713 135.944,-21.6507 135.944,-23.644 C135.944,-25.2693 136.373,-26.749 137.232,-28.083 C138.091,-29.417 139.409,-30.4827 141.188,-31.28 C142.967,-32.0773 145.175,-32.476 147.812,-32.476 C149.652,-32.476 151.454,-32.223 153.217,-31.717 C154.98,-31.211 156.506,-30.5133 157.794,-29.624 L156.644,-26.91 C155.295,-27.7993 153.853,-28.4663 152.32,-28.911 C150.787,-29.3557 149.284,-29.578 147.812,-29.578 C144.991,-29.578 142.867,-29.0337 141.441,-27.945 C140.015,-26.8563 139.302,-25.4533 139.302,-23.736 C139.302,-22.448 139.693,-21.413 140.475,-20.631 C141.257,-19.849 142.238,-19.251 143.419,-18.837 C144.6,-18.423 146.187,-17.9707 148.18,-17.48 C150.541,-16.8973 152.45,-16.3223 153.907,-15.755 C155.364,-15.1877 156.598,-14.329 157.61,-13.179 C158.622,-12.029 159.128,-10.4727 159.128,-8.51 C159.128,-6.88467 158.691,-5.405 157.817,-4.071 C156.943,-2.737 155.601,-1.679 153.792,-0.897 C151.983,-0.115 149.759,0.276 147.122,0.276 " fill-rule="nonzero"/>
  </g>
  <g stroke-linecap="square" font-weight="400" stroke="#000000" stroke-opacity="1" fill="none" stroke-width="1" transform="matrix(0.399627,0,0,0.399627,472,163.664)" font-size="32.5" stroke-linejoin="bevel" font-family="MS Shell Dlg 2" font-style="normal"/>
  <g stroke-linecap="square" font-weight="400" stroke="#000000" stroke-opacity="1" fill="none" stroke-width="1" transform="matrix(0.999067,0,0,0.999067,11.8,0)" font-size="32.5" stroke-linejoin="bevel" font-family="MS Shell Dlg 2" font-style="normal"/>
  <g stroke-linecap="square" font-weight="400" stroke="#000000" stroke-opacity="1" fill="none" stroke-width="1" transform="matrix(0.399627,0,0,0.399627,759.55,163.664)" font-size="32.5" stroke-linejoin="bevel" font-family="MS Shell Dlg 2" font-style="normal"/>
  <g font-weight="400" stroke="none" fill="#000000" transform="matrix(0.999067,0,0,0.999067,759.55,163.664)" font-size="32.5" fill-opacity="1" font-family="MS Shell Dlg 2" font-style="normal">
   <path vector-effect="none" d="M13.34,-18.4 C16.7133,-18.216 19.2817,-17.3037 21.045,-15.663 C22.8083,-14.0223 23.69,-11.8833 23.69,-9.246 C23.69,-7.406 23.2453,-5.773 22.356,-4.347 C21.4667,-2.921 20.148,-1.794 18.4,-0.966 C16.652,-0.138 14.5207,0.276 12.006,0.276 C9.67533,0.276 7.475,-0.0996667 5.405,-0.851 C3.335,-1.60233 1.67133,-2.60667 0.414,-3.864 L2.024,-6.486 C3.09733,-5.382 4.52333,-4.485 6.302,-3.795 C8.08067,-3.105 9.982,-2.76 12.006,-2.76 C14.6433,-2.76 16.6827,-3.335 18.124,-4.485 C19.5653,-5.635 20.286,-7.222 20.286,-9.246 C20.286,-11.2393 19.5653,-12.8033 18.124,-13.938 C16.6827,-15.0727 14.5053,-15.64 11.592,-15.64 L9.292,-15.64 L9.292,-18.078 L18.216,-29.256 L1.748,-29.256 L1.748,-32.2 L22.448,-32.2 L22.448,-29.854 L13.34,-18.4 M36.856,-18.998 C41.5173,-18.998 44.9137,-18.1623 47.045,-16.491 C49.1763,-14.8197 50.242,-12.4813 50.242,-9.476 C50.242,-7.60533 49.805,-5.934 48.931,-4.462 C48.057,-2.99 46.746,-1.83233 44.998,-0.989 C43.25,-0.145667 41.1033,0.276 38.558,0.276 C36.258,0.276 34.073,-0.0996667 32.003,-0.851 C29.933,-1.60233 28.2693,-2.60667 27.012,-3.864 L28.622,-6.486 C29.6953,-5.382 31.106,-4.485 32.854,-3.795 C34.602,-3.105 36.488,-2.76 38.512,-2.76 C41.18,-2.76 43.2423,-3.358 44.699,-4.554 C46.1557,-5.75 46.884,-7.34467 46.884,-9.338 C46.884,-11.546 46.0637,-13.2173 44.423,-14.352 C42.7823,-15.4867 40.0147,-16.054 36.12,-16.054 L29.266,-16.054 L30.922,-32.2 L48.54,-32.2 L48.54,-29.256 L33.82,-29.256 L32.716,-18.998 L36.856,-18.998 M82.216,0.276 C78.0453,0.276 74.7947,-0.92 72.464,-3.312 C70.1333,-5.704 68.968,-9.18467 68.968,-13.754 L68.968,-32.2 L72.372,-32.2 L72.372,-13.892 C72.372,-10.1507 73.2153,-7.36 74.902,-5.52 C76.5887,-3.68 79.0267,-2.76 82.216,-2.76 C85.436,-2.76 87.8893,-3.68 89.576,-5.52 C91.2627,-7.36 92.106,-10.1507 92.106,-13.892 L92.106,-32.2 L95.418,-32.2 L95.418,-13.754 C95.418,-9.18467 94.2603,-5.704 91.945,-3.312 C89.6297,-0.92 86.3867,0.276 82.216,0.276 M117.296,-32.2 C121.405,-32.2 124.625,-31.2187 126.956,-29.256 C129.287,-27.2933 130.452,-24.5947 130.452,-21.16 C130.452,-17.7253 129.287,-15.0343 126.956,-13.087 C124.625,-11.1397 121.405,-10.166 117.296,-10.166 L108.648,-10.166 L108.648,0 L105.244,0 L105.244,-32.2 L117.296,-32.2 M117.204,-13.156 C120.393,-13.156 122.831,-13.8537 124.518,-15.249 C126.205,-16.6443 127.048,-18.6147 127.048,-21.16 C127.048,-23.7667 126.205,-25.7677 124.518,-27.163 C122.831,-28.5583 120.393,-29.256 117.204,-29.256 L108.648,-29.256 L108.648,-13.156 L117.204,-13.156 M147.122,0.276 C144.73,0.276 142.438,-0.107333 140.245,-0.874 C138.052,-1.64067 136.358,-2.65267 135.162,-3.91 L136.496,-6.532 C137.661,-5.36667 139.21,-4.42367 141.142,-3.703 C143.074,-2.98233 145.067,-2.622 147.122,-2.622 C150.005,-2.622 152.167,-3.151 153.608,-4.209 C155.049,-5.267 155.77,-6.63933 155.77,-8.326 C155.77,-9.614 155.379,-10.6413 154.597,-11.408 C153.815,-12.1747 152.857,-12.765 151.722,-13.179 C150.587,-13.593 149.008,-14.0453 146.984,-14.536 C144.561,-15.1493 142.629,-15.7397 141.188,-16.307 C139.747,-16.8743 138.512,-17.7407 137.485,-18.906 C136.458,-20.0713 135.944,-21.6507 135.944,-23.644 C135.944,-25.2693 136.373,-26.749 137.232,-28.083 C138.091,-29.417 139.409,-30.4827 141.188,-31.28 C142.967,-32.0773 145.175,-32.476 147.812,-32.476 C149.652,-32.476 151.454,-32.223 153.217,-31.717 C154.98,-31.211 156.506,-30.5133 157.794,-29.624 L156.644,-26.91 C155.295,-27.7993 153.853,-28.4663 152.32,-28.911 C150.787,-29.3557 149.284,-29.578 147.812,-29.578 C144.991,-29.578 142.867,-29.0337 141.441,-27.945 C140.015,-26.8563 139.302,-25.4533 139.302,-23.736 C139.302,-22.448 139.693,-21.413 140.475,-20.631 C141.257,-19.849 142.238,-19.251 143.419,-18.837 C144.6,-18.423 146.187,-17.9707 148.18,-17.48 C150.541,-16.8973 152.45,-16.3223 153.907,-15.755 C155.364,-15.1877 156.598,-14.329 157.61,-13.179 C158.622,-12.029 159.128,-10.4727 159.128,-8.51 C159.128,-6.88467 158.691,-5.405 157.817,-4.071 C156.943,-2.737 155.601,-1.679 153.792,-0.897 C151.983,-0.115 149.759,0.276 147.122,0.276 " fill-rule="nonzero"/>
  </g>
  <g stroke-linecap="square" font-weight="400" stroke="#000000" stroke-opacity="1" fill="none" stroke-width="1" transform="matrix(0.399627,0,0,0.399627,759.55,163.664)" font-size="32.5" stroke-linejoin="bevel" font-family="MS Shell Dlg 2" font-style="normal"/>
  <g stroke-linecap="square" font-weight="400" stroke="#000000" stroke-opacity="1" fill="none" stroke-width="1" transform="matrix(0.999067,0,0,0.999067,11.8,0)" font-size="32.5" stroke-linejoin="bevel" font-family="MS Shell Dlg 2" font-style="normal"/>
  <g stroke-linecap="square" font-weight="400" stroke="#000000" stroke-opacity="1" fill="none" stroke-width="1" transform="matrix(11.8,0,0,11.8,11.8,0)" font-size="32.5" stroke-linejoin="bevel" font-family="MS Shell Dlg 2" font-style="normal"/>
  <g stroke-linecap="square" font-weight="400" stroke="#000000" stroke-opacity="1" fill="none" stroke-width="1" transform="matrix(1.18,0,0,1.18,11.8,0)" font-size="42" stroke-linejoin="bevel" font-family="Montserrat" font-style="normal">
   <text font-weight="400" stroke="none" xml:space="preserve" fill="#000000" font-size="42" fill-opacity="1" y="47" x="780" font-family="Montserrat" font-style="normal">Oxígeno</text>
  </g>
  <g stroke-linecap="square" font-weight="400" stroke="#000000" stroke-opacity="1" fill="none" stroke-width="1" transform="matrix(11.8,0,0,11.8,11.8,0)" font-size="32.5" stroke-linejoin="bevel" font-family="MS Shell Dlg 2" font-style="normal"/>
  <g stroke-linecap="square" font-weight="400" stroke="#000000" stroke-miterlimit="2" stroke-opacity="1" fill="url(#gradient3)" stroke-width="1" transform="matrix(0.999067,0,0,0.999067,11.8,0)" font-size="32.5" stroke-linejoin="miter" font-family="MS Shell Dlg 2" font-style="normal">
   <rect height="47" vector-effect="non-scaling-stroke" width="448" y="67" x="921"/>
  </g>
  <g stroke-linecap="square" font-weight="400" stroke="#000000" stroke-opacity="1" fill="none" stroke-width="1" transform="matrix(11.8,0,0,11.8,11.8,0)" font-size="32.5" stroke-linejoin="bevel" font-family="MS Shell Dlg 2" font-style="normal"/>
  <g stroke-linecap="square" font-weight="400" stroke="#000000" stroke-opacity="1" fill="none" stroke-width="1" transform="matrix(0.999067,0,0,0.999067,11.8,0)" font-size="32.5" stroke-linejoin="bevel" font-family="MS Shell Dlg 2" font-style="normal"/>
  <g stroke-linecap="square" font-weight="400" stroke="#000000" stroke-opacity="1" fill="none" stroke-width="1" transform="matrix(0.399627,0,0,0.399627,932.2,163.664)" font-size="32.5" stroke-linejoin="bevel" font-family="MS Shell Dlg 2" font-style="normal"/>
  <g font-weight="400" stroke="none" fill="#000000" transform="matrix(0.999067,0,0,0.999067,932.2,163.664)" font-size="32.5" fill-opacity="1" font-family="MS Shell Dlg 2" font-style="normal">
   <path vector-effect="none" d="M15.226,0.276 C12.742,0.276 10.5263,-0.383333 8.579,-1.702 C6.63167,-3.02067 5.11367,-4.91433 4.025,-7.383 C2.93633,-9.85167 2.392,-12.7573 2.392,-16.1 C2.392,-19.4427 2.93633,-22.3483 4.025,-24.817 C5.11367,-27.2857 6.63167,-29.1793 8.579,-30.498 C10.5263,-31.8167 12.742,-32.476 15.226,-32.476 C17.71,-32.476 19.9257,-31.8167 21.873,-30.498 C23.8203,-29.1793 25.346,-27.2857 26.45,-24.817 C27.554,-22.3483 28.106,-19.4427 28.106,-16.1 C28.106,-12.7573 27.554,-9.85167 26.45,-7.383 C25.346,-4.91433 23.8203,-3.02067 21.873,-1.702 C19.9257,-0.383333 17.71,0.276 15.226,0.276 M15.226,-2.76 C17.0967,-2.76 18.745,-3.28133 20.171,-4.324 C21.597,-5.36667 22.7087,-6.88467 23.506,-8.878 C24.3033,-10.8713 24.702,-13.2787 24.702,-16.1 C24.702,-18.9213 24.3033,-21.3287 23.506,-23.322 C22.7087,-25.3153 21.597,-26.8333 20.171,-27.876 C18.745,-28.9187 17.0967,-29.44 15.226,-29.44 C13.3553,-29.44 11.707,-28.9187 10.281,-27.876 C8.855,-26.8333 7.74333,-25.3153 6.946,-23.322 C6.14867,-21.3287 5.75,-18.9213 5.75,-16.1 C5.75,-13.2787 6.14867,-10.8713 6.946,-8.878 C7.74333,-6.88467 8.855,-5.36667 10.281,-4.324 C11.707,-3.28133 13.3553,-2.76 15.226,-2.76 M34.876,0.23 C34.2013,0.23 33.6263,-0.0153333 33.151,-0.506 C32.6757,-0.996667 32.438,-1.59467 32.438,-2.3 C32.438,-3.00533 32.6757,-3.59567 33.151,-4.071 C33.6263,-4.54633 34.2013,-4.784 34.876,-4.784 C35.5507,-4.784 36.1333,-4.54633 36.624,-4.071 C37.1147,-3.59567 37.36,-3.00533 37.36,-2.3 C37.36,-1.59467 37.1147,-0.996667 36.624,-0.506 C36.1333,-0.0153333 35.5507,0.23 34.876,0.23 M53.34,-18.4 C56.7133,-18.216 59.2817,-17.3037 61.045,-15.663 C62.8083,-14.0223 63.69,-11.8833 63.69,-9.246 C63.69,-7.406 63.2453,-5.773 62.356,-4.347 C61.4667,-2.921 60.148,-1.794 58.4,-0.966 C56.652,-0.138 54.5207,0.276 52.006,0.276 C49.6753,0.276 47.475,-0.0996667 45.405,-0.851 C43.335,-1.60233 41.6713,-2.60667 40.414,-3.864 L42.024,-6.486 C43.0973,-5.382 44.5233,-4.485 46.302,-3.795 C48.0807,-3.105 49.982,-2.76 52.006,-2.76 C54.6433,-2.76 56.6827,-3.335 58.124,-4.485 C59.5653,-5.635 60.286,-7.222 60.286,-9.246 C60.286,-11.2393 59.5653,-12.8033 58.124,-13.938 C56.6827,-15.0727 54.5053,-15.64 51.592,-15.64 L49.292,-15.64 L49.292,-18.078 L58.216,-29.256 L41.748,-29.256 L41.748,-32.2 L62.448,-32.2 L62.448,-29.854 L53.34,-18.4 M112.73,-24.38 C115.766,-24.38 118.15,-23.506 119.883,-21.758 C121.616,-20.01 122.482,-17.434 122.482,-14.03 L122.482,0 L119.216,0 L119.216,-13.708 C119.216,-16.2227 118.61,-18.1393 117.399,-19.458 C116.188,-20.7767 114.478,-21.436 112.27,-21.436 C109.755,-21.436 107.777,-20.6617 106.336,-19.113 C104.895,-17.5643 104.174,-15.4253 104.174,-12.696 L104.174,0 L100.908,0 L100.908,-13.708 C100.908,-16.2227 100.302,-18.1393 99.091,-19.458 C97.8797,-20.7767 96.1547,-21.436 93.916,-21.436 C91.432,-21.436 89.4617,-20.6617 88.005,-19.113 C86.5483,-17.5643 85.82,-15.4253 85.82,-12.696 L85.82,0 L82.554,0 L82.554,-24.196 L85.682,-24.196 L85.682,-19.78 C86.5407,-21.252 87.7367,-22.3867 89.27,-23.184 C90.8033,-23.9813 92.5667,-24.38 94.56,-24.38 C96.584,-24.38 98.3397,-23.9507 99.827,-23.092 C101.314,-22.2333 102.426,-20.9607 103.162,-19.274 C104.051,-20.8687 105.332,-22.1183 107.003,-23.023 C108.674,-23.9277 110.583,-24.38 112.73,-24.38 M153.956,-24.196 L153.956,-2.944 C153.956,1.16533 152.952,4.209 150.943,6.187 C148.934,8.165 145.906,9.154 141.858,9.154 C139.619,9.154 137.496,8.82433 135.487,8.165 C133.478,7.50567 131.845,6.59333 130.588,5.428 L132.244,2.944 C133.409,3.98667 134.828,4.79933 136.499,5.382 C138.17,5.96467 139.926,6.256 141.766,6.256 C144.833,6.256 147.087,5.543 148.528,4.117 C149.969,2.691 150.69,0.475333 150.69,-2.53 L150.69,-5.612 C149.678,-4.07867 148.352,-2.91333 146.711,-2.116 C145.07,-1.31867 143.253,-0.92 141.26,-0.92 C138.991,-0.92 136.928,-1.41833 135.073,-2.415 C133.218,-3.41167 131.761,-4.807 130.703,-6.601 C129.645,-8.395 129.116,-10.4267 129.116,-12.696 C129.116,-14.9653 129.645,-16.9893 130.703,-18.768 C131.761,-20.5467 133.21,-21.9267 135.05,-22.908 C136.89,-23.8893 138.96,-24.38 141.26,-24.38 C143.315,-24.38 145.17,-23.966 146.826,-23.138 C148.482,-22.31 149.816,-21.114 150.828,-19.55 L150.828,-24.196 L153.956,-24.196 M141.582,-3.818 C143.33,-3.818 144.909,-4.19367 146.32,-4.945 C147.731,-5.69633 148.827,-6.74667 149.609,-8.096 C150.391,-9.44533 150.782,-10.9787 150.782,-12.696 C150.782,-14.4133 150.391,-15.939 149.609,-17.273 C148.827,-18.607 147.738,-19.6497 146.343,-20.401 C144.948,-21.1523 143.361,-21.528 141.582,-21.528 C139.834,-21.528 138.262,-21.16 136.867,-20.424 C135.472,-19.688 134.383,-18.6453 133.601,-17.296 C132.819,-15.9467 132.428,-14.4133 132.428,-12.696 C132.428,-10.9787 132.819,-9.44533 133.601,-8.096 C134.383,-6.74667 135.472,-5.69633 136.867,-4.945 C138.262,-4.19367 139.834,-3.818 141.582,-3.818 M173.03,-38.732 L176.02,-38.732 L160.84,4.6 L157.85,4.6 L173.03,-38.732 M178.554,-34.132 L181.82,-34.132 L181.82,0 L178.554,0 L178.554,-34.132" fill-rule="nonzero"/>
  </g>
  <g stroke-linecap="square" font-weight="400" stroke="#000000" stroke-opacity="1" fill="none" stroke-width="1" transform="matrix(0.399627,0,0,0.399627,932.2,163.664)" font-size="32.5" stroke-linejoin="bevel" font-family="MS Shell Dlg 2" font-style="normal"/>
  <g stroke-linecap="square" font-weight="400" stroke="#000000" stroke-opacity="1" fill="none" stroke-width="1" transform="matrix(0.999067,0,0,0.999067,11.8,0)" font-size="32.5" stroke-linejoin="bevel" font-family="MS Shell Dlg 2" font-style="normal"/>
  <g stroke-linecap="square" font-weight="400" stroke="#000000" stroke-opacity="1" fill="none" stroke-width="1" transform="matrix(0.399627,0,0,0.399627,1206.76,163.664)" font-size="32.5" stroke-linejoin="bevel" font-family="MS Shell Dlg 2" font-style="normal"/>
  <g font-weight="400" stroke="none" fill="#000000" transform="matrix(0.999067,0,0,0.999067,1206.76,163.664)" font-size="32.5" fill-opacity="1" font-family="MS Shell Dlg 2" font-style="normal">
   <path vector-effect="none" d="M12.42,-32.476 C16.6827,-32.476 19.9487,-31.073 22.218,-28.267 C24.4873,-25.461 25.622,-21.4973 25.622,-16.376 C25.622,-12.788 25.0087,-9.752 23.782,-7.268 C22.5553,-4.784 20.838,-2.90567 18.63,-1.633 C16.422,-0.360333 13.846,0.276 10.902,0.276 C7.71267,0.276 5.16733,-0.306667 3.266,-1.472 L4.6,-4.14 C6.13333,-3.128 8.21867,-2.622 10.856,-2.622 C14.4133,-2.622 17.204,-3.749 19.228,-6.003 C21.252,-8.257 22.264,-11.5307 22.264,-15.824 C22.264,-16.6213 22.218,-17.4953 22.126,-18.446 C21.3287,-16.698 20.056,-15.341 18.308,-14.375 C16.56,-13.409 14.5513,-12.926 12.282,-12.926 C10.166,-12.926 8.28767,-13.3247 6.647,-14.122 C5.00633,-14.9193 3.726,-16.0463 2.806,-17.503 C1.886,-18.9597 1.426,-20.654 1.426,-22.586 C1.426,-24.5487 1.90133,-26.2813 2.852,-27.784 C3.80267,-29.2867 5.11367,-30.4443 6.785,-31.257 C8.45633,-32.0697 10.3347,-32.476 12.42,-32.476 M12.788,-15.732 C14.4133,-15.732 15.847,-16.0387 17.089,-16.652 C18.331,-17.2653 19.3047,-18.1087 20.01,-19.182 C20.7153,-20.2553 21.068,-21.4513 21.068,-22.77 C21.068,-23.9967 20.7383,-25.1313 20.079,-26.174 C19.4197,-27.2167 18.446,-28.06 17.158,-28.704 C15.87,-29.348 14.3367,-29.67 12.558,-29.67 C10.2273,-29.67 8.33367,-29.0337 6.877,-27.761 C5.42033,-26.4883 4.692,-24.794 4.692,-22.678 C4.692,-20.562 5.42033,-18.8753 6.877,-17.618 C8.33367,-16.3607 10.304,-15.732 12.788,-15.732 M32.876,0.23 C32.2013,0.23 31.6263,-0.0153333 31.151,-0.506 C30.6757,-0.996667 30.438,-1.59467 30.438,-2.3 C30.438,-3.00533 30.6757,-3.59567 31.151,-4.071 C31.6263,-4.54633 32.2013,-4.784 32.876,-4.784 C33.5507,-4.784 34.1333,-4.54633 34.624,-4.071 C35.1147,-3.59567 35.36,-3.00533 35.36,-2.3 C35.36,-1.59467 35.1147,-0.996667 34.624,-0.506 C34.1333,-0.0153333 33.5507,0.23 32.876,0.23 M48.316,-32.2 L48.316,0 L45.004,0 L45.004,-29.256 L37.414,-29.256 L37.414,-32.2 L48.316,-32.2 M100.73,-24.38 C103.766,-24.38 106.15,-23.506 107.883,-21.758 C109.616,-20.01 110.482,-17.434 110.482,-14.03 L110.482,0 L107.216,0 L107.216,-13.708 C107.216,-16.2227 106.61,-18.1393 105.399,-19.458 C104.188,-20.7767 102.478,-21.436 100.27,-21.436 C97.7553,-21.436 95.7773,-20.6617 94.336,-19.113 C92.8947,-17.5643 92.174,-15.4253 92.174,-12.696 L92.174,0 L88.908,0 L88.908,-13.708 C88.908,-16.2227 88.3023,-18.1393 87.091,-19.458 C85.8797,-20.7767 84.1547,-21.436 81.916,-21.436 C79.432,-21.436 77.4617,-20.6617 76.005,-19.113 C74.5483,-17.5643 73.82,-15.4253 73.82,-12.696 L73.82,0 L70.554,0 L70.554,-24.196 L73.682,-24.196 L73.682,-19.78 C74.5407,-21.252 75.7367,-22.3867 77.27,-23.184 C78.8033,-23.9813 80.5667,-24.38 82.56,-24.38 C84.584,-24.38 86.3397,-23.9507 87.827,-23.092 C89.3143,-22.2333 90.426,-20.9607 91.162,-19.274 C92.0513,-20.8687 93.3317,-22.1183 95.003,-23.023 C96.6743,-23.9277 98.5833,-24.38 100.73,-24.38 M141.956,-24.196 L141.956,-2.944 C141.956,1.16533 140.952,4.209 138.943,6.187 C136.934,8.165 133.906,9.154 129.858,9.154 C127.619,9.154 125.496,8.82433 123.487,8.165 C121.478,7.50567 119.845,6.59333 118.588,5.428 L120.244,2.944 C121.409,3.98667 122.828,4.79933 124.499,5.382 C126.17,5.96467 127.926,6.256 129.766,6.256 C132.833,6.256 135.087,5.543 136.528,4.117 C137.969,2.691 138.69,0.475333 138.69,-2.53 L138.69,-5.612 C137.678,-4.07867 136.352,-2.91333 134.711,-2.116 C133.07,-1.31867 131.253,-0.92 129.26,-0.92 C126.991,-0.92 124.928,-1.41833 123.073,-2.415 C121.218,-3.41167 119.761,-4.807 118.703,-6.601 C117.645,-8.395 117.116,-10.4267 117.116,-12.696 C117.116,-14.9653 117.645,-16.9893 118.703,-18.768 C119.761,-20.5467 121.21,-21.9267 123.05,-22.908 C124.89,-23.8893 126.96,-24.38 129.26,-24.38 C131.315,-24.38 133.17,-23.966 134.826,-23.138 C136.482,-22.31 137.816,-21.114 138.828,-19.55 L138.828,-24.196 L141.956,-24.196 M129.582,-3.818 C131.33,-3.818 132.909,-4.19367 134.32,-4.945 C135.731,-5.69633 136.827,-6.74667 137.609,-8.096 C138.391,-9.44533 138.782,-10.9787 138.782,-12.696 C138.782,-14.4133 138.391,-15.939 137.609,-17.273 C136.827,-18.607 135.738,-19.6497 134.343,-20.401 C132.948,-21.1523 131.361,-21.528 129.582,-21.528 C127.834,-21.528 126.262,-21.16 124.867,-20.424 C123.472,-19.688 122.383,-18.6453 121.601,-17.296 C120.819,-15.9467 120.428,-14.4133 120.428,-12.696 C120.428,-10.9787 120.819,-9.44533 121.601,-8.096 C122.383,-6.74667 123.472,-5.69633 124.867,-4.945 C126.262,-4.19367 127.834,-3.818 129.582,-3.818 M161.03,-38.732 L164.02,-38.732 L148.84,4.6 L145.85,4.6 L161.03,-38.732 M166.554,-34.132 L169.82,-34.132 L169.82,0 L166.554,0 L166.554,-34.132" fill-rule="nonzero"/>
  </g>
  <g stroke-linecap="square" font-weight="400" stroke="#000000" stroke-opacity="1" fill="none" stroke-width="1" transform="matrix(0.399627,0,0,0.399627,1206.76,163.664)" font-size="32.5" stroke-linejoin="bevel" font-family="MS Shell Dlg 2" font-style="normal"/>
  <g stroke-linecap="square" font-weight="400" stroke="#000000" stroke-opacity="1" fill="none" stroke-width="1" transform="matrix(0.999067,0,0,0.999067,11.8,0)" font-size="32.5" stroke-linejoin="bevel" font-family="MS Shell Dlg 2" font-style="normal"/>
  <g stroke-linecap="square" font-weight="400" stroke="#000000" stroke-opacity="1" fill="none" stroke-width="1" transform="matrix(11.8,0,0,11.8,11.8,0)" font-size="32.5" stroke-linejoin="bevel" font-family="MS Shell Dlg 2" font-style="normal"/>
  <g stroke-linecap="square" font-weight="400" stroke="#000000" stroke-opacity="1" fill="none" stroke-width="1" transform="matrix(1.18,0,0,1.18,11.8,0)" font-size="42" stroke-linejoin="bevel" font-family="Montserrat" font-style="normal">
   <text font-weight="400" stroke="none" xml:space="preserve" fill="#000000" font-size="42" fill-opacity="1" y="47" x="1170" font-family="Montserrat" font-style="normal">Clorofila-a</text>
  </g>
  <g stroke-linecap="square" font-weight="400" stroke="#000000" stroke-opacity="1" fill="none" stroke-width="1" transform="matrix(11.8,0,0,11.8,11.8,0)" font-size="32.5" stroke-linejoin="bevel" font-family="MS Shell Dlg 2" font-style="normal"/>
  <g stroke-linecap="square" font-weight="400" stroke="#000000" stroke-miterlimit="2" stroke-opacity="1" fill="url(#gradient4)" stroke-width="1" transform="matrix(0.999067,0,0,0.999067,11.8,0)" font-size="32.5" stroke-linejoin="miter" font-family="MS Shell Dlg 2" font-style="normal">
   <rect height="47" vector-effect="non-scaling-stroke" width="448" y="67" x="1381"/>
  </g>
  <g stroke-linecap="square" font-weight="400" stroke="#000000" stroke-opacity="1" fill="none" stroke-width="1" transform="matrix(11.8,0,0,11.8,11.8,0)" font-size="32.5" stroke-linejoin="bevel" font-family="MS Shell Dlg 2" font-style="normal"/>
  <g stroke-linecap="square" font-weight="400" stroke="#000000" stroke-opacity="1" fill="none" stroke-width="1" transform="matrix(0.999067,0,0,0.999067,11.8,0)" font-size="32.5" stroke-linejoin="bevel" font-family="MS Shell Dlg 2" font-style="normal"/>
  <g stroke-linecap="square" font-weight="400" stroke="#000000" stroke-opacity="1" fill="none" stroke-width="1" transform="matrix(0.399627,0,0,0.399627,1392.4,163.664)" font-size="32.5" stroke-linejoin="bevel" font-family="MS Shell Dlg 2" font-style="normal"/>
  <g font-weight="400" stroke="none" fill="#000000" transform="matrix(0.999067,0,0,0.999067,1392.4,163.664)" font-size="32.5" fill-opacity="1" font-family="MS Shell Dlg 2" font-style="normal">
   <path vector-effect="none" d="M15.226,0.276 C12.742,0.276 10.5263,-0.383333 8.579,-1.702 C6.63167,-3.02067 5.11367,-4.91433 4.025,-7.383 C2.93633,-9.85167 2.392,-12.7573 2.392,-16.1 C2.392,-19.4427 2.93633,-22.3483 4.025,-24.817 C5.11367,-27.2857 6.63167,-29.1793 8.579,-30.498 C10.5263,-31.8167 12.742,-32.476 15.226,-32.476 C17.71,-32.476 19.9257,-31.8167 21.873,-30.498 C23.8203,-29.1793 25.346,-27.2857 26.45,-24.817 C27.554,-22.3483 28.106,-19.4427 28.106,-16.1 C28.106,-12.7573 27.554,-9.85167 26.45,-7.383 C25.346,-4.91433 23.8203,-3.02067 21.873,-1.702 C19.9257,-0.383333 17.71,0.276 15.226,0.276 M15.226,-2.76 C17.0967,-2.76 18.745,-3.28133 20.171,-4.324 C21.597,-5.36667 22.7087,-6.88467 23.506,-8.878 C24.3033,-10.8713 24.702,-13.2787 24.702,-16.1 C24.702,-18.9213 24.3033,-21.3287 23.506,-23.322 C22.7087,-25.3153 21.597,-26.8333 20.171,-27.876 C18.745,-28.9187 17.0967,-29.44 15.226,-29.44 C13.3553,-29.44 11.707,-28.9187 10.281,-27.876 C8.855,-26.8333 7.74333,-25.3153 6.946,-23.322 C6.14867,-21.3287 5.75,-18.9213 5.75,-16.1 C5.75,-13.2787 6.14867,-10.8713 6.946,-8.878 C7.74333,-6.88467 8.855,-5.36667 10.281,-4.324 C11.707,-3.28133 13.3553,-2.76 15.226,-2.76 M68.358,-24.196 L68.358,0 L65.23,0 L65.23,-4.416 C64.3713,-2.944 63.1907,-1.80167 61.688,-0.989 C60.1853,-0.176333 58.468,0.23 56.536,0.23 C53.3773,0.23 50.8857,-0.651667 49.061,-2.415 C47.2363,-4.17833 46.324,-6.762 46.324,-10.166 L46.324,-24.196 L49.59,-24.196 L49.59,-10.488 C49.59,-7.94267 50.2187,-6.01067 51.476,-4.692 C52.7333,-3.37333 54.5273,-2.714 56.858,-2.714 C59.4033,-2.714 61.412,-3.48833 62.884,-5.037 C64.356,-6.58567 65.092,-8.74 65.092,-11.5 L65.092,-24.196 L68.358,-24.196 M99.956,-24.196 L99.956,-2.944 C99.956,1.16533 98.9517,4.209 96.943,6.187 C94.9343,8.165 91.906,9.154 87.858,9.154 C85.6193,9.154 83.4957,8.82433 81.487,8.165 C79.4783,7.50567 77.8453,6.59333 76.588,5.428 L78.244,2.944 C79.4093,3.98667 80.8277,4.79933 82.499,5.382 C84.1703,5.96467 85.926,6.256 87.766,6.256 C90.8327,6.256 93.0867,5.543 94.528,4.117 C95.9693,2.691 96.69,0.475333 96.69,-2.53 L96.69,-5.612 C95.678,-4.07867 94.3517,-2.91333 92.711,-2.116 C91.0703,-1.31867 89.2533,-0.92 87.26,-0.92 C84.9907,-0.92 82.9283,-1.41833 81.073,-2.415 C79.2177,-3.41167 77.761,-4.807 76.703,-6.601 C75.645,-8.395 75.116,-10.4267 75.116,-12.696 C75.116,-14.9653 75.645,-16.9893 76.703,-18.768 C77.761,-20.5467 79.21,-21.9267 81.05,-22.908 C82.89,-23.8893 84.96,-24.38 87.26,-24.38 C89.3147,-24.38 91.17,-23.966 92.826,-23.138 C94.482,-22.31 95.816,-21.114 96.828,-19.55 L96.828,-24.196 L99.956,-24.196 M87.582,-3.818 C89.33,-3.818 90.9093,-4.19367 92.32,-4.945 C93.7307,-5.69633 94.827,-6.74667 95.609,-8.096 C96.391,-9.44533 96.782,-10.9787 96.782,-12.696 C96.782,-14.4133 96.391,-15.939 95.609,-17.273 C94.827,-18.607 93.7383,-19.6497 92.343,-20.401 C90.9477,-21.1523 89.3607,-21.528 87.582,-21.528 C85.834,-21.528 84.2623,-21.16 82.867,-20.424 C81.4717,-19.688 80.383,-18.6453 79.601,-17.296 C78.819,-15.9467 78.428,-14.4133 78.428,-12.696 C78.428,-10.9787 78.819,-9.44533 79.601,-8.096 C80.383,-6.74667 81.4717,-5.69633 82.867,-4.945 C84.2623,-4.19367 85.834,-3.818 87.582,-3.818 M119.03,-38.732 L122.02,-38.732 L106.84,4.6 L103.85,4.6 L119.03,-38.732 M151.73,-24.38 C154.766,-24.38 157.15,-23.506 158.883,-21.758 C160.616,-20.01 161.482,-17.434 161.482,-14.03 L161.482,0 L158.216,0 L158.216,-13.708 C158.216,-16.2227 157.61,-18.1393 156.399,-19.458 C155.188,-20.7767 153.478,-21.436 151.27,-21.436 C148.755,-21.436 146.777,-20.6617 145.336,-19.113 C143.895,-17.5643 143.174,-15.4253 143.174,-12.696 L143.174,0 L139.908,0 L139.908,-13.708 C139.908,-16.2227 139.302,-18.1393 138.091,-19.458 C136.88,-20.7767 135.155,-21.436 132.916,-21.436 C130.432,-21.436 128.462,-20.6617 127.005,-19.113 C125.548,-17.5643 124.82,-15.4253 124.82,-12.696 L124.82,0 L121.554,0 L121.554,-24.196 L124.682,-24.196 L124.682,-19.78 C125.541,-21.252 126.737,-22.3867 128.27,-23.184 C129.803,-23.9813 131.567,-24.38 133.56,-24.38 C135.584,-24.38 137.34,-23.9507 138.827,-23.092 C140.314,-22.2333 141.426,-20.9607 142.162,-19.274 C143.051,-20.8687 144.332,-22.1183 146.003,-23.023 C147.674,-23.9277 149.583,-24.38 151.73,-24.38 M170.554,-34.132 L173.82,-34.132 L173.82,0 L170.554,0 L170.554,-34.132" fill-rule="nonzero"/>
  </g>
  <g stroke-linecap="square" font-weight="400" stroke="#000000" stroke-opacity="1" fill="none" stroke-width="1" transform="matrix(0.399627,0,0,0.399627,1392.4,163.664)" font-size="32.5" stroke-linejoin="bevel" font-family="MS Shell Dlg 2" font-style="normal"/>
  <g stroke-linecap="square" font-weight="400" stroke="#000000" stroke-opacity="1" fill="none" stroke-width="1" transform="matrix(0.999067,0,0,0.999067,11.8,0)" font-size="32.5" stroke-linejoin="bevel" font-family="MS Shell Dlg 2" font-style="normal"/>
  <g stroke-linecap="square" font-weight="400" stroke="#000000" stroke-opacity="1" fill="none" stroke-width="1" transform="matrix(0.399627,0,0,0.399627,1675.95,163.664)" font-size="32.5" stroke-linejoin="bevel" font-family="MS Shell Dlg 2" font-style="normal"/>
  <g font-weight="400" stroke="none" fill="#000000" transform="matrix(0.999067,0,0,0.999067,1675.95,163.664)" font-size="32.5" fill-opacity="1" font-family="MS Shell Dlg 2" font-style="normal">
   <path vector-effect="none" d="M11.316,-32.2 L11.316,0 L8.004,0 L8.004,-29.256 L0.414,-29.256 L0.414,-32.2 L11.316,-32.2 M55.358,-24.196 L55.358,0 L52.23,0 L52.23,-4.416 C51.3713,-2.944 50.1907,-1.80167 48.688,-0.989 C47.1853,-0.176333 45.468,0.23 43.536,0.23 C40.3773,0.23 37.8857,-0.651667 36.061,-2.415 C34.2363,-4.17833 33.324,-6.762 33.324,-10.166 L33.324,-24.196 L36.59,-24.196 L36.59,-10.488 C36.59,-7.94267 37.2187,-6.01067 38.476,-4.692 C39.7333,-3.37333 41.5273,-2.714 43.858,-2.714 C46.4033,-2.714 48.412,-3.48833 49.884,-5.037 C51.356,-6.58567 52.092,-8.74 52.092,-11.5 L52.092,-24.196 L55.358,-24.196 M86.956,-24.196 L86.956,-2.944 C86.956,1.16533 85.9517,4.209 83.943,6.187 C81.9343,8.165 78.906,9.154 74.858,9.154 C72.6193,9.154 70.4957,8.82433 68.487,8.165 C66.4783,7.50567 64.8453,6.59333 63.588,5.428 L65.244,2.944 C66.4093,3.98667 67.8277,4.79933 69.499,5.382 C71.1703,5.96467 72.926,6.256 74.766,6.256 C77.8327,6.256 80.0867,5.543 81.528,4.117 C82.9693,2.691 83.69,0.475333 83.69,-2.53 L83.69,-5.612 C82.678,-4.07867 81.3517,-2.91333 79.711,-2.116 C78.0703,-1.31867 76.2533,-0.92 74.26,-0.92 C71.9907,-0.92 69.9283,-1.41833 68.073,-2.415 C66.2177,-3.41167 64.761,-4.807 63.703,-6.601 C62.645,-8.395 62.116,-10.4267 62.116,-12.696 C62.116,-14.9653 62.645,-16.9893 63.703,-18.768 C64.761,-20.5467 66.21,-21.9267 68.05,-22.908 C69.89,-23.8893 71.96,-24.38 74.26,-24.38 C76.3147,-24.38 78.17,-23.966 79.826,-23.138 C81.482,-22.31 82.816,-21.114 83.828,-19.55 L83.828,-24.196 L86.956,-24.196 M74.582,-3.818 C76.33,-3.818 77.9093,-4.19367 79.32,-4.945 C80.7307,-5.69633 81.827,-6.74667 82.609,-8.096 C83.391,-9.44533 83.782,-10.9787 83.782,-12.696 C83.782,-14.4133 83.391,-15.939 82.609,-17.273 C81.827,-18.607 80.7383,-19.6497 79.343,-20.401 C77.9477,-21.1523 76.3607,-21.528 74.582,-21.528 C72.834,-21.528 71.2623,-21.16 69.867,-20.424 C68.4717,-19.688 67.383,-18.6453 66.601,-17.296 C65.819,-15.9467 65.428,-14.4133 65.428,-12.696 C65.428,-10.9787 65.819,-9.44533 66.601,-8.096 C67.383,-6.74667 68.4717,-5.69633 69.867,-4.945 C71.2623,-4.19367 72.834,-3.818 74.582,-3.818 M106.03,-38.732 L109.02,-38.732 L93.84,4.6 L90.85,4.6 L106.03,-38.732 M138.73,-24.38 C141.766,-24.38 144.15,-23.506 145.883,-21.758 C147.616,-20.01 148.482,-17.434 148.482,-14.03 L148.482,0 L145.216,0 L145.216,-13.708 C145.216,-16.2227 144.61,-18.1393 143.399,-19.458 C142.188,-20.7767 140.478,-21.436 138.27,-21.436 C135.755,-21.436 133.777,-20.6617 132.336,-19.113 C130.895,-17.5643 130.174,-15.4253 130.174,-12.696 L130.174,0 L126.908,0 L126.908,-13.708 C126.908,-16.2227 126.302,-18.1393 125.091,-19.458 C123.88,-20.7767 122.155,-21.436 119.916,-21.436 C117.432,-21.436 115.462,-20.6617 114.005,-19.113 C112.548,-17.5643 111.82,-15.4253 111.82,-12.696 L111.82,0 L108.554,0 L108.554,-24.196 L111.682,-24.196 L111.682,-19.78 C112.541,-21.252 113.737,-22.3867 115.27,-23.184 C116.803,-23.9813 118.567,-24.38 120.56,-24.38 C122.584,-24.38 124.34,-23.9507 125.827,-23.092 C127.314,-22.2333 128.426,-20.9607 129.162,-19.274 C130.051,-20.8687 131.332,-22.1183 133.003,-23.023 C134.674,-23.9277 136.583,-24.38 138.73,-24.38 M157.554,-34.132 L160.82,-34.132 L160.82,0 L157.554,0 L157.554,-34.132" fill-rule="nonzero"/>
  </g>
  <g stroke-linecap="square" font-weight="400" stroke="#000000" stroke-opacity="1" fill="none" stroke-width="1" transform="matrix(0.399627,0,0,0.399627,1675.95,163.664)" font-size="32.5" stroke-linejoin="bevel" font-family="MS Shell Dlg 2" font-style="normal"/>
  <g stroke-linecap="square" font-weight="400" stroke="#000000" stroke-opacity="1" fill="none" stroke-width="1" transform="matrix(0.999067,0,0,0.999067,11.8,0)" font-size="32.5" stroke-linejoin="bevel" font-family="MS Shell Dlg 2" font-style="normal"/>
  <g stroke-linecap="square" font-weight="400" stroke="#000000" stroke-opacity="1" fill="none" stroke-width="1" transform="matrix(11.8,0,0,11.8,11.8,0)" font-size="32.5" stroke-linejoin="bevel" font-family="MS Shell Dlg 2" font-style="normal"/>
  <g stroke-linecap="square" font-weight="400" stroke="#000000" stroke-opacity="1" fill="none" stroke-width="1" transform="matrix(0.999067,0,0,0.999067,11.8,0)" font-size="32.5" stroke-linejoin="bevel" font-family="MS Shell Dlg 2" font-style="normal"/>
  <g stroke-linecap="square" font-weight="400" stroke="#000000" stroke-opacity="1" fill="none" stroke-width="1" transform="matrix(11.8,0,0,11.8,11.8,0)" font-size="32.5" stroke-linejoin="bevel" font-family="MS Shell Dlg 2" font-style="normal"/>
  <g stroke-linecap="square" font-weight="400" stroke="#000000" stroke-opacity="1" fill="none" stroke-width="1" transform="matrix(11.8,0,0,11.8,11.8,0)" font-size="32.5" stroke-linejoin="bevel" font-family="MS Shell Dlg 2" font-style="normal"/>
  <g stroke-linecap="square" font-weight="400" stroke="#000000" stroke-opacity="1" fill="none" stroke-width="1" transform="matrix(1,0,0,1,0,0)" font-size="32.5" stroke-linejoin="bevel" font-family="MS Shell Dlg 2" font-style="normal"/>
 </g>
 <metadata>
  <rdf:RDF xmlns:rdf="http://www.w3.org/1999/02/22-rdf-syntax-ns#" xmlns:rdfs="http://www.w3.org/2000/01/rdf-schema#" xmlns:dc="http://purl.org/dc/elements/1.1/">
   <rdf:Description dc:title="" dc:format="image/svg+xml" dc:identifier="" dc:description="" dc:date="2021-12-09T10:37:00">
    <dc:creator>
     <rdf:Bag>
      <rdf:li>INAPESCA</rdf:li>
     </rdf:Bag>
    </dc:creator>
    <dc:publisher>
     <rdf:Bag>
      <rdf:li>QGIS 3.24.0-Tisler</rdf:li>
     </rdf:Bag>
    </dc:publisher>
    <dc:subject>
     <rdf:Bag/>
    </dc:subject>
   </rdf:Description>
   <cc:Work rdf:about="">
    <dc:format>image/svg+xml</dc:format>
    <dc:title></dc:title>
    <dc:date>2021-12-09T10:37:00</dc:date>
    <dc:identifier></dc:identifier>
    <dc:description></dc:description>
    <dc:creator>
     <cc:Agent>
      <dc:title>INAPESCA</dc:title>
     </cc:Agent>
    </dc:creator>
    <dc:publisher>
     <cc:Agent>
      <dc:title>QGIS 3.24.0-Tisler</dc:title>
     </cc:Agent>
    </dc:publisher>
   </cc:Work>
  </rdf:RDF>
 </metadata>
</svg>
