<?xml version='1.0' encoding='UTF-8' standalone='no'?>
<svg width="157.988mm" viewBox="0 0 1866 177" xmlns="http://www.w3.org/2000/svg" xmlns:cc="http://creativecommons.org/ns#" baseProfile="tiny" height="14.986mm" version="1.2" xmlns:xlink="http://www.w3.org/1999/xlink">
 <defs>
  <linearGradient gradientUnits="userSpaceOnUse" y2="0" x1="0" id="gradient1" x2="448.819" y1="0">
   <stop offset="0" stop-opacity="1" stop-color="#00007f"/>
   <stop offset="0.0689655" stop-opacity="1" stop-color="#002da1"/>
   <stop offset="0.137931" stop-opacity="1" stop-color="#005bc4"/>
   <stop offset="0.206897" stop-opacity="1" stop-color="#0088e6"/>
   <stop offset="0.275862" stop-opacity="1" stop-color="#05b0f7"/>
   <stop offset="0.344828" stop-opacity="1" stop-color="#1cc7d5"/>
   <stop offset="0.413793" stop-opacity="1" stop-color="#33ddb2"/>
   <stop offset="0.462069" stop-opacity="1" stop-color="#49f490"/>
   <stop offset="0.551724" stop-opacity="1" stop-color="#6cf46e"/>
   <stop offset="0.62069" stop-opacity="1" stop-color="#99dd4c"/>
   <stop offset="0.689655" stop-opacity="1" stop-color="#c7c72a"/>
   <stop offset="0.758621" stop-opacity="1" stop-color="#f4b008"/>
   <stop offset="0.827586" stop-opacity="1" stop-color="#ee8800"/>
   <stop offset="0.896552" stop-opacity="1" stop-color="#d85b00"/>
   <stop offset="0.965517" stop-opacity="1" stop-color="#c12d00"/>
   <stop offset="1" stop-opacity="1" stop-color="#aa0000"/>
  </linearGradient>
  <linearGradient gradientUnits="userSpaceOnUse" y2="0" x1="460.63" id="gradient2" x2="909.449" y1="0">
   <stop offset="0" stop-opacity="1" stop-color="#814810"/>
   <stop offset="0.166667" stop-opacity="1" stop-color="#a6611a"/>
   <stop offset="0.333333" stop-opacity="1" stop-color="#d6a058"/>
   <stop offset="0.5" stop-opacity="1" stop-color="#f5f5f5"/>
   <stop offset="0.666667" stop-opacity="1" stop-color="#3dffff"/>
   <stop offset="0.833333" stop-opacity="1" stop-color="#2fadad"/>
   <stop offset="1" stop-opacity="1" stop-color="#006f5c"/>
  </linearGradient>
  <linearGradient gradientUnits="userSpaceOnUse" y2="0" x1="921.26" id="gradient3" x2="1370.08" y1="0">
   <stop offset="0" stop-opacity="1" stop-color="#390048"/>
   <stop offset="0.1" stop-opacity="1" stop-color="#482475"/>
   <stop offset="0.2" stop-opacity="1" stop-color="#2718cb"/>
   <stop offset="0.3" stop-opacity="1" stop-color="#00acfc"/>
   <stop offset="0.4" stop-opacity="1" stop-color="#21e6dd"/>
   <stop offset="0.5" stop-opacity="1" stop-color="#01ff89"/>
   <stop offset="0.6" stop-opacity="1" stop-color="#2efe00"/>
   <stop offset="0.7" stop-opacity="1" stop-color="#0c5400"/>
   <stop offset="0.8" stop-opacity="1" stop-color="#64ff45"/>
   <stop offset="0.9" stop-opacity="1" stop-color="#bcdf27"/>
   <stop offset="1" stop-opacity="1" stop-color="#fbff01"/>
  </linearGradient>
  <linearGradient gradientUnits="userSpaceOnUse" y2="0" x1="1381.89" id="gradient4" x2="1830.71" y1="0">
   <stop offset="0" stop-opacity="1" stop-color="#0019a8"/>
   <stop offset="0.0359807" stop-opacity="1" stop-color="#0024ff"/>
   <stop offset="0.0719814" stop-opacity="1" stop-color="#0060ff"/>
   <stop offset="0.107982" stop-opacity="1" stop-color="#0088ff"/>
   <stop offset="0.143983" stop-opacity="1" stop-color="#00ffff"/>
   <stop offset="0.179984" stop-opacity="1" stop-color="#00ffb7"/>
   <stop offset="0.215984" stop-opacity="1" stop-color="#00ff87"/>
   <stop offset="0.251985" stop-opacity="1" stop-color="#00ff57"/>
   <stop offset="0.287986" stop-opacity="1" stop-color="#008000"/>
   <stop offset="0.323986" stop-opacity="1" stop-color="#57ff00"/>
   <stop offset="0.359987" stop-opacity="1" stop-color="#6fff00"/>
   <stop offset="0.395988" stop-opacity="1" stop-color="#87ff00"/>
   <stop offset="0.431989" stop-opacity="1" stop-color="#9fff00"/>
   <stop offset="0.467989" stop-opacity="1" stop-color="#b7ff00"/>
   <stop offset="0.50399" stop-opacity="1" stop-color="#cfff00"/>
   <stop offset="0.539991" stop-opacity="1" stop-color="#e7ff00"/>
   <stop offset="0.575992" stop-opacity="1" stop-color="#ffff00"/>
   <stop offset="0.611992" stop-opacity="1" stop-color="#ffef00"/>
   <stop offset="0.647993" stop-opacity="1" stop-color="#ffdf00"/>
   <stop offset="0.683994" stop-opacity="1" stop-color="#ffcf00"/>
   <stop offset="0.719994" stop-opacity="1" stop-color="#ffbf00"/>
   <stop offset="0.755995" stop-opacity="1" stop-color="#ffaf00"/>
   <stop offset="0.791996" stop-opacity="1" stop-color="#ff7f00"/>
   <stop offset="0.827997" stop-opacity="1" stop-color="#ff5f00"/>
   <stop offset="0.863997" stop-opacity="1" stop-color="#ff3f00"/>
   <stop offset="0.899998" stop-opacity="1" stop-color="#ff2f00"/>
   <stop offset="0.939999" stop-opacity="1" stop-color="#ff1f00"/>
   <stop offset="1" stop-opacity="1" stop-color="#ff1400"/>
  </linearGradient>
 </defs>
 <g stroke="black" stroke-linecap="square" stroke-linejoin="bevel" fill="none" stroke-width="1" fill-rule="evenodd">
  <g font-style="normal" font-family="MS Shell Dlg 2" stroke="#000000" stroke-opacity="1" stroke-linecap="square" transform="matrix(1,0,0,1,0,0)" stroke-linejoin="bevel" font-weight="400" fill="none" font-size="32.5" stroke-width="1"/>
  <g font-style="normal" font-family="MS Shell Dlg 2" stroke="#000000" stroke-opacity="1" stroke-linecap="square" transform="matrix(1,0,0,1,0,0)" stroke-linejoin="bevel" font-weight="400" fill="none" font-size="32.5" stroke-width="1"/>
  <g font-style="normal" font-family="MS Shell Dlg 2" stroke="#000000" stroke-opacity="1" stroke-linecap="square" transform="matrix(11.8,0,0,11.8,0,0)" stroke-linejoin="bevel" font-weight="400" fill="none" font-size="32.5" stroke-width="1"/>
  <g font-style="normal" font-family="MS Shell Dlg 2" stroke="#000000" stroke-opacity="1" stroke-linecap="square" transform="matrix(0.999067,0,0,0.999067,0,0)" stroke-linejoin="bevel" font-weight="400" fill="none" font-size="32.5" stroke-width="1"/>
  <g font-style="normal" font-family="MS Shell Dlg 2" fill-opacity="1" stroke="none" transform="matrix(0.999067,0,0,0.999067,0,0)" font-weight="400" fill="#ffffff" font-size="32.5">
   <path vector-effect="none" d="M-2,-2 L1869,-2 L1869,180 L-2,180 L-2,-2" fill-rule="evenodd"/>
  </g>
  <g font-style="normal" font-family="MS Shell Dlg 2" stroke="#000000" stroke-opacity="1" stroke-linecap="square" transform="matrix(0.999067,0,0,0.999067,0,0)" stroke-linejoin="bevel" font-weight="400" fill="none" font-size="32.5" stroke-width="1"/>
  <g font-style="normal" font-family="MS Shell Dlg 2" stroke="#000000" stroke-opacity="1" stroke-linecap="square" transform="matrix(11.8,0,0,11.8,0,0)" stroke-linejoin="bevel" font-weight="400" fill="none" font-size="32.5" stroke-width="1"/>
  <g font-style="normal" font-family="MS Shell Dlg 2" stroke="#000000" stroke-opacity="1" stroke-linecap="square" transform="matrix(11.8,0,0,11.8,0,0)" stroke-linejoin="bevel" font-weight="400" fill="none" font-size="32.5" stroke-width="1"/>
  <g font-style="normal" font-family="MS Shell Dlg 2" stroke="#000000" stroke-opacity="1" stroke-linecap="square" transform="matrix(11.8,0,0,11.8,0,0)" stroke-linejoin="bevel" font-weight="400" fill="none" font-size="32.5" stroke-width="1"/>
  <g font-style="normal" font-family="MS Shell Dlg 2" stroke="#000000" stroke-opacity="1" stroke-linecap="square" transform="matrix(11.8,0,0,11.8,0,0)" stroke-linejoin="bevel" font-weight="400" fill="none" font-size="32.5" stroke-width="1"/>
  <g font-style="normal" font-family="MS Shell Dlg 2" stroke="#000000" stroke-opacity="1" stroke-linecap="square" transform="matrix(11.8,0,0,11.8,11.8,0)" stroke-linejoin="bevel" font-weight="400" fill="none" font-size="32.5" stroke-width="1"/>
  <g font-style="normal" font-family="MS Shell Dlg 2" stroke="#000000" stroke-opacity="1" stroke-linecap="square" transform="matrix(11.8,0,0,11.8,11.8,0)" stroke-linejoin="bevel" font-weight="400" fill="none" font-size="32.5" stroke-width="1"/>
  <g font-style="normal" font-family="MS Shell Dlg 2" fill-opacity="1" stroke="none" transform="matrix(11.8,0,0,11.8,11.8,0)" font-weight="400" fill="#ffffff" font-size="32.5">
   <path vector-effect="none" d="M0,0 L157,0 L157,15.034 L0,15.034 L0,0" fill-rule="evenodd"/>
  </g>
  <g font-style="normal" font-family="MS Shell Dlg 2" stroke="#000000" stroke-opacity="1" stroke-linecap="square" transform="matrix(11.8,0,0,11.8,11.8,0)" stroke-linejoin="bevel" font-weight="400" fill="none" font-size="32.5" stroke-width="1"/>
  <g font-style="normal" font-family="MS Shell Dlg 2" stroke="#000000" stroke-opacity="1" stroke-linecap="square" transform="matrix(0.999067,0,0,0.999067,11.8,0)" stroke-linejoin="bevel" font-weight="400" fill="none" font-size="32.5" stroke-width="1"/>
  <g font-style="normal" font-family="MS Shell Dlg 2" stroke="#000000" stroke-opacity="1" stroke-linecap="square" transform="matrix(11.8,0,0,11.8,11.8,0)" stroke-linejoin="bevel" font-weight="400" fill="none" font-size="32.5" stroke-width="1"/>
  <g font-style="normal" font-family="Montserrat" stroke="#000000" stroke-opacity="1" stroke-linecap="square" transform="matrix(1.18,0,0,1.18,11.8,0)" stroke-linejoin="bevel" font-weight="400" fill="none" font-size="42" stroke-width="1">
   <text font-style="normal" font-family="Montserrat" fill-opacity="1" stroke="none" xml:space="preserve" font-weight="400" fill="#000000" x="0" font-size="42" y="47">Temperatura</text>
  </g>
  <g font-style="normal" font-family="MS Shell Dlg 2" stroke="#000000" stroke-opacity="1" stroke-linecap="square" transform="matrix(11.8,0,0,11.8,11.8,0)" stroke-linejoin="bevel" font-weight="400" fill="none" font-size="32.5" stroke-width="1"/>
  <g font-style="normal" font-family="MS Shell Dlg 2" stroke="#000000" stroke-miterlimit="2" stroke-opacity="1" stroke-linecap="square" transform="matrix(0.999067,0,0,0.999067,11.8,0)" stroke-linejoin="miter" font-weight="400" fill="url(#gradient1)" font-size="32.5" stroke-width="1">
   <rect width="448" vector-effect="non-scaling-stroke" x="0" height="47" y="67"/>
  </g>
  <g font-style="normal" font-family="MS Shell Dlg 2" stroke="#000000" stroke-opacity="1" stroke-linecap="square" transform="matrix(11.8,0,0,11.8,11.8,0)" stroke-linejoin="bevel" font-weight="400" fill="none" font-size="32.5" stroke-width="1"/>
  <g font-style="normal" font-family="MS Shell Dlg 2" stroke="#000000" stroke-opacity="1" stroke-linecap="square" transform="matrix(0.999067,0,0,0.999067,11.8,0)" stroke-linejoin="bevel" font-weight="400" fill="none" font-size="32.5" stroke-width="1"/>
  <g font-style="normal" font-family="MS Shell Dlg 2" stroke="#000000" stroke-opacity="1" stroke-linecap="square" transform="matrix(0.399627,0,0,0.399627,11.8,163.664)" stroke-linejoin="bevel" font-weight="400" fill="none" font-size="32.5" stroke-width="1"/>
  <g font-style="normal" font-family="MS Shell Dlg 2" fill-opacity="1" stroke="none" transform="matrix(0.999067,0,0,0.999067,11.8,163.664)" font-weight="400" fill="#000000" font-size="32.5">
   <path vector-effect="none" d="M11.316,-32.2 L11.316,0 L8.004,0 L8.004,-29.256 L0.414,-29.256 L0.414,-32.2 L11.316,-32.2 M30.34,-18.4 C33.7133,-18.216 36.2817,-17.3037 38.045,-15.663 C39.8083,-14.0223 40.69,-11.8833 40.69,-9.246 C40.69,-7.406 40.2453,-5.773 39.356,-4.347 C38.4667,-2.921 37.148,-1.794 35.4,-0.966 C33.652,-0.138 31.5207,0.276 29.006,0.276 C26.6753,0.276 24.475,-0.0996667 22.405,-0.851 C20.335,-1.60233 18.6713,-2.60667 17.414,-3.864 L19.024,-6.486 C20.0973,-5.382 21.5233,-4.485 23.302,-3.795 C25.0807,-3.105 26.982,-2.76 29.006,-2.76 C31.6433,-2.76 33.6827,-3.335 35.124,-4.485 C36.5653,-5.635 37.286,-7.222 37.286,-9.246 C37.286,-11.2393 36.5653,-12.8033 35.124,-13.938 C33.6827,-15.0727 31.5053,-15.64 28.592,-15.64 L26.292,-15.64 L26.292,-18.078 L35.216,-29.256 L18.748,-29.256 L18.748,-32.2 L39.448,-32.2 L39.448,-29.854 L30.34,-18.4 M47.876,0.23 C47.2013,0.23 46.6263,-0.0153333 46.151,-0.506 C45.6757,-0.996667 45.438,-1.59467 45.438,-2.3 C45.438,-3.00533 45.6757,-3.59567 46.151,-4.071 C46.6263,-4.54633 47.2013,-4.784 47.876,-4.784 C48.5507,-4.784 49.1333,-4.54633 49.624,-4.071 C50.1147,-3.59567 50.36,-3.00533 50.36,-2.3 C50.36,-1.59467 50.1147,-0.996667 49.624,-0.506 C49.1333,-0.0153333 48.5507,0.23 47.876,0.23 M63.856,-18.998 C68.5173,-18.998 71.9137,-18.1623 74.045,-16.491 C76.1763,-14.8197 77.242,-12.4813 77.242,-9.476 C77.242,-7.60533 76.805,-5.934 75.931,-4.462 C75.057,-2.99 73.746,-1.83233 71.998,-0.989 C70.25,-0.145667 68.1033,0.276 65.558,0.276 C63.258,0.276 61.073,-0.0996667 59.003,-0.851 C56.933,-1.60233 55.2693,-2.60667 54.012,-3.864 L55.622,-6.486 C56.6953,-5.382 58.106,-4.485 59.854,-3.795 C61.602,-3.105 63.488,-2.76 65.512,-2.76 C68.18,-2.76 70.2423,-3.358 71.699,-4.554 C73.1557,-5.75 73.884,-7.34467 73.884,-9.338 C73.884,-11.546 73.0637,-13.2173 71.423,-14.352 C69.7823,-15.4867 67.0147,-16.054 63.12,-16.054 L56.266,-16.054 L57.922,-32.2 L75.54,-32.2 L75.54,-29.256 L60.82,-29.256 L59.716,-18.998 L63.856,-18.998 M100.614,-17.848 C99.2647,-17.848 98.0303,-18.17 96.911,-18.814 C95.7917,-19.458 94.91,-20.3397 94.266,-21.459 C93.622,-22.5783 93.3,-23.8127 93.3,-25.162 C93.3,-26.4807 93.622,-27.6997 94.266,-28.819 C94.91,-29.9383 95.7917,-30.82 96.911,-31.464 C98.0303,-32.108 99.2647,-32.43 100.614,-32.43 C101.963,-32.43 103.205,-32.108 104.34,-31.464 C105.475,-30.82 106.364,-29.9383 107.008,-28.819 C107.652,-27.6997 107.974,-26.4807 107.974,-25.162 C107.974,-23.8127 107.652,-22.5783 107.008,-21.459 C106.364,-20.3397 105.475,-19.458 104.34,-18.814 C103.205,-18.17 101.963,-17.848 100.614,-17.848 M100.614,-19.78 C102.117,-19.78 103.382,-20.2937 104.409,-21.321 C105.436,-22.3483 105.95,-23.6287 105.95,-25.162 C105.95,-26.6647 105.436,-27.9297 104.409,-28.957 C103.382,-29.9843 102.117,-30.498 100.614,-30.498 C99.1113,-30.498 97.854,-29.9843 96.842,-28.957 C95.83,-27.9297 95.324,-26.6647 95.324,-25.162 C95.324,-23.6287 95.83,-22.3483 96.842,-21.321 C97.854,-20.2937 99.1113,-19.78 100.614,-19.78 M129.228,0.276 C126.039,0.276 123.164,-0.429333 120.603,-1.84 C118.042,-3.25067 116.034,-5.20567 114.577,-7.705 C113.12,-10.2043 112.392,-13.0027 112.392,-16.1 C112.392,-19.1973 113.12,-21.9957 114.577,-24.495 C116.034,-26.9943 118.05,-28.9493 120.626,-30.36 C123.202,-31.7707 126.085,-32.476 129.274,-32.476 C131.666,-32.476 133.874,-32.0773 135.898,-31.28 C137.922,-30.4827 139.639,-29.3173 141.05,-27.784 L138.888,-25.622 C136.373,-28.1673 133.199,-29.44 129.366,-29.44 C126.821,-29.44 124.505,-28.8573 122.42,-27.692 C120.335,-26.5267 118.702,-24.932 117.521,-22.908 C116.34,-20.884 115.75,-18.6147 115.75,-16.1 C115.75,-13.5853 116.34,-11.316 117.521,-9.292 C118.702,-7.268 120.335,-5.67333 122.42,-4.508 C124.505,-3.34267 126.821,-2.76 129.366,-2.76 C133.23,-2.76 136.404,-4.048 138.888,-6.624 L141.05,-4.462 C139.639,-2.92867 137.914,-1.75567 135.875,-0.943 C133.836,-0.130333 131.62,0.276 129.228,0.276 " fill-rule="nonzero"/>
  </g>
  <g font-style="normal" font-family="MS Shell Dlg 2" stroke="#000000" stroke-opacity="1" stroke-linecap="square" transform="matrix(0.399627,0,0,0.399627,11.8,163.664)" stroke-linejoin="bevel" font-weight="400" fill="none" font-size="32.5" stroke-width="1"/>
  <g font-style="normal" font-family="MS Shell Dlg 2" stroke="#000000" stroke-opacity="1" stroke-linecap="square" transform="matrix(0.999067,0,0,0.999067,11.8,0)" stroke-linejoin="bevel" font-weight="400" fill="none" font-size="32.5" stroke-width="1"/>
  <g font-style="normal" font-family="MS Shell Dlg 2" stroke="#000000" stroke-opacity="1" stroke-linecap="square" transform="matrix(0.399627,0,0,0.399627,341.311,163.664)" stroke-linejoin="bevel" font-weight="400" fill="none" font-size="32.5" stroke-width="1"/>
  <g font-style="normal" font-family="MS Shell Dlg 2" fill-opacity="1" stroke="none" transform="matrix(0.999067,0,0,0.999067,341.311,163.664)" font-weight="400" fill="#000000" font-size="32.5">
   <path vector-effect="none" d="M24.38,-2.944 L24.38,0 L1.794,0 L1.794,-2.346 L15.18,-15.456 C16.8667,-17.112 18.009,-18.5457 18.607,-19.757 C19.205,-20.9683 19.504,-22.1873 19.504,-23.414 C19.504,-25.3153 18.8523,-26.795 17.549,-27.853 C16.2457,-28.911 14.3827,-29.44 11.96,-29.44 C8.188,-29.44 5.25933,-28.244 3.174,-25.852 L0.828,-27.876 C2.08533,-29.348 3.68767,-30.4827 5.635,-31.28 C7.58233,-32.0773 9.78267,-32.476 12.236,-32.476 C15.5173,-32.476 18.1163,-31.7017 20.033,-30.153 C21.9497,-28.6043 22.908,-26.4807 22.908,-23.782 C22.908,-22.126 22.54,-20.5313 21.804,-18.998 C21.068,-17.4647 19.6727,-15.7013 17.618,-13.708 L6.67,-2.944 L24.38,-2.944 M46.838,-16.882 C48.862,-16.2073 50.4183,-15.1953 51.507,-13.846 C52.5957,-12.4967 53.14,-10.8713 53.14,-8.97 C53.14,-7.09933 52.634,-5.46633 51.622,-4.071 C50.61,-2.67567 49.161,-1.60233 47.275,-0.851 C45.389,-0.0996667 43.1733,0.276 40.628,0.276 C36.764,0.276 33.728,-0.552 31.52,-2.208 C29.312,-3.864 28.208,-6.118 28.208,-8.97 C28.208,-10.902 28.737,-12.535 29.795,-13.869 C30.853,-15.203 32.394,-16.2073 34.418,-16.882 C32.762,-17.526 31.5047,-18.4537 30.646,-19.665 C29.7873,-20.8763 29.358,-22.31 29.358,-23.966 C29.358,-26.5727 30.3777,-28.6427 32.417,-30.176 C34.4563,-31.7093 37.1933,-32.476 40.628,-32.476 C42.8973,-32.476 44.883,-32.131 46.585,-31.441 C48.287,-30.751 49.6133,-29.762 50.564,-28.474 C51.5147,-27.186 51.99,-25.6833 51.99,-23.966 C51.99,-22.31 51.5453,-20.8763 50.656,-19.665 C49.7667,-18.4537 48.494,-17.526 46.838,-16.882 M32.67,-23.874 C32.67,-22.0953 33.3753,-20.6847 34.786,-19.642 C36.1967,-18.5993 38.144,-18.078 40.628,-18.078 C43.112,-18.078 45.067,-18.5993 46.493,-19.642 C47.919,-20.6847 48.632,-22.08 48.632,-23.828 C48.632,-25.6373 47.9037,-27.0633 46.447,-28.106 C44.9903,-29.1487 43.0507,-29.67 40.628,-29.67 C38.1747,-29.67 36.235,-29.1487 34.809,-28.106 C33.383,-27.0633 32.67,-25.6527 32.67,-23.874 M40.628,-2.53 C43.48,-2.53 45.711,-3.11267 47.321,-4.278 C48.931,-5.44333 49.736,-7.02267 49.736,-9.016 C49.736,-11.0093 48.931,-12.581 47.321,-13.731 C45.711,-14.881 43.48,-15.456 40.628,-15.456 C37.8067,-15.456 35.591,-14.881 33.981,-13.731 C32.371,-12.581 31.566,-11.0093 31.566,-9.016 C31.566,-6.992 32.3633,-5.405 33.958,-4.255 C35.5527,-3.105 37.776,-2.53 40.628,-2.53 M76.614,-17.848 C75.2647,-17.848 74.0303,-18.17 72.911,-18.814 C71.7917,-19.458 70.91,-20.3397 70.266,-21.459 C69.622,-22.5783 69.3,-23.8127 69.3,-25.162 C69.3,-26.4807 69.622,-27.6997 70.266,-28.819 C70.91,-29.9383 71.7917,-30.82 72.911,-31.464 C74.0303,-32.108 75.2647,-32.43 76.614,-32.43 C77.9633,-32.43 79.2053,-32.108 80.34,-31.464 C81.4747,-30.82 82.364,-29.9383 83.008,-28.819 C83.652,-27.6997 83.974,-26.4807 83.974,-25.162 C83.974,-23.8127 83.652,-22.5783 83.008,-21.459 C82.364,-20.3397 81.4747,-19.458 80.34,-18.814 C79.2053,-18.17 77.9633,-17.848 76.614,-17.848 M76.614,-19.78 C78.1167,-19.78 79.3817,-20.2937 80.409,-21.321 C81.4363,-22.3483 81.95,-23.6287 81.95,-25.162 C81.95,-26.6647 81.4363,-27.9297 80.409,-28.957 C79.3817,-29.9843 78.1167,-30.498 76.614,-30.498 C75.1113,-30.498 73.854,-29.9843 72.842,-28.957 C71.83,-27.9297 71.324,-26.6647 71.324,-25.162 C71.324,-23.6287 71.83,-22.3483 72.842,-21.321 C73.854,-20.2937 75.1113,-19.78 76.614,-19.78 M105.228,0.276 C102.039,0.276 99.1637,-0.429333 96.603,-1.84 C94.0423,-3.25067 92.0337,-5.20567 90.577,-7.705 C89.1203,-10.2043 88.392,-13.0027 88.392,-16.1 C88.392,-19.1973 89.1203,-21.9957 90.577,-24.495 C92.0337,-26.9943 94.05,-28.9493 96.626,-30.36 C99.202,-31.7707 102.085,-32.476 105.274,-32.476 C107.666,-32.476 109.874,-32.0773 111.898,-31.28 C113.922,-30.4827 115.639,-29.3173 117.05,-27.784 L114.888,-25.622 C112.373,-28.1673 109.199,-29.44 105.366,-29.44 C102.821,-29.44 100.505,-28.8573 98.42,-27.692 C96.3347,-26.5267 94.7017,-24.932 93.521,-22.908 C92.3403,-20.884 91.75,-18.6147 91.75,-16.1 C91.75,-13.5853 92.3403,-11.316 93.521,-9.292 C94.7017,-7.268 96.3347,-5.67333 98.42,-4.508 C100.505,-3.34267 102.821,-2.76 105.366,-2.76 C109.23,-2.76 112.404,-4.048 114.888,-6.624 L117.05,-4.462 C115.639,-2.92867 113.914,-1.75567 111.875,-0.943 C109.836,-0.130333 107.62,0.276 105.228,0.276 " fill-rule="nonzero"/>
  </g>
  <g font-style="normal" font-family="MS Shell Dlg 2" stroke="#000000" stroke-opacity="1" stroke-linecap="square" transform="matrix(0.399627,0,0,0.399627,341.311,163.664)" stroke-linejoin="bevel" font-weight="400" fill="none" font-size="32.5" stroke-width="1"/>
  <g font-style="normal" font-family="MS Shell Dlg 2" stroke="#000000" stroke-opacity="1" stroke-linecap="square" transform="matrix(0.999067,0,0,0.999067,11.8,0)" stroke-linejoin="bevel" font-weight="400" fill="none" font-size="32.5" stroke-width="1"/>
  <g font-style="normal" font-family="MS Shell Dlg 2" stroke="#000000" stroke-opacity="1" stroke-linecap="square" transform="matrix(11.8,0,0,11.8,11.8,0)" stroke-linejoin="bevel" font-weight="400" fill="none" font-size="32.5" stroke-width="1"/>
  <g font-style="normal" font-family="Montserrat" stroke="#000000" stroke-opacity="1" stroke-linecap="square" transform="matrix(1.18,0,0,1.18,11.8,0)" stroke-linejoin="bevel" font-weight="400" fill="none" font-size="42" stroke-width="1">
   <text font-style="normal" font-family="Montserrat" fill-opacity="1" stroke="none" xml:space="preserve" font-weight="400" fill="#000000" x="390" font-size="42" y="47">Salinidad</text>
  </g>
  <g font-style="normal" font-family="MS Shell Dlg 2" stroke="#000000" stroke-opacity="1" stroke-linecap="square" transform="matrix(11.8,0,0,11.8,11.8,0)" stroke-linejoin="bevel" font-weight="400" fill="none" font-size="32.5" stroke-width="1"/>
  <g font-style="normal" font-family="MS Shell Dlg 2" stroke="#000000" stroke-miterlimit="2" stroke-opacity="1" stroke-linecap="square" transform="matrix(0.999067,0,0,0.999067,11.8,0)" stroke-linejoin="miter" font-weight="400" fill="url(#gradient2)" font-size="32.5" stroke-width="1">
   <rect width="448" vector-effect="non-scaling-stroke" x="460" height="47" y="67"/>
  </g>
  <g font-style="normal" font-family="MS Shell Dlg 2" stroke="#000000" stroke-opacity="1" stroke-linecap="square" transform="matrix(11.8,0,0,11.8,11.8,0)" stroke-linejoin="bevel" font-weight="400" fill="none" font-size="32.5" stroke-width="1"/>
  <g font-style="normal" font-family="MS Shell Dlg 2" stroke="#000000" stroke-opacity="1" stroke-linecap="square" transform="matrix(0.999067,0,0,0.999067,11.8,0)" stroke-linejoin="bevel" font-weight="400" fill="none" font-size="32.5" stroke-width="1"/>
  <g font-style="normal" font-family="MS Shell Dlg 2" stroke="#000000" stroke-opacity="1" stroke-linecap="square" transform="matrix(0.399627,0,0,0.399627,472,163.664)" stroke-linejoin="bevel" font-weight="400" fill="none" font-size="32.5" stroke-width="1"/>
  <g font-style="normal" font-family="MS Shell Dlg 2" fill-opacity="1" stroke="none" transform="matrix(0.999067,0,0,0.999067,472,163.664)" font-weight="400" fill="#000000" font-size="32.5">
   <path vector-effect="none" d="M13.34,-18.4 C16.7133,-18.216 19.2817,-17.3037 21.045,-15.663 C22.8083,-14.0223 23.69,-11.8833 23.69,-9.246 C23.69,-7.406 23.2453,-5.773 22.356,-4.347 C21.4667,-2.921 20.148,-1.794 18.4,-0.966 C16.652,-0.138 14.5207,0.276 12.006,0.276 C9.67533,0.276 7.475,-0.0996667 5.405,-0.851 C3.335,-1.60233 1.67133,-2.60667 0.414,-3.864 L2.024,-6.486 C3.09733,-5.382 4.52333,-4.485 6.302,-3.795 C8.08067,-3.105 9.982,-2.76 12.006,-2.76 C14.6433,-2.76 16.6827,-3.335 18.124,-4.485 C19.5653,-5.635 20.286,-7.222 20.286,-9.246 C20.286,-11.2393 19.5653,-12.8033 18.124,-13.938 C16.6827,-15.0727 14.5053,-15.64 11.592,-15.64 L9.292,-15.64 L9.292,-18.078 L18.216,-29.256 L1.748,-29.256 L1.748,-32.2 L22.448,-32.2 L22.448,-29.854 L13.34,-18.4 M50.38,-2.944 L50.38,0 L27.794,0 L27.794,-2.346 L41.18,-15.456 C42.8667,-17.112 44.009,-18.5457 44.607,-19.757 C45.205,-20.9683 45.504,-22.1873 45.504,-23.414 C45.504,-25.3153 44.8523,-26.795 43.549,-27.853 C42.2457,-28.911 40.3827,-29.44 37.96,-29.44 C34.188,-29.44 31.2593,-28.244 29.174,-25.852 L26.828,-27.876 C28.0853,-29.348 29.6877,-30.4827 31.635,-31.28 C33.5823,-32.0773 35.7827,-32.476 38.236,-32.476 C41.5173,-32.476 44.1163,-31.7017 46.033,-30.153 C47.9497,-28.6043 48.908,-26.4807 48.908,-23.782 C48.908,-22.126 48.54,-20.5313 47.804,-18.998 C47.068,-17.4647 45.6727,-15.7013 43.618,-13.708 L32.67,-2.944 L50.38,-2.944 M56.876,0.23 C56.2013,0.23 55.6263,-0.0153333 55.151,-0.506 C54.6757,-0.996667 54.438,-1.59467 54.438,-2.3 C54.438,-3.00533 54.6757,-3.59567 55.151,-4.071 C55.6263,-4.54633 56.2013,-4.784 56.876,-4.784 C57.5507,-4.784 58.1333,-4.54633 58.624,-4.071 C59.1147,-3.59567 59.36,-3.00533 59.36,-2.3 C59.36,-1.59467 59.1147,-0.996667 58.624,-0.506 C58.1333,-0.0153333 57.5507,0.23 56.876,0.23 M72.856,-18.998 C77.5173,-18.998 80.9137,-18.1623 83.045,-16.491 C85.1763,-14.8197 86.242,-12.4813 86.242,-9.476 C86.242,-7.60533 85.805,-5.934 84.931,-4.462 C84.057,-2.99 82.746,-1.83233 80.998,-0.989 C79.25,-0.145667 77.1033,0.276 74.558,0.276 C72.258,0.276 70.073,-0.0996667 68.003,-0.851 C65.933,-1.60233 64.2693,-2.60667 63.012,-3.864 L64.622,-6.486 C65.6953,-5.382 67.106,-4.485 68.854,-3.795 C70.602,-3.105 72.488,-2.76 74.512,-2.76 C77.18,-2.76 79.2423,-3.358 80.699,-4.554 C82.1557,-5.75 82.884,-7.34467 82.884,-9.338 C82.884,-11.546 82.0637,-13.2173 80.423,-14.352 C78.7823,-15.4867 76.0147,-16.054 72.12,-16.054 L65.266,-16.054 L66.922,-32.2 L84.54,-32.2 L84.54,-29.256 L69.82,-29.256 L68.716,-18.998 L72.856,-18.998 M118.216,0.276 C114.045,0.276 110.795,-0.92 108.464,-3.312 C106.133,-5.704 104.968,-9.18467 104.968,-13.754 L104.968,-32.2 L108.372,-32.2 L108.372,-13.892 C108.372,-10.1507 109.215,-7.36 110.902,-5.52 C112.589,-3.68 115.027,-2.76 118.216,-2.76 C121.436,-2.76 123.889,-3.68 125.576,-5.52 C127.263,-7.36 128.106,-10.1507 128.106,-13.892 L128.106,-32.2 L131.418,-32.2 L131.418,-13.754 C131.418,-9.18467 130.26,-5.704 127.945,-3.312 C125.63,-0.92 122.387,0.276 118.216,0.276 M153.296,-32.2 C157.405,-32.2 160.625,-31.2187 162.956,-29.256 C165.287,-27.2933 166.452,-24.5947 166.452,-21.16 C166.452,-17.7253 165.287,-15.0343 162.956,-13.087 C160.625,-11.1397 157.405,-10.166 153.296,-10.166 L144.648,-10.166 L144.648,0 L141.244,0 L141.244,-32.2 L153.296,-32.2 M153.204,-13.156 C156.393,-13.156 158.831,-13.8537 160.518,-15.249 C162.205,-16.6443 163.048,-18.6147 163.048,-21.16 C163.048,-23.7667 162.205,-25.7677 160.518,-27.163 C158.831,-28.5583 156.393,-29.256 153.204,-29.256 L144.648,-29.256 L144.648,-13.156 L153.204,-13.156 M183.122,0.276 C180.73,0.276 178.438,-0.107333 176.245,-0.874 C174.052,-1.64067 172.358,-2.65267 171.162,-3.91 L172.496,-6.532 C173.661,-5.36667 175.21,-4.42367 177.142,-3.703 C179.074,-2.98233 181.067,-2.622 183.122,-2.622 C186.005,-2.622 188.167,-3.151 189.608,-4.209 C191.049,-5.267 191.77,-6.63933 191.77,-8.326 C191.77,-9.614 191.379,-10.6413 190.597,-11.408 C189.815,-12.1747 188.857,-12.765 187.722,-13.179 C186.587,-13.593 185.008,-14.0453 182.984,-14.536 C180.561,-15.1493 178.629,-15.7397 177.188,-16.307 C175.747,-16.8743 174.512,-17.7407 173.485,-18.906 C172.458,-20.0713 171.944,-21.6507 171.944,-23.644 C171.944,-25.2693 172.373,-26.749 173.232,-28.083 C174.091,-29.417 175.409,-30.4827 177.188,-31.28 C178.967,-32.0773 181.175,-32.476 183.812,-32.476 C185.652,-32.476 187.454,-32.223 189.217,-31.717 C190.98,-31.211 192.506,-30.5133 193.794,-29.624 L192.644,-26.91 C191.295,-27.7993 189.853,-28.4663 188.32,-28.911 C186.787,-29.3557 185.284,-29.578 183.812,-29.578 C180.991,-29.578 178.867,-29.0337 177.441,-27.945 C176.015,-26.8563 175.302,-25.4533 175.302,-23.736 C175.302,-22.448 175.693,-21.413 176.475,-20.631 C177.257,-19.849 178.238,-19.251 179.419,-18.837 C180.6,-18.423 182.187,-17.9707 184.18,-17.48 C186.541,-16.8973 188.45,-16.3223 189.907,-15.755 C191.364,-15.1877 192.598,-14.329 193.61,-13.179 C194.622,-12.029 195.128,-10.4727 195.128,-8.51 C195.128,-6.88467 194.691,-5.405 193.817,-4.071 C192.943,-2.737 191.601,-1.679 189.792,-0.897 C187.983,-0.115 185.759,0.276 183.122,0.276 " fill-rule="nonzero"/>
  </g>
  <g font-style="normal" font-family="MS Shell Dlg 2" stroke="#000000" stroke-opacity="1" stroke-linecap="square" transform="matrix(0.399627,0,0,0.399627,472,163.664)" stroke-linejoin="bevel" font-weight="400" fill="none" font-size="32.5" stroke-width="1"/>
  <g font-style="normal" font-family="MS Shell Dlg 2" stroke="#000000" stroke-opacity="1" stroke-linecap="square" transform="matrix(0.999067,0,0,0.999067,11.8,0)" stroke-linejoin="bevel" font-weight="400" fill="none" font-size="32.5" stroke-width="1"/>
  <g font-style="normal" font-family="MS Shell Dlg 2" stroke="#000000" stroke-opacity="1" stroke-linecap="square" transform="matrix(0.399627,0,0,0.399627,723.584,163.664)" stroke-linejoin="bevel" font-weight="400" fill="none" font-size="32.5" stroke-width="1"/>
  <g font-style="normal" font-family="MS Shell Dlg 2" fill-opacity="1" stroke="none" transform="matrix(0.999067,0,0,0.999067,723.584,163.664)" font-weight="400" fill="#000000" font-size="32.5">
   <path vector-effect="none" d="M13.34,-18.4 C16.7133,-18.216 19.2817,-17.3037 21.045,-15.663 C22.8083,-14.0223 23.69,-11.8833 23.69,-9.246 C23.69,-7.406 23.2453,-5.773 22.356,-4.347 C21.4667,-2.921 20.148,-1.794 18.4,-0.966 C16.652,-0.138 14.5207,0.276 12.006,0.276 C9.67533,0.276 7.475,-0.0996667 5.405,-0.851 C3.335,-1.60233 1.67133,-2.60667 0.414,-3.864 L2.024,-6.486 C3.09733,-5.382 4.52333,-4.485 6.302,-3.795 C8.08067,-3.105 9.982,-2.76 12.006,-2.76 C14.6433,-2.76 16.6827,-3.335 18.124,-4.485 C19.5653,-5.635 20.286,-7.222 20.286,-9.246 C20.286,-11.2393 19.5653,-12.8033 18.124,-13.938 C16.6827,-15.0727 14.5053,-15.64 11.592,-15.64 L9.292,-15.64 L9.292,-18.078 L18.216,-29.256 L1.748,-29.256 L1.748,-32.2 L22.448,-32.2 L22.448,-29.854 L13.34,-18.4 M36.856,-18.998 C41.5173,-18.998 44.9137,-18.1623 47.045,-16.491 C49.1763,-14.8197 50.242,-12.4813 50.242,-9.476 C50.242,-7.60533 49.805,-5.934 48.931,-4.462 C48.057,-2.99 46.746,-1.83233 44.998,-0.989 C43.25,-0.145667 41.1033,0.276 38.558,0.276 C36.258,0.276 34.073,-0.0996667 32.003,-0.851 C29.933,-1.60233 28.2693,-2.60667 27.012,-3.864 L28.622,-6.486 C29.6953,-5.382 31.106,-4.485 32.854,-3.795 C34.602,-3.105 36.488,-2.76 38.512,-2.76 C41.18,-2.76 43.2423,-3.358 44.699,-4.554 C46.1557,-5.75 46.884,-7.34467 46.884,-9.338 C46.884,-11.546 46.0637,-13.2173 44.423,-14.352 C42.7823,-15.4867 40.0147,-16.054 36.12,-16.054 L29.266,-16.054 L30.922,-32.2 L48.54,-32.2 L48.54,-29.256 L33.82,-29.256 L32.716,-18.998 L36.856,-18.998 M56.876,0.23 C56.2013,0.23 55.6263,-0.0153333 55.151,-0.506 C54.6757,-0.996667 54.438,-1.59467 54.438,-2.3 C54.438,-3.00533 54.6757,-3.59567 55.151,-4.071 C55.6263,-4.54633 56.2013,-4.784 56.876,-4.784 C57.5507,-4.784 58.1333,-4.54633 58.624,-4.071 C59.1147,-3.59567 59.36,-3.00533 59.36,-2.3 C59.36,-1.59467 59.1147,-0.996667 58.624,-0.506 C58.1333,-0.0153333 57.5507,0.23 56.876,0.23 M72.856,-18.998 C77.5173,-18.998 80.9137,-18.1623 83.045,-16.491 C85.1763,-14.8197 86.242,-12.4813 86.242,-9.476 C86.242,-7.60533 85.805,-5.934 84.931,-4.462 C84.057,-2.99 82.746,-1.83233 80.998,-0.989 C79.25,-0.145667 77.1033,0.276 74.558,0.276 C72.258,0.276 70.073,-0.0996667 68.003,-0.851 C65.933,-1.60233 64.2693,-2.60667 63.012,-3.864 L64.622,-6.486 C65.6953,-5.382 67.106,-4.485 68.854,-3.795 C70.602,-3.105 72.488,-2.76 74.512,-2.76 C77.18,-2.76 79.2423,-3.358 80.699,-4.554 C82.1557,-5.75 82.884,-7.34467 82.884,-9.338 C82.884,-11.546 82.0637,-13.2173 80.423,-14.352 C78.7823,-15.4867 76.0147,-16.054 72.12,-16.054 L65.266,-16.054 L66.922,-32.2 L84.54,-32.2 L84.54,-29.256 L69.82,-29.256 L68.716,-18.998 L72.856,-18.998 M118.216,0.276 C114.045,0.276 110.795,-0.92 108.464,-3.312 C106.133,-5.704 104.968,-9.18467 104.968,-13.754 L104.968,-32.2 L108.372,-32.2 L108.372,-13.892 C108.372,-10.1507 109.215,-7.36 110.902,-5.52 C112.589,-3.68 115.027,-2.76 118.216,-2.76 C121.436,-2.76 123.889,-3.68 125.576,-5.52 C127.263,-7.36 128.106,-10.1507 128.106,-13.892 L128.106,-32.2 L131.418,-32.2 L131.418,-13.754 C131.418,-9.18467 130.26,-5.704 127.945,-3.312 C125.63,-0.92 122.387,0.276 118.216,0.276 M153.296,-32.2 C157.405,-32.2 160.625,-31.2187 162.956,-29.256 C165.287,-27.2933 166.452,-24.5947 166.452,-21.16 C166.452,-17.7253 165.287,-15.0343 162.956,-13.087 C160.625,-11.1397 157.405,-10.166 153.296,-10.166 L144.648,-10.166 L144.648,0 L141.244,0 L141.244,-32.2 L153.296,-32.2 M153.204,-13.156 C156.393,-13.156 158.831,-13.8537 160.518,-15.249 C162.205,-16.6443 163.048,-18.6147 163.048,-21.16 C163.048,-23.7667 162.205,-25.7677 160.518,-27.163 C158.831,-28.5583 156.393,-29.256 153.204,-29.256 L144.648,-29.256 L144.648,-13.156 L153.204,-13.156 M183.122,0.276 C180.73,0.276 178.438,-0.107333 176.245,-0.874 C174.052,-1.64067 172.358,-2.65267 171.162,-3.91 L172.496,-6.532 C173.661,-5.36667 175.21,-4.42367 177.142,-3.703 C179.074,-2.98233 181.067,-2.622 183.122,-2.622 C186.005,-2.622 188.167,-3.151 189.608,-4.209 C191.049,-5.267 191.77,-6.63933 191.77,-8.326 C191.77,-9.614 191.379,-10.6413 190.597,-11.408 C189.815,-12.1747 188.857,-12.765 187.722,-13.179 C186.587,-13.593 185.008,-14.0453 182.984,-14.536 C180.561,-15.1493 178.629,-15.7397 177.188,-16.307 C175.747,-16.8743 174.512,-17.7407 173.485,-18.906 C172.458,-20.0713 171.944,-21.6507 171.944,-23.644 C171.944,-25.2693 172.373,-26.749 173.232,-28.083 C174.091,-29.417 175.409,-30.4827 177.188,-31.28 C178.967,-32.0773 181.175,-32.476 183.812,-32.476 C185.652,-32.476 187.454,-32.223 189.217,-31.717 C190.98,-31.211 192.506,-30.5133 193.794,-29.624 L192.644,-26.91 C191.295,-27.7993 189.853,-28.4663 188.32,-28.911 C186.787,-29.3557 185.284,-29.578 183.812,-29.578 C180.991,-29.578 178.867,-29.0337 177.441,-27.945 C176.015,-26.8563 175.302,-25.4533 175.302,-23.736 C175.302,-22.448 175.693,-21.413 176.475,-20.631 C177.257,-19.849 178.238,-19.251 179.419,-18.837 C180.6,-18.423 182.187,-17.9707 184.18,-17.48 C186.541,-16.8973 188.45,-16.3223 189.907,-15.755 C191.364,-15.1877 192.598,-14.329 193.61,-13.179 C194.622,-12.029 195.128,-10.4727 195.128,-8.51 C195.128,-6.88467 194.691,-5.405 193.817,-4.071 C192.943,-2.737 191.601,-1.679 189.792,-0.897 C187.983,-0.115 185.759,0.276 183.122,0.276 " fill-rule="nonzero"/>
  </g>
  <g font-style="normal" font-family="MS Shell Dlg 2" stroke="#000000" stroke-opacity="1" stroke-linecap="square" transform="matrix(0.399627,0,0,0.399627,723.584,163.664)" stroke-linejoin="bevel" font-weight="400" fill="none" font-size="32.5" stroke-width="1"/>
  <g font-style="normal" font-family="MS Shell Dlg 2" stroke="#000000" stroke-opacity="1" stroke-linecap="square" transform="matrix(0.999067,0,0,0.999067,11.8,0)" stroke-linejoin="bevel" font-weight="400" fill="none" font-size="32.5" stroke-width="1"/>
  <g font-style="normal" font-family="MS Shell Dlg 2" stroke="#000000" stroke-opacity="1" stroke-linecap="square" transform="matrix(11.8,0,0,11.8,11.8,0)" stroke-linejoin="bevel" font-weight="400" fill="none" font-size="32.5" stroke-width="1"/>
  <g font-style="normal" font-family="Montserrat" stroke="#000000" stroke-opacity="1" stroke-linecap="square" transform="matrix(1.18,0,0,1.18,11.8,0)" stroke-linejoin="bevel" font-weight="400" fill="none" font-size="42" stroke-width="1">
   <text font-style="normal" font-family="Montserrat" fill-opacity="1" stroke="none" xml:space="preserve" font-weight="400" fill="#000000" x="780" font-size="42" y="47">Oxígeno</text>
  </g>
  <g font-style="normal" font-family="MS Shell Dlg 2" stroke="#000000" stroke-opacity="1" stroke-linecap="square" transform="matrix(11.8,0,0,11.8,11.8,0)" stroke-linejoin="bevel" font-weight="400" fill="none" font-size="32.5" stroke-width="1"/>
  <g font-style="normal" font-family="MS Shell Dlg 2" stroke="#000000" stroke-miterlimit="2" stroke-opacity="1" stroke-linecap="square" transform="matrix(0.999067,0,0,0.999067,11.8,0)" stroke-linejoin="miter" font-weight="400" fill="url(#gradient3)" font-size="32.5" stroke-width="1">
   <rect width="448" vector-effect="non-scaling-stroke" x="921" height="47" y="67"/>
  </g>
  <g font-style="normal" font-family="MS Shell Dlg 2" stroke="#000000" stroke-opacity="1" stroke-linecap="square" transform="matrix(11.8,0,0,11.8,11.8,0)" stroke-linejoin="bevel" font-weight="400" fill="none" font-size="32.5" stroke-width="1"/>
  <g font-style="normal" font-family="MS Shell Dlg 2" stroke="#000000" stroke-opacity="1" stroke-linecap="square" transform="matrix(0.999067,0,0,0.999067,11.8,0)" stroke-linejoin="bevel" font-weight="400" fill="none" font-size="32.5" stroke-width="1"/>
  <g font-style="normal" font-family="MS Shell Dlg 2" stroke="#000000" stroke-opacity="1" stroke-linecap="square" transform="matrix(0.399627,0,0,0.399627,932.2,163.664)" stroke-linejoin="bevel" font-weight="400" fill="none" font-size="32.5" stroke-width="1"/>
  <g font-style="normal" font-family="MS Shell Dlg 2" fill-opacity="1" stroke="none" transform="matrix(0.999067,0,0,0.999067,932.2,163.664)" font-weight="400" fill="#000000" font-size="32.5">
   <path vector-effect="none" d="M24.38,-2.944 L24.38,0 L1.794,0 L1.794,-2.346 L15.18,-15.456 C16.8667,-17.112 18.009,-18.5457 18.607,-19.757 C19.205,-20.9683 19.504,-22.1873 19.504,-23.414 C19.504,-25.3153 18.8523,-26.795 17.549,-27.853 C16.2457,-28.911 14.3827,-29.44 11.96,-29.44 C8.188,-29.44 5.25933,-28.244 3.174,-25.852 L0.828,-27.876 C2.08533,-29.348 3.68767,-30.4827 5.635,-31.28 C7.58233,-32.0773 9.78267,-32.476 12.236,-32.476 C15.5173,-32.476 18.1163,-31.7017 20.033,-30.153 C21.9497,-28.6043 22.908,-26.4807 22.908,-23.782 C22.908,-22.126 22.54,-20.5313 21.804,-18.998 C21.068,-17.4647 19.6727,-15.7013 17.618,-13.708 L6.67,-2.944 L24.38,-2.944 M30.876,0.23 C30.2013,0.23 29.6263,-0.0153333 29.151,-0.506 C28.6757,-0.996667 28.438,-1.59467 28.438,-2.3 C28.438,-3.00533 28.6757,-3.59567 29.151,-4.071 C29.6263,-4.54633 30.2013,-4.784 30.876,-4.784 C31.5507,-4.784 32.1333,-4.54633 32.624,-4.071 C33.1147,-3.59567 33.36,-3.00533 33.36,-2.3 C33.36,-1.59467 33.1147,-0.996667 32.624,-0.506 C32.1333,-0.0153333 31.5507,0.23 30.876,0.23 M46.856,-18.998 C51.5173,-18.998 54.9137,-18.1623 57.045,-16.491 C59.1763,-14.8197 60.242,-12.4813 60.242,-9.476 C60.242,-7.60533 59.805,-5.934 58.931,-4.462 C58.057,-2.99 56.746,-1.83233 54.998,-0.989 C53.25,-0.145667 51.1033,0.276 48.558,0.276 C46.258,0.276 44.073,-0.0996667 42.003,-0.851 C39.933,-1.60233 38.2693,-2.60667 37.012,-3.864 L38.622,-6.486 C39.6953,-5.382 41.106,-4.485 42.854,-3.795 C44.602,-3.105 46.488,-2.76 48.512,-2.76 C51.18,-2.76 53.2423,-3.358 54.699,-4.554 C56.1557,-5.75 56.884,-7.34467 56.884,-9.338 C56.884,-11.546 56.0637,-13.2173 54.423,-14.352 C52.7823,-15.4867 50.0147,-16.054 46.12,-16.054 L39.266,-16.054 L40.922,-32.2 L58.54,-32.2 L58.54,-29.256 L43.82,-29.256 L42.716,-18.998 L46.856,-18.998 M108.73,-24.38 C111.766,-24.38 114.15,-23.506 115.883,-21.758 C117.616,-20.01 118.482,-17.434 118.482,-14.03 L118.482,0 L115.216,0 L115.216,-13.708 C115.216,-16.2227 114.61,-18.1393 113.399,-19.458 C112.188,-20.7767 110.478,-21.436 108.27,-21.436 C105.755,-21.436 103.777,-20.6617 102.336,-19.113 C100.895,-17.5643 100.174,-15.4253 100.174,-12.696 L100.174,0 L96.908,0 L96.908,-13.708 C96.908,-16.2227 96.3023,-18.1393 95.091,-19.458 C93.8797,-20.7767 92.1547,-21.436 89.916,-21.436 C87.432,-21.436 85.4617,-20.6617 84.005,-19.113 C82.5483,-17.5643 81.82,-15.4253 81.82,-12.696 L81.82,0 L78.554,0 L78.554,-24.196 L81.682,-24.196 L81.682,-19.78 C82.5407,-21.252 83.7367,-22.3867 85.27,-23.184 C86.8033,-23.9813 88.5667,-24.38 90.56,-24.38 C92.584,-24.38 94.3397,-23.9507 95.827,-23.092 C97.3143,-22.2333 98.426,-20.9607 99.162,-19.274 C100.051,-20.8687 101.332,-22.1183 103.003,-23.023 C104.674,-23.9277 106.583,-24.38 108.73,-24.38 M149.956,-24.196 L149.956,-2.944 C149.956,1.16533 148.952,4.209 146.943,6.187 C144.934,8.165 141.906,9.154 137.858,9.154 C135.619,9.154 133.496,8.82433 131.487,8.165 C129.478,7.50567 127.845,6.59333 126.588,5.428 L128.244,2.944 C129.409,3.98667 130.828,4.79933 132.499,5.382 C134.17,5.96467 135.926,6.256 137.766,6.256 C140.833,6.256 143.087,5.543 144.528,4.117 C145.969,2.691 146.69,0.475333 146.69,-2.53 L146.69,-5.612 C145.678,-4.07867 144.352,-2.91333 142.711,-2.116 C141.07,-1.31867 139.253,-0.92 137.26,-0.92 C134.991,-0.92 132.928,-1.41833 131.073,-2.415 C129.218,-3.41167 127.761,-4.807 126.703,-6.601 C125.645,-8.395 125.116,-10.4267 125.116,-12.696 C125.116,-14.9653 125.645,-16.9893 126.703,-18.768 C127.761,-20.5467 129.21,-21.9267 131.05,-22.908 C132.89,-23.8893 134.96,-24.38 137.26,-24.38 C139.315,-24.38 141.17,-23.966 142.826,-23.138 C144.482,-22.31 145.816,-21.114 146.828,-19.55 L146.828,-24.196 L149.956,-24.196 M137.582,-3.818 C139.33,-3.818 140.909,-4.19367 142.32,-4.945 C143.731,-5.69633 144.827,-6.74667 145.609,-8.096 C146.391,-9.44533 146.782,-10.9787 146.782,-12.696 C146.782,-14.4133 146.391,-15.939 145.609,-17.273 C144.827,-18.607 143.738,-19.6497 142.343,-20.401 C140.948,-21.1523 139.361,-21.528 137.582,-21.528 C135.834,-21.528 134.262,-21.16 132.867,-20.424 C131.472,-19.688 130.383,-18.6453 129.601,-17.296 C128.819,-15.9467 128.428,-14.4133 128.428,-12.696 C128.428,-10.9787 128.819,-9.44533 129.601,-8.096 C130.383,-6.74667 131.472,-5.69633 132.867,-4.945 C134.262,-4.19367 135.834,-3.818 137.582,-3.818 M169.03,-38.732 L172.02,-38.732 L156.84,4.6 L153.85,4.6 L169.03,-38.732 M174.554,-34.132 L177.82,-34.132 L177.82,0 L174.554,0 L174.554,-34.132" fill-rule="nonzero"/>
  </g>
  <g font-style="normal" font-family="MS Shell Dlg 2" stroke="#000000" stroke-opacity="1" stroke-linecap="square" transform="matrix(0.399627,0,0,0.399627,932.2,163.664)" stroke-linejoin="bevel" font-weight="400" fill="none" font-size="32.5" stroke-width="1"/>
  <g font-style="normal" font-family="MS Shell Dlg 2" stroke="#000000" stroke-opacity="1" stroke-linecap="square" transform="matrix(0.999067,0,0,0.999067,11.8,0)" stroke-linejoin="bevel" font-weight="400" fill="none" font-size="32.5" stroke-width="1"/>
  <g font-style="normal" font-family="MS Shell Dlg 2" stroke="#000000" stroke-opacity="1" stroke-linecap="square" transform="matrix(0.399627,0,0,0.399627,1181.79,163.664)" stroke-linejoin="bevel" font-weight="400" fill="none" font-size="32.5" stroke-width="1"/>
  <g font-style="normal" font-family="MS Shell Dlg 2" fill-opacity="1" stroke="none" transform="matrix(0.999067,0,0,0.999067,1181.79,163.664)" font-weight="400" fill="#000000" font-size="32.5">
   <path vector-effect="none" d="M11.316,-32.2 L11.316,0 L8.004,0 L8.004,-29.256 L0.414,-29.256 L0.414,-32.2 L11.316,-32.2 M41.38,-2.944 L41.38,0 L18.794,0 L18.794,-2.346 L32.18,-15.456 C33.8667,-17.112 35.009,-18.5457 35.607,-19.757 C36.205,-20.9683 36.504,-22.1873 36.504,-23.414 C36.504,-25.3153 35.8523,-26.795 34.549,-27.853 C33.2457,-28.911 31.3827,-29.44 28.96,-29.44 C25.188,-29.44 22.2593,-28.244 20.174,-25.852 L17.828,-27.876 C19.0853,-29.348 20.6877,-30.4827 22.635,-31.28 C24.5823,-32.0773 26.7827,-32.476 29.236,-32.476 C32.5173,-32.476 35.1163,-31.7017 37.033,-30.153 C38.9497,-28.6043 39.908,-26.4807 39.908,-23.782 C39.908,-22.126 39.54,-20.5313 38.804,-18.998 C38.068,-17.4647 36.6727,-15.7013 34.618,-13.708 L23.67,-2.944 L41.38,-2.944 M47.876,0.23 C47.2013,0.23 46.6263,-0.0153333 46.151,-0.506 C45.6757,-0.996667 45.438,-1.59467 45.438,-2.3 C45.438,-3.00533 45.6757,-3.59567 46.151,-4.071 C46.6263,-4.54633 47.2013,-4.784 47.876,-4.784 C48.5507,-4.784 49.1333,-4.54633 49.624,-4.071 C50.1147,-3.59567 50.36,-3.00533 50.36,-2.3 C50.36,-1.59467 50.1147,-0.996667 49.624,-0.506 C49.1333,-0.0153333 48.5507,0.23 47.876,0.23 M63.856,-18.998 C68.5173,-18.998 71.9137,-18.1623 74.045,-16.491 C76.1763,-14.8197 77.242,-12.4813 77.242,-9.476 C77.242,-7.60533 76.805,-5.934 75.931,-4.462 C75.057,-2.99 73.746,-1.83233 71.998,-0.989 C70.25,-0.145667 68.1033,0.276 65.558,0.276 C63.258,0.276 61.073,-0.0996667 59.003,-0.851 C56.933,-1.60233 55.2693,-2.60667 54.012,-3.864 L55.622,-6.486 C56.6953,-5.382 58.106,-4.485 59.854,-3.795 C61.602,-3.105 63.488,-2.76 65.512,-2.76 C68.18,-2.76 70.2423,-3.358 71.699,-4.554 C73.1557,-5.75 73.884,-7.34467 73.884,-9.338 C73.884,-11.546 73.0637,-13.2173 71.423,-14.352 C69.7823,-15.4867 67.0147,-16.054 63.12,-16.054 L56.266,-16.054 L57.922,-32.2 L75.54,-32.2 L75.54,-29.256 L60.82,-29.256 L59.716,-18.998 L63.856,-18.998 M125.73,-24.38 C128.766,-24.38 131.15,-23.506 132.883,-21.758 C134.616,-20.01 135.482,-17.434 135.482,-14.03 L135.482,0 L132.216,0 L132.216,-13.708 C132.216,-16.2227 131.61,-18.1393 130.399,-19.458 C129.188,-20.7767 127.478,-21.436 125.27,-21.436 C122.755,-21.436 120.777,-20.6617 119.336,-19.113 C117.895,-17.5643 117.174,-15.4253 117.174,-12.696 L117.174,0 L113.908,0 L113.908,-13.708 C113.908,-16.2227 113.302,-18.1393 112.091,-19.458 C110.88,-20.7767 109.155,-21.436 106.916,-21.436 C104.432,-21.436 102.462,-20.6617 101.005,-19.113 C99.5483,-17.5643 98.82,-15.4253 98.82,-12.696 L98.82,0 L95.554,0 L95.554,-24.196 L98.682,-24.196 L98.682,-19.78 C99.5407,-21.252 100.737,-22.3867 102.27,-23.184 C103.803,-23.9813 105.567,-24.38 107.56,-24.38 C109.584,-24.38 111.34,-23.9507 112.827,-23.092 C114.314,-22.2333 115.426,-20.9607 116.162,-19.274 C117.051,-20.8687 118.332,-22.1183 120.003,-23.023 C121.674,-23.9277 123.583,-24.38 125.73,-24.38 M166.956,-24.196 L166.956,-2.944 C166.956,1.16533 165.952,4.209 163.943,6.187 C161.934,8.165 158.906,9.154 154.858,9.154 C152.619,9.154 150.496,8.82433 148.487,8.165 C146.478,7.50567 144.845,6.59333 143.588,5.428 L145.244,2.944 C146.409,3.98667 147.828,4.79933 149.499,5.382 C151.17,5.96467 152.926,6.256 154.766,6.256 C157.833,6.256 160.087,5.543 161.528,4.117 C162.969,2.691 163.69,0.475333 163.69,-2.53 L163.69,-5.612 C162.678,-4.07867 161.352,-2.91333 159.711,-2.116 C158.07,-1.31867 156.253,-0.92 154.26,-0.92 C151.991,-0.92 149.928,-1.41833 148.073,-2.415 C146.218,-3.41167 144.761,-4.807 143.703,-6.601 C142.645,-8.395 142.116,-10.4267 142.116,-12.696 C142.116,-14.9653 142.645,-16.9893 143.703,-18.768 C144.761,-20.5467 146.21,-21.9267 148.05,-22.908 C149.89,-23.8893 151.96,-24.38 154.26,-24.38 C156.315,-24.38 158.17,-23.966 159.826,-23.138 C161.482,-22.31 162.816,-21.114 163.828,-19.55 L163.828,-24.196 L166.956,-24.196 M154.582,-3.818 C156.33,-3.818 157.909,-4.19367 159.32,-4.945 C160.731,-5.69633 161.827,-6.74667 162.609,-8.096 C163.391,-9.44533 163.782,-10.9787 163.782,-12.696 C163.782,-14.4133 163.391,-15.939 162.609,-17.273 C161.827,-18.607 160.738,-19.6497 159.343,-20.401 C157.948,-21.1523 156.361,-21.528 154.582,-21.528 C152.834,-21.528 151.262,-21.16 149.867,-20.424 C148.472,-19.688 147.383,-18.6453 146.601,-17.296 C145.819,-15.9467 145.428,-14.4133 145.428,-12.696 C145.428,-10.9787 145.819,-9.44533 146.601,-8.096 C147.383,-6.74667 148.472,-5.69633 149.867,-4.945 C151.262,-4.19367 152.834,-3.818 154.582,-3.818 M186.03,-38.732 L189.02,-38.732 L173.84,4.6 L170.85,4.6 L186.03,-38.732 M191.554,-34.132 L194.82,-34.132 L194.82,0 L191.554,0 L191.554,-34.132" fill-rule="nonzero"/>
  </g>
  <g font-style="normal" font-family="MS Shell Dlg 2" stroke="#000000" stroke-opacity="1" stroke-linecap="square" transform="matrix(0.399627,0,0,0.399627,1181.79,163.664)" stroke-linejoin="bevel" font-weight="400" fill="none" font-size="32.5" stroke-width="1"/>
  <g font-style="normal" font-family="MS Shell Dlg 2" stroke="#000000" stroke-opacity="1" stroke-linecap="square" transform="matrix(0.999067,0,0,0.999067,11.8,0)" stroke-linejoin="bevel" font-weight="400" fill="none" font-size="32.5" stroke-width="1"/>
  <g font-style="normal" font-family="MS Shell Dlg 2" stroke="#000000" stroke-opacity="1" stroke-linecap="square" transform="matrix(11.8,0,0,11.8,11.8,0)" stroke-linejoin="bevel" font-weight="400" fill="none" font-size="32.5" stroke-width="1"/>
  <g font-style="normal" font-family="Montserrat" stroke="#000000" stroke-opacity="1" stroke-linecap="square" transform="matrix(1.18,0,0,1.18,11.8,0)" stroke-linejoin="bevel" font-weight="400" fill="none" font-size="42" stroke-width="1">
   <text font-style="normal" font-family="Montserrat" fill-opacity="1" stroke="none" xml:space="preserve" font-weight="400" fill="#000000" x="1170" font-size="42" y="47">Clorofila-a</text>
  </g>
  <g font-style="normal" font-family="MS Shell Dlg 2" stroke="#000000" stroke-opacity="1" stroke-linecap="square" transform="matrix(11.8,0,0,11.8,11.8,0)" stroke-linejoin="bevel" font-weight="400" fill="none" font-size="32.5" stroke-width="1"/>
  <g font-style="normal" font-family="MS Shell Dlg 2" stroke="#000000" stroke-miterlimit="2" stroke-opacity="1" stroke-linecap="square" transform="matrix(0.999067,0,0,0.999067,11.8,0)" stroke-linejoin="miter" font-weight="400" fill="url(#gradient4)" font-size="32.5" stroke-width="1">
   <rect width="448" vector-effect="non-scaling-stroke" x="1381" height="47" y="67"/>
  </g>
  <g font-style="normal" font-family="MS Shell Dlg 2" stroke="#000000" stroke-opacity="1" stroke-linecap="square" transform="matrix(11.8,0,0,11.8,11.8,0)" stroke-linejoin="bevel" font-weight="400" fill="none" font-size="32.5" stroke-width="1"/>
  <g font-style="normal" font-family="MS Shell Dlg 2" stroke="#000000" stroke-opacity="1" stroke-linecap="square" transform="matrix(0.999067,0,0,0.999067,11.8,0)" stroke-linejoin="bevel" font-weight="400" fill="none" font-size="32.5" stroke-width="1"/>
  <g font-style="normal" font-family="MS Shell Dlg 2" stroke="#000000" stroke-opacity="1" stroke-linecap="square" transform="matrix(0.399627,0,0,0.399627,1392.4,163.664)" stroke-linejoin="bevel" font-weight="400" fill="none" font-size="32.5" stroke-width="1"/>
  <g font-style="normal" font-family="MS Shell Dlg 2" fill-opacity="1" stroke="none" transform="matrix(0.999067,0,0,0.999067,1392.4,163.664)" font-weight="400" fill="#000000" font-size="32.5">
   <path vector-effect="none" d="M15.226,0.276 C12.742,0.276 10.5263,-0.383333 8.579,-1.702 C6.63167,-3.02067 5.11367,-4.91433 4.025,-7.383 C2.93633,-9.85167 2.392,-12.7573 2.392,-16.1 C2.392,-19.4427 2.93633,-22.3483 4.025,-24.817 C5.11367,-27.2857 6.63167,-29.1793 8.579,-30.498 C10.5263,-31.8167 12.742,-32.476 15.226,-32.476 C17.71,-32.476 19.9257,-31.8167 21.873,-30.498 C23.8203,-29.1793 25.346,-27.2857 26.45,-24.817 C27.554,-22.3483 28.106,-19.4427 28.106,-16.1 C28.106,-12.7573 27.554,-9.85167 26.45,-7.383 C25.346,-4.91433 23.8203,-3.02067 21.873,-1.702 C19.9257,-0.383333 17.71,0.276 15.226,0.276 M15.226,-2.76 C17.0967,-2.76 18.745,-3.28133 20.171,-4.324 C21.597,-5.36667 22.7087,-6.88467 23.506,-8.878 C24.3033,-10.8713 24.702,-13.2787 24.702,-16.1 C24.702,-18.9213 24.3033,-21.3287 23.506,-23.322 C22.7087,-25.3153 21.597,-26.8333 20.171,-27.876 C18.745,-28.9187 17.0967,-29.44 15.226,-29.44 C13.3553,-29.44 11.707,-28.9187 10.281,-27.876 C8.855,-26.8333 7.74333,-25.3153 6.946,-23.322 C6.14867,-21.3287 5.75,-18.9213 5.75,-16.1 C5.75,-13.2787 6.14867,-10.8713 6.946,-8.878 C7.74333,-6.88467 8.855,-5.36667 10.281,-4.324 C11.707,-3.28133 13.3553,-2.76 15.226,-2.76 M68.358,-24.196 L68.358,0 L65.23,0 L65.23,-4.416 C64.3713,-2.944 63.1907,-1.80167 61.688,-0.989 C60.1853,-0.176333 58.468,0.23 56.536,0.23 C53.3773,0.23 50.8857,-0.651667 49.061,-2.415 C47.2363,-4.17833 46.324,-6.762 46.324,-10.166 L46.324,-24.196 L49.59,-24.196 L49.59,-10.488 C49.59,-7.94267 50.2187,-6.01067 51.476,-4.692 C52.7333,-3.37333 54.5273,-2.714 56.858,-2.714 C59.4033,-2.714 61.412,-3.48833 62.884,-5.037 C64.356,-6.58567 65.092,-8.74 65.092,-11.5 L65.092,-24.196 L68.358,-24.196 M99.956,-24.196 L99.956,-2.944 C99.956,1.16533 98.9517,4.209 96.943,6.187 C94.9343,8.165 91.906,9.154 87.858,9.154 C85.6193,9.154 83.4957,8.82433 81.487,8.165 C79.4783,7.50567 77.8453,6.59333 76.588,5.428 L78.244,2.944 C79.4093,3.98667 80.8277,4.79933 82.499,5.382 C84.1703,5.96467 85.926,6.256 87.766,6.256 C90.8327,6.256 93.0867,5.543 94.528,4.117 C95.9693,2.691 96.69,0.475333 96.69,-2.53 L96.69,-5.612 C95.678,-4.07867 94.3517,-2.91333 92.711,-2.116 C91.0703,-1.31867 89.2533,-0.92 87.26,-0.92 C84.9907,-0.92 82.9283,-1.41833 81.073,-2.415 C79.2177,-3.41167 77.761,-4.807 76.703,-6.601 C75.645,-8.395 75.116,-10.4267 75.116,-12.696 C75.116,-14.9653 75.645,-16.9893 76.703,-18.768 C77.761,-20.5467 79.21,-21.9267 81.05,-22.908 C82.89,-23.8893 84.96,-24.38 87.26,-24.38 C89.3147,-24.38 91.17,-23.966 92.826,-23.138 C94.482,-22.31 95.816,-21.114 96.828,-19.55 L96.828,-24.196 L99.956,-24.196 M87.582,-3.818 C89.33,-3.818 90.9093,-4.19367 92.32,-4.945 C93.7307,-5.69633 94.827,-6.74667 95.609,-8.096 C96.391,-9.44533 96.782,-10.9787 96.782,-12.696 C96.782,-14.4133 96.391,-15.939 95.609,-17.273 C94.827,-18.607 93.7383,-19.6497 92.343,-20.401 C90.9477,-21.1523 89.3607,-21.528 87.582,-21.528 C85.834,-21.528 84.2623,-21.16 82.867,-20.424 C81.4717,-19.688 80.383,-18.6453 79.601,-17.296 C78.819,-15.9467 78.428,-14.4133 78.428,-12.696 C78.428,-10.9787 78.819,-9.44533 79.601,-8.096 C80.383,-6.74667 81.4717,-5.69633 82.867,-4.945 C84.2623,-4.19367 85.834,-3.818 87.582,-3.818 M119.03,-38.732 L122.02,-38.732 L106.84,4.6 L103.85,4.6 L119.03,-38.732 M151.73,-24.38 C154.766,-24.38 157.15,-23.506 158.883,-21.758 C160.616,-20.01 161.482,-17.434 161.482,-14.03 L161.482,0 L158.216,0 L158.216,-13.708 C158.216,-16.2227 157.61,-18.1393 156.399,-19.458 C155.188,-20.7767 153.478,-21.436 151.27,-21.436 C148.755,-21.436 146.777,-20.6617 145.336,-19.113 C143.895,-17.5643 143.174,-15.4253 143.174,-12.696 L143.174,0 L139.908,0 L139.908,-13.708 C139.908,-16.2227 139.302,-18.1393 138.091,-19.458 C136.88,-20.7767 135.155,-21.436 132.916,-21.436 C130.432,-21.436 128.462,-20.6617 127.005,-19.113 C125.548,-17.5643 124.82,-15.4253 124.82,-12.696 L124.82,0 L121.554,0 L121.554,-24.196 L124.682,-24.196 L124.682,-19.78 C125.541,-21.252 126.737,-22.3867 128.27,-23.184 C129.803,-23.9813 131.567,-24.38 133.56,-24.38 C135.584,-24.38 137.34,-23.9507 138.827,-23.092 C140.314,-22.2333 141.426,-20.9607 142.162,-19.274 C143.051,-20.8687 144.332,-22.1183 146.003,-23.023 C147.674,-23.9277 149.583,-24.38 151.73,-24.38 M170.554,-34.132 L173.82,-34.132 L173.82,0 L170.554,0 L170.554,-34.132" fill-rule="nonzero"/>
  </g>
  <g font-style="normal" font-family="MS Shell Dlg 2" stroke="#000000" stroke-opacity="1" stroke-linecap="square" transform="matrix(0.399627,0,0,0.399627,1392.4,163.664)" stroke-linejoin="bevel" font-weight="400" fill="none" font-size="32.5" stroke-width="1"/>
  <g font-style="normal" font-family="MS Shell Dlg 2" stroke="#000000" stroke-opacity="1" stroke-linecap="square" transform="matrix(0.999067,0,0,0.999067,11.8,0)" stroke-linejoin="bevel" font-weight="400" fill="none" font-size="32.5" stroke-width="1"/>
  <g font-style="normal" font-family="MS Shell Dlg 2" stroke="#000000" stroke-opacity="1" stroke-linecap="square" transform="matrix(0.399627,0,0,0.399627,1627,163.664)" stroke-linejoin="bevel" font-weight="400" fill="none" font-size="32.5" stroke-width="1"/>
  <g font-style="normal" font-family="MS Shell Dlg 2" fill-opacity="1" stroke="none" transform="matrix(0.999067,0,0,0.999067,1627,163.664)" font-weight="400" fill="#000000" font-size="32.5">
   <path vector-effect="none" d="M15.226,0.276 C12.742,0.276 10.5263,-0.383333 8.579,-1.702 C6.63167,-3.02067 5.11367,-4.91433 4.025,-7.383 C2.93633,-9.85167 2.392,-12.7573 2.392,-16.1 C2.392,-19.4427 2.93633,-22.3483 4.025,-24.817 C5.11367,-27.2857 6.63167,-29.1793 8.579,-30.498 C10.5263,-31.8167 12.742,-32.476 15.226,-32.476 C17.71,-32.476 19.9257,-31.8167 21.873,-30.498 C23.8203,-29.1793 25.346,-27.2857 26.45,-24.817 C27.554,-22.3483 28.106,-19.4427 28.106,-16.1 C28.106,-12.7573 27.554,-9.85167 26.45,-7.383 C25.346,-4.91433 23.8203,-3.02067 21.873,-1.702 C19.9257,-0.383333 17.71,0.276 15.226,0.276 M15.226,-2.76 C17.0967,-2.76 18.745,-3.28133 20.171,-4.324 C21.597,-5.36667 22.7087,-6.88467 23.506,-8.878 C24.3033,-10.8713 24.702,-13.2787 24.702,-16.1 C24.702,-18.9213 24.3033,-21.3287 23.506,-23.322 C22.7087,-25.3153 21.597,-26.8333 20.171,-27.876 C18.745,-28.9187 17.0967,-29.44 15.226,-29.44 C13.3553,-29.44 11.707,-28.9187 10.281,-27.876 C8.855,-26.8333 7.74333,-25.3153 6.946,-23.322 C6.14867,-21.3287 5.75,-18.9213 5.75,-16.1 C5.75,-13.2787 6.14867,-10.8713 6.946,-8.878 C7.74333,-6.88467 8.855,-5.36667 10.281,-4.324 C11.707,-3.28133 13.3553,-2.76 15.226,-2.76 M34.876,0.23 C34.2013,0.23 33.6263,-0.0153333 33.151,-0.506 C32.6757,-0.996667 32.438,-1.59467 32.438,-2.3 C32.438,-3.00533 32.6757,-3.59567 33.151,-4.071 C33.6263,-4.54633 34.2013,-4.784 34.876,-4.784 C35.5507,-4.784 36.1333,-4.54633 36.624,-4.071 C37.1147,-3.59567 37.36,-3.00533 37.36,-2.3 C37.36,-1.59467 37.1147,-0.996667 36.624,-0.506 C36.1333,-0.0153333 35.5507,0.23 34.876,0.23 M50.856,-18.998 C55.5173,-18.998 58.9137,-18.1623 61.045,-16.491 C63.1763,-14.8197 64.242,-12.4813 64.242,-9.476 C64.242,-7.60533 63.805,-5.934 62.931,-4.462 C62.057,-2.99 60.746,-1.83233 58.998,-0.989 C57.25,-0.145667 55.1033,0.276 52.558,0.276 C50.258,0.276 48.073,-0.0996667 46.003,-0.851 C43.933,-1.60233 42.2693,-2.60667 41.012,-3.864 L42.622,-6.486 C43.6953,-5.382 45.106,-4.485 46.854,-3.795 C48.602,-3.105 50.488,-2.76 52.512,-2.76 C55.18,-2.76 57.2423,-3.358 58.699,-4.554 C60.1557,-5.75 60.884,-7.34467 60.884,-9.338 C60.884,-11.546 60.0637,-13.2173 58.423,-14.352 C56.7823,-15.4867 54.0147,-16.054 50.12,-16.054 L43.266,-16.054 L44.922,-32.2 L62.54,-32.2 L62.54,-29.256 L47.82,-29.256 L46.716,-18.998 L50.856,-18.998 M104.358,-24.196 L104.358,0 L101.23,0 L101.23,-4.416 C100.371,-2.944 99.1907,-1.80167 97.688,-0.989 C96.1853,-0.176333 94.468,0.23 92.536,0.23 C89.3773,0.23 86.8857,-0.651667 85.061,-2.415 C83.2363,-4.17833 82.324,-6.762 82.324,-10.166 L82.324,-24.196 L85.59,-24.196 L85.59,-10.488 C85.59,-7.94267 86.2187,-6.01067 87.476,-4.692 C88.7333,-3.37333 90.5273,-2.714 92.858,-2.714 C95.4033,-2.714 97.412,-3.48833 98.884,-5.037 C100.356,-6.58567 101.092,-8.74 101.092,-11.5 L101.092,-24.196 L104.358,-24.196 M135.956,-24.196 L135.956,-2.944 C135.956,1.16533 134.952,4.209 132.943,6.187 C130.934,8.165 127.906,9.154 123.858,9.154 C121.619,9.154 119.496,8.82433 117.487,8.165 C115.478,7.50567 113.845,6.59333 112.588,5.428 L114.244,2.944 C115.409,3.98667 116.828,4.79933 118.499,5.382 C120.17,5.96467 121.926,6.256 123.766,6.256 C126.833,6.256 129.087,5.543 130.528,4.117 C131.969,2.691 132.69,0.475333 132.69,-2.53 L132.69,-5.612 C131.678,-4.07867 130.352,-2.91333 128.711,-2.116 C127.07,-1.31867 125.253,-0.92 123.26,-0.92 C120.991,-0.92 118.928,-1.41833 117.073,-2.415 C115.218,-3.41167 113.761,-4.807 112.703,-6.601 C111.645,-8.395 111.116,-10.4267 111.116,-12.696 C111.116,-14.9653 111.645,-16.9893 112.703,-18.768 C113.761,-20.5467 115.21,-21.9267 117.05,-22.908 C118.89,-23.8893 120.96,-24.38 123.26,-24.38 C125.315,-24.38 127.17,-23.966 128.826,-23.138 C130.482,-22.31 131.816,-21.114 132.828,-19.55 L132.828,-24.196 L135.956,-24.196 M123.582,-3.818 C125.33,-3.818 126.909,-4.19367 128.32,-4.945 C129.731,-5.69633 130.827,-6.74667 131.609,-8.096 C132.391,-9.44533 132.782,-10.9787 132.782,-12.696 C132.782,-14.4133 132.391,-15.939 131.609,-17.273 C130.827,-18.607 129.738,-19.6497 128.343,-20.401 C126.948,-21.1523 125.361,-21.528 123.582,-21.528 C121.834,-21.528 120.262,-21.16 118.867,-20.424 C117.472,-19.688 116.383,-18.6453 115.601,-17.296 C114.819,-15.9467 114.428,-14.4133 114.428,-12.696 C114.428,-10.9787 114.819,-9.44533 115.601,-8.096 C116.383,-6.74667 117.472,-5.69633 118.867,-4.945 C120.262,-4.19367 121.834,-3.818 123.582,-3.818 M155.03,-38.732 L158.02,-38.732 L142.84,4.6 L139.85,4.6 L155.03,-38.732 M187.73,-24.38 C190.766,-24.38 193.15,-23.506 194.883,-21.758 C196.616,-20.01 197.482,-17.434 197.482,-14.03 L197.482,0 L194.216,0 L194.216,-13.708 C194.216,-16.2227 193.61,-18.1393 192.399,-19.458 C191.188,-20.7767 189.478,-21.436 187.27,-21.436 C184.755,-21.436 182.777,-20.6617 181.336,-19.113 C179.895,-17.5643 179.174,-15.4253 179.174,-12.696 L179.174,0 L175.908,0 L175.908,-13.708 C175.908,-16.2227 175.302,-18.1393 174.091,-19.458 C172.88,-20.7767 171.155,-21.436 168.916,-21.436 C166.432,-21.436 164.462,-20.6617 163.005,-19.113 C161.548,-17.5643 160.82,-15.4253 160.82,-12.696 L160.82,0 L157.554,0 L157.554,-24.196 L160.682,-24.196 L160.682,-19.78 C161.541,-21.252 162.737,-22.3867 164.27,-23.184 C165.803,-23.9813 167.567,-24.38 169.56,-24.38 C171.584,-24.38 173.34,-23.9507 174.827,-23.092 C176.314,-22.2333 177.426,-20.9607 178.162,-19.274 C179.051,-20.8687 180.332,-22.1183 182.003,-23.023 C183.674,-23.9277 185.583,-24.38 187.73,-24.38 M206.554,-34.132 L209.82,-34.132 L209.82,0 L206.554,0 L206.554,-34.132" fill-rule="nonzero"/>
  </g>
  <g font-style="normal" font-family="MS Shell Dlg 2" stroke="#000000" stroke-opacity="1" stroke-linecap="square" transform="matrix(0.399627,0,0,0.399627,1627,163.664)" stroke-linejoin="bevel" font-weight="400" fill="none" font-size="32.5" stroke-width="1"/>
  <g font-style="normal" font-family="MS Shell Dlg 2" stroke="#000000" stroke-opacity="1" stroke-linecap="square" transform="matrix(0.999067,0,0,0.999067,11.8,0)" stroke-linejoin="bevel" font-weight="400" fill="none" font-size="32.5" stroke-width="1"/>
  <g font-style="normal" font-family="MS Shell Dlg 2" stroke="#000000" stroke-opacity="1" stroke-linecap="square" transform="matrix(11.8,0,0,11.8,11.8,0)" stroke-linejoin="bevel" font-weight="400" fill="none" font-size="32.5" stroke-width="1"/>
  <g font-style="normal" font-family="MS Shell Dlg 2" stroke="#000000" stroke-opacity="1" stroke-linecap="square" transform="matrix(0.999067,0,0,0.999067,11.8,0)" stroke-linejoin="bevel" font-weight="400" fill="none" font-size="32.5" stroke-width="1"/>
  <g font-style="normal" font-family="MS Shell Dlg 2" stroke="#000000" stroke-opacity="1" stroke-linecap="square" transform="matrix(11.8,0,0,11.8,11.8,0)" stroke-linejoin="bevel" font-weight="400" fill="none" font-size="32.5" stroke-width="1"/>
  <g font-style="normal" font-family="MS Shell Dlg 2" stroke="#000000" stroke-opacity="1" stroke-linecap="square" transform="matrix(11.8,0,0,11.8,11.8,0)" stroke-linejoin="bevel" font-weight="400" fill="none" font-size="32.5" stroke-width="1"/>
  <g font-style="normal" font-family="MS Shell Dlg 2" stroke="#000000" stroke-opacity="1" stroke-linecap="square" transform="matrix(1,0,0,1,0,0)" stroke-linejoin="bevel" font-weight="400" fill="none" font-size="32.5" stroke-width="1"/>
 </g>
 <metadata>
  <rdf:RDF xmlns:dc="http://purl.org/dc/elements/1.1/" xmlns:rdfs="http://www.w3.org/2000/01/rdf-schema#" xmlns:rdf="http://www.w3.org/1999/02/22-rdf-syntax-ns#">
   <rdf:Description dc:format="image/svg+xml" dc:date="2021-12-09T10:37:00" dc:title="" dc:description="" dc:identifier="">
    <dc:creator>
     <rdf:Bag>
      <rdf:li>INAPESCA</rdf:li>
     </rdf:Bag>
    </dc:creator>
    <dc:publisher>
     <rdf:Bag>
      <rdf:li>QGIS 3.24.0-Tisler</rdf:li>
     </rdf:Bag>
    </dc:publisher>
    <dc:subject>
     <rdf:Bag/>
    </dc:subject>
   </rdf:Description>
   <cc:Work rdf:about="">
    <dc:format>image/svg+xml</dc:format>
    <dc:title></dc:title>
    <dc:date>2021-12-09T10:37:00</dc:date>
    <dc:identifier></dc:identifier>
    <dc:description></dc:description>
    <dc:creator>
     <cc:Agent>
      <dc:title>INAPESCA</dc:title>
     </cc:Agent>
    </dc:creator>
    <dc:publisher>
     <cc:Agent>
      <dc:title>QGIS 3.24.0-Tisler</dc:title>
     </cc:Agent>
    </dc:publisher>
   </cc:Work>
  </rdf:RDF>
 </metadata>
</svg>
