<?xml version='1.0' encoding='UTF-8' standalone='no'?>
<svg width="155.448mm" version="1.2" height="12.954mm" xmlns="http://www.w3.org/2000/svg" xmlns:cc="http://creativecommons.org/ns#" viewBox="0 0 1836 153" baseProfile="tiny" xmlns:xlink="http://www.w3.org/1999/xlink">
 <defs>
  <linearGradient y1="0" x1="0" x2="448.819" y2="0" gradientUnits="userSpaceOnUse" id="gradient1">
   <stop stop-color="#00007f" offset="0" stop-opacity="1"/>
   <stop stop-color="#0061c8" offset="0.125" stop-opacity="1"/>
   <stop stop-color="#0cb6ed" offset="0.25" stop-opacity="1"/>
   <stop stop-color="#00fbff" offset="0.375" stop-opacity="1"/>
   <stop stop-color="#3ce7a4" offset="0.5" stop-opacity="1"/>
   <stop stop-color="#86e75b" offset="0.625" stop-opacity="1"/>
   <stop stop-color="#e7b612" offset="0.75" stop-opacity="1"/>
   <stop stop-color="#db6100" offset="0.875" stop-opacity="1"/>
   <stop stop-color="#aa0000" offset="1" stop-opacity="1"/>
  </linearGradient>
  <linearGradient y1="0" x1="460.63" x2="909.449" y2="0" gradientUnits="userSpaceOnUse" id="gradient2">
   <stop stop-color="#a6611a" offset="0" stop-opacity="1"/>
   <stop stop-color="#dfc27d" offset="0.25" stop-opacity="1"/>
   <stop stop-color="#f5f5f5" offset="0.5" stop-opacity="1"/>
   <stop stop-color="#80cdc1" offset="0.75" stop-opacity="1"/>
   <stop stop-color="#018571" offset="1" stop-opacity="1"/>
  </linearGradient>
  <linearGradient y1="0" x1="921.26" x2="1370.08" y2="0" gradientUnits="userSpaceOnUse" id="gradient3">
   <stop stop-color="#30123b" offset="0" stop-opacity="1"/>
   <stop stop-color="#4455c4" offset="0.0909091" stop-opacity="1"/>
   <stop stop-color="#4390fe" offset="0.181818" stop-opacity="1"/>
   <stop stop-color="#1fc9dd" offset="0.272727" stop-opacity="1"/>
   <stop stop-color="#2aefa1" offset="0.363636" stop-opacity="1"/>
   <stop stop-color="#7eff55" offset="0.454545" stop-opacity="1"/>
   <stop stop-color="#c2f234" offset="0.545455" stop-opacity="1"/>
   <stop stop-color="#f2c93a" offset="0.636364" stop-opacity="1"/>
   <stop stop-color="#fe8f29" offset="0.727273" stop-opacity="1"/>
   <stop stop-color="#e94d0d" offset="0.818182" stop-opacity="1"/>
   <stop stop-color="#bd2002" offset="0.909091" stop-opacity="1"/>
   <stop stop-color="#7a0403" offset="1" stop-opacity="1"/>
  </linearGradient>
  <linearGradient y1="0" x1="1381.89" x2="1830.71" y2="0" gradientUnits="userSpaceOnUse" id="gradient4">
   <stop stop-color="#3400cc" offset="0" stop-opacity="1"/>
   <stop stop-color="#1240ee" offset="0.0384615" stop-opacity="1"/>
   <stop stop-color="#0074ff" offset="0.0769231" stop-opacity="1"/>
   <stop stop-color="#009bff" offset="0.115385" stop-opacity="1"/>
   <stop stop-color="#00ddff" offset="0.153846" stop-opacity="1"/>
   <stop stop-color="#00ffe8" offset="0.192308" stop-opacity="1"/>
   <stop stop-color="#00ffb9" offset="0.230769" stop-opacity="1"/>
   <stop stop-color="#00ff98" offset="0.269231" stop-opacity="1"/>
   <stop stop-color="#00ff78" offset="0.307692" stop-opacity="1"/>
   <stop stop-color="#00ff59" offset="0.346154" stop-opacity="1"/>
   <stop stop-color="#37ff20" offset="0.384615" stop-opacity="1"/>
   <stop stop-color="#5eff00" offset="0.423077" stop-opacity="1"/>
   <stop stop-color="#6eff00" offset="0.461538" stop-opacity="1"/>
   <stop stop-color="#8dff00" offset="0.5" stop-opacity="1"/>
   <stop stop-color="#bafa00" offset="0.538462" stop-opacity="1"/>
   <stop stop-color="#faf000" offset="0.576923" stop-opacity="1"/>
   <stop stop-color="#ffdb00" offset="0.615385" stop-opacity="1"/>
   <stop stop-color="#ffc600" offset="0.653846" stop-opacity="1"/>
   <stop stop-color="#ffb100" offset="0.692308" stop-opacity="1"/>
   <stop stop-color="#ff9200" offset="0.730769" stop-opacity="1"/>
   <stop stop-color="#ff7700" offset="0.769231" stop-opacity="1"/>
   <stop stop-color="#ff6100" offset="0.807692" stop-opacity="1"/>
   <stop stop-color="#ff4c00" offset="0.846154" stop-opacity="1"/>
   <stop stop-color="#ff3b00" offset="0.884615" stop-opacity="1"/>
   <stop stop-color="#ff3000" offset="0.923077" stop-opacity="1"/>
   <stop stop-color="#c11b01" offset="0.961538" stop-opacity="1"/>
   <stop stop-color="#7a0403" offset="1" stop-opacity="1"/>
  </linearGradient>
 </defs>
 <g stroke-linecap="square" fill-rule="evenodd" stroke-width="1" stroke="black" stroke-linejoin="bevel" fill="none">
  <g stroke-linecap="square" stroke-width="1" transform="matrix(1,0,0,1,0,0)" stroke="#000000" stroke-linejoin="bevel" font-size="32.5" stroke-opacity="1" font-weight="400" fill="none" font-family="MS Shell Dlg 2" font-style="normal"/>
  <g stroke-linecap="square" stroke-width="1" transform="matrix(1,0,0,1,0,0)" stroke="#000000" stroke-linejoin="bevel" font-size="32.5" stroke-opacity="1" font-weight="400" fill="none" font-family="MS Shell Dlg 2" font-style="normal"/>
  <g stroke-linecap="square" stroke-width="1" transform="matrix(11.7692,0,0,11.7692,0,0)" stroke="#000000" stroke-linejoin="bevel" font-size="32.5" stroke-opacity="1" font-weight="400" fill="none" font-family="MS Shell Dlg 2" font-style="normal"/>
  <g stroke-linecap="square" stroke-width="1" transform="matrix(0.996462,0,0,0.996462,0,0)" stroke="#000000" stroke-linejoin="bevel" font-size="32.5" stroke-opacity="1" font-weight="400" fill="none" font-family="MS Shell Dlg 2" font-style="normal"/>
  <g transform="matrix(0.996462,0,0,0.996462,0,0)" stroke="none" font-size="32.5" font-weight="400" fill="#ffffff" fill-opacity="1" font-family="MS Shell Dlg 2" font-style="normal">
   <path fill-rule="evenodd" d="M-2,-2 L1839,-2 L1839,156 L-2,156 L-2,-2" vector-effect="none"/>
  </g>
  <g stroke-linecap="square" stroke-width="1" transform="matrix(0.996462,0,0,0.996462,0,0)" stroke="#000000" stroke-linejoin="bevel" font-size="32.5" stroke-opacity="1" font-weight="400" fill="none" font-family="MS Shell Dlg 2" font-style="normal"/>
  <g stroke-linecap="square" stroke-width="1" transform="matrix(11.7692,0,0,11.7692,0,0)" stroke="#000000" stroke-linejoin="bevel" font-size="32.5" stroke-opacity="1" font-weight="400" fill="none" font-family="MS Shell Dlg 2" font-style="normal"/>
  <g stroke-linecap="square" stroke-width="1" transform="matrix(11.7692,0,0,11.7692,0,0)" stroke="#000000" stroke-linejoin="bevel" font-size="32.5" stroke-opacity="1" font-weight="400" fill="none" font-family="MS Shell Dlg 2" font-style="normal"/>
  <g stroke-linecap="square" stroke-width="1" transform="matrix(11.7692,0,0,11.7692,0,0)" stroke="#000000" stroke-linejoin="bevel" font-size="32.5" stroke-opacity="1" font-weight="400" fill="none" font-family="MS Shell Dlg 2" font-style="normal"/>
  <g stroke-linecap="square" stroke-width="1" transform="matrix(11.7692,0,0,11.7692,0,0)" stroke="#000000" stroke-linejoin="bevel" font-size="32.5" stroke-opacity="1" font-weight="400" fill="none" font-family="MS Shell Dlg 2" font-style="normal"/>
  <g stroke-linecap="square" stroke-width="1" transform="matrix(11.7692,0,0,11.7692,0,0)" stroke="#000000" stroke-linejoin="bevel" font-size="32.5" stroke-opacity="1" font-weight="400" fill="none" font-family="MS Shell Dlg 2" font-style="normal"/>
  <g stroke-linecap="square" stroke-width="1" transform="matrix(11.7692,0,0,11.7692,0,0)" stroke="#000000" stroke-linejoin="bevel" font-size="32.5" stroke-opacity="1" font-weight="400" fill="none" font-family="MS Shell Dlg 2" font-style="normal"/>
  <g stroke-linecap="square" stroke-width="1" transform="matrix(11.7692,0,0,11.7692,0,0)" stroke="#000000" stroke-linejoin="bevel" font-size="32.5" stroke-opacity="1" font-weight="400" fill="none" font-family="MS Shell Dlg 2" font-style="normal"/>
  <g transform="matrix(11.7692,0,0,11.7692,0,0)" stroke="none" font-size="32.5" font-weight="400" fill="#ffffff" fill-opacity="1" font-family="MS Shell Dlg 2" font-style="normal">
   <path fill-rule="evenodd" d="M0,0 L155.5,0 L155.5,13.1015 L0,13.1015 L0,0" vector-effect="none"/>
  </g>
  <g stroke-linecap="square" stroke-width="1" transform="matrix(11.7692,0,0,11.7692,0,0)" stroke="#000000" stroke-linejoin="bevel" font-size="32.5" stroke-opacity="1" font-weight="400" fill="none" font-family="MS Shell Dlg 2" font-style="normal"/>
  <g stroke-linecap="square" stroke-width="1" transform="matrix(0.996462,0,0,0.996462,0,0)" stroke="#000000" stroke-linejoin="bevel" font-size="32.5" stroke-opacity="1" font-weight="400" fill="none" font-family="MS Shell Dlg 2" font-style="normal"/>
  <g stroke-linecap="square" stroke-width="1" transform="matrix(0.996462,0,0,0.996462,0,0)" stroke="#000000" stroke-linejoin="bevel" font-size="32.5" stroke-opacity="1" font-weight="400" fill="none" font-family="MS Shell Dlg 2" font-style="normal"/>
  <g stroke-linecap="square" stroke-width="1" transform="matrix(0.318868,0,0,0.318868,0,43.7626)" stroke="#000000" stroke-linejoin="bevel" font-size="32.5" stroke-opacity="1" font-weight="400" fill="none" font-family="MS Shell Dlg 2" font-style="normal"/>
  <g transform="matrix(0.996462,0,0,0.996462,0,43.7626)" stroke="none" font-size="32.5" font-weight="400" fill="#000000" fill-opacity="1" font-family="MS Shell Dlg 2" font-style="normal">
   <path fill-rule="nonzero" d="M11.5,-29.256 L0.184,-29.256 L0.184,-32.2 L26.22,-32.2 L26.22,-29.256 L14.904,-29.256 L14.904,0 L11.5,0 L11.5,-29.256 M49.4814,-11.086 L29.2414,-11.086 C29.4254,-8.57133 30.3914,-6.53967 32.1394,-4.991 C33.8874,-3.44233 36.0954,-2.668 38.7634,-2.668 C40.266,-2.668 41.646,-2.93633 42.9034,-3.473 C44.1607,-4.00967 45.2494,-4.79933 46.1694,-5.842 L48.0094,-3.726 C46.936,-2.438 45.5944,-1.45667 43.9844,-0.782 C42.3744,-0.107333 40.6034,0.23 38.6714,0.23 C36.1874,0.23 33.987,-0.299 32.0704,-1.357 C30.1537,-2.415 28.6587,-3.87933 27.5854,-5.75 C26.512,-7.62067 25.9754,-9.73667 25.9754,-12.098 C25.9754,-14.4593 26.489,-16.5753 27.5164,-18.446 C28.5437,-20.3167 29.9544,-21.7733 31.7484,-22.816 C33.5424,-23.8587 35.5587,-24.38 37.7974,-24.38 C40.036,-24.38 42.0447,-23.8587 43.8234,-22.816 C45.602,-21.7733 46.9974,-20.3243 48.0094,-18.469 C49.0214,-16.6137 49.5274,-14.49 49.5274,-12.098 L49.4814,-11.086 M37.7974,-21.574 C35.4667,-21.574 33.5117,-20.8303 31.9324,-19.343 C30.353,-17.8557 29.456,-15.916 29.2414,-13.524 L46.3994,-13.524 C46.1847,-15.916 45.2877,-17.8557 43.7084,-19.343 C42.129,-20.8303 40.1587,-21.574 37.7974,-21.574 M86.3706,-24.38 C89.4066,-24.38 91.791,-23.506 93.5236,-21.758 C95.2563,-20.01 96.1226,-17.434 96.1226,-14.03 L96.1226,0 L92.8566,0 L92.8566,-13.708 C92.8566,-16.2227 92.251,-18.1393 91.0396,-19.458 C89.8283,-20.7767 88.1186,-21.436 85.9106,-21.436 C83.396,-21.436 81.418,-20.6617 79.9766,-19.113 C78.5353,-17.5643 77.8146,-15.4253 77.8146,-12.696 L77.8146,0 L74.5486,0 L74.5486,-13.708 C74.5486,-16.2227 73.943,-18.1393 72.7316,-19.458 C71.5203,-20.7767 69.7953,-21.436 67.5566,-21.436 C65.0726,-21.436 63.1023,-20.6617 61.6456,-19.113 C60.189,-17.5643 59.4606,-15.4253 59.4606,-12.696 L59.4606,0 L56.1946,0 L56.1946,-24.196 L59.3226,-24.196 L59.3226,-19.78 C60.1813,-21.252 61.3773,-22.3867 62.9106,-23.184 C64.444,-23.9813 66.2073,-24.38 68.2006,-24.38 C70.2246,-24.38 71.9803,-23.9507 73.4676,-23.092 C74.955,-22.2333 76.0666,-20.9607 76.8026,-19.274 C77.692,-20.8687 78.9723,-22.1183 80.6436,-23.023 C82.315,-23.9277 84.224,-24.38 86.3706,-24.38 M117.458,-24.38 C119.727,-24.38 121.781,-23.8663 123.621,-22.839 C125.461,-21.8117 126.903,-20.3627 127.945,-18.492 C128.988,-16.6213 129.51,-14.49 129.51,-12.098 C129.51,-9.67533 128.988,-7.52867 127.945,-5.658 C126.903,-3.78733 125.469,-2.33833 123.645,-1.311 C121.82,-0.283667 119.757,0.23 117.458,0.23 C115.495,0.23 113.724,-0.176333 112.145,-0.989 C110.565,-1.80167 109.27,-2.99 108.257,-4.554 L108.257,8.924 L104.992,8.924 L104.992,-24.196 L108.119,-24.196 L108.119,-19.412 C109.101,-21.0067 110.396,-22.2333 112.007,-23.092 C113.617,-23.9507 115.434,-24.38 117.458,-24.38 M117.228,-2.668 C118.914,-2.668 120.447,-3.059 121.827,-3.841 C123.207,-4.623 124.288,-5.73467 125.07,-7.176 C125.852,-8.61733 126.243,-10.258 126.243,-12.098 C126.243,-13.938 125.852,-15.571 125.07,-16.997 C124.288,-18.423 123.207,-19.5347 121.827,-20.332 C120.447,-21.1293 118.914,-21.528 117.228,-21.528 C115.51,-21.528 113.969,-21.1293 112.604,-20.332 C111.24,-19.5347 110.166,-18.423 109.384,-16.997 C108.603,-15.571 108.212,-13.938 108.212,-12.098 C108.212,-10.258 108.603,-8.61733 109.384,-7.176 C110.166,-5.73467 111.24,-4.623 112.604,-3.841 C113.969,-3.059 115.51,-2.668 117.228,-2.668 M157.247,-11.086 L137.007,-11.086 C137.191,-8.57133 138.157,-6.53967 139.905,-4.991 C141.653,-3.44233 143.861,-2.668 146.529,-2.668 C148.032,-2.668 149.412,-2.93633 150.669,-3.473 C151.926,-4.00967 153.015,-4.79933 153.935,-5.842 L155.775,-3.726 C154.702,-2.438 153.36,-1.45667 151.75,-0.782 C150.14,-0.107333 148.369,0.23 146.437,0.23 C143.953,0.23 141.753,-0.299 139.836,-1.357 C137.919,-2.415 136.424,-3.87933 135.351,-5.75 C134.278,-7.62067 133.741,-9.73667 133.741,-12.098 C133.741,-14.4593 134.255,-16.5753 135.282,-18.446 C136.309,-20.3167 137.72,-21.7733 139.514,-22.816 C141.308,-23.8587 143.324,-24.38 145.563,-24.38 C147.802,-24.38 149.81,-23.8587 151.589,-22.816 C153.368,-21.7733 154.763,-20.3243 155.775,-18.469 C156.787,-16.6137 157.293,-14.49 157.293,-12.098 L157.247,-11.086 M145.563,-21.574 C143.232,-21.574 141.277,-20.8303 139.698,-19.343 C138.119,-17.8557 137.222,-15.916 137.007,-13.524 L154.165,-13.524 C153.95,-15.916 153.053,-17.8557 151.474,-19.343 C149.895,-20.8303 147.924,-21.574 145.563,-21.574 M167.088,-19.458 C167.855,-21.0833 168.997,-22.31 170.515,-23.138 C172.033,-23.966 173.912,-24.38 176.15,-24.38 L176.15,-21.206 L175.368,-21.252 C172.823,-21.252 170.83,-20.47 169.388,-18.906 C167.947,-17.342 167.226,-15.1493 167.226,-12.328 L167.226,0 L163.96,0 L163.96,-24.196 L167.088,-24.196 L167.088,-19.458 M190.456,-24.38 C193.614,-24.38 196.037,-23.5903 197.723,-22.011 C199.41,-20.4317 200.253,-18.0933 200.253,-14.996 L200.253,0 L197.126,0 L197.126,-3.772 C196.389,-2.51467 195.308,-1.53333 193.883,-0.828 C192.456,-0.122667 190.762,0.23 188.799,0.23 C186.101,0.23 183.954,-0.414 182.359,-1.702 C180.765,-2.99 179.967,-4.692 179.967,-6.808 C179.967,-8.86267 180.711,-10.5187 182.199,-11.776 C183.686,-13.0333 186.055,-13.662 189.305,-13.662 L196.988,-13.662 L196.988,-15.134 C196.988,-17.2193 196.405,-18.8063 195.24,-19.895 C194.074,-20.9837 192.372,-21.528 190.133,-21.528 C188.6,-21.528 187.128,-21.275 185.717,-20.769 C184.307,-20.263 183.095,-19.5653 182.083,-18.676 L180.611,-21.114 C181.838,-22.1567 183.31,-22.9617 185.027,-23.529 C186.745,-24.0963 188.554,-24.38 190.456,-24.38 M189.305,-2.346 C191.145,-2.346 192.725,-2.76767 194.044,-3.611 C195.362,-4.45433 196.343,-5.67333 196.988,-7.268 L196.988,-11.224 L189.398,-11.224 C185.257,-11.224 183.188,-9.78267 183.188,-6.9 C183.188,-5.48933 183.724,-4.37767 184.798,-3.565 C185.871,-2.75233 187.373,-2.346 189.305,-2.346 M221.859,-1.472 C221.245,-0.92 220.486,-0.498333 219.581,-0.207 C218.677,0.0843333 217.734,0.23 216.753,0.23 C214.483,0.23 212.735,-0.383333 211.508,-1.61 C210.282,-2.83667 209.668,-4.56933 209.669,-6.808 L209.669,-21.436 L205.344,-21.436 L205.344,-24.196 L209.669,-24.196 L209.669,-29.486 L212.934,-29.486 L212.934,-24.196 L220.294,-24.196 L220.294,-21.436 L212.934,-21.436 L212.934,-6.992 C212.934,-5.55067 213.295,-4.45433 214.016,-3.703 C214.736,-2.95167 215.771,-2.576 217.12,-2.576 C217.795,-2.576 218.447,-2.68333 219.076,-2.898 C219.704,-3.11267 220.248,-3.41933 220.708,-3.818 L221.859,-1.472 M249.592,-24.196 L249.592,0 L246.464,0 L246.464,-4.416 C245.606,-2.944 244.425,-1.80167 242.922,-0.989 C241.42,-0.176333 239.702,0.23 237.77,0.23 C234.612,0.23 232.12,-0.651667 230.295,-2.415 C228.471,-4.17833 227.558,-6.762 227.558,-10.166 L227.558,-24.196 L230.824,-24.196 L230.824,-10.488 C230.824,-7.94267 231.453,-6.01067 232.71,-4.692 C233.968,-3.37333 235.762,-2.714 238.092,-2.714 C240.638,-2.714 242.646,-3.48833 244.118,-5.037 C245.59,-6.58567 246.326,-8.74 246.326,-11.5 L246.326,-24.196 L249.592,-24.196 M261.87,-19.458 C262.636,-21.0833 263.779,-22.31 265.297,-23.138 C266.814,-23.966 268.693,-24.38 270.931,-24.38 L270.931,-21.206 L270.15,-21.252 C267.604,-21.252 265.611,-20.47 264.169,-18.906 C262.728,-17.342 262.008,-15.1493 262.008,-12.328 L262.008,0 L258.741,0 L258.741,-24.196 L261.87,-24.196 L261.87,-19.458 M285.237,-24.38 C288.395,-24.38 290.818,-23.5903 292.505,-22.011 C294.191,-20.4317 295.035,-18.0933 295.035,-14.996 L295.035,0 L291.907,0 L291.907,-3.772 C291.171,-2.51467 290.09,-1.53333 288.664,-0.828 C287.238,-0.122667 285.543,0.23 283.581,0.23 C280.882,0.23 278.735,-0.414 277.141,-1.702 C275.546,-2.99 274.749,-4.692 274.749,-6.808 C274.749,-8.86267 275.492,-10.5187 276.98,-11.776 C278.467,-13.0333 280.836,-13.662 284.087,-13.662 L291.769,-13.662 L291.769,-15.134 C291.769,-17.2193 291.186,-18.8063 290.021,-19.895 C288.855,-20.9837 287.153,-21.528 284.915,-21.528 C283.381,-21.528 281.909,-21.275 280.499,-20.769 C279.088,-20.263 277.877,-19.5653 276.865,-18.676 L275.393,-21.114 C276.619,-22.1567 278.091,-22.9617 279.809,-23.529 C281.526,-24.0963 283.335,-24.38 285.237,-24.38 M284.087,-2.346 C285.927,-2.346 287.506,-2.76767 288.825,-3.611 C290.143,-4.45433 291.125,-5.67333 291.769,-7.268 L291.769,-11.224 L284.179,-11.224 C280.039,-11.224 277.969,-9.78267 277.969,-6.9 C277.969,-5.48933 278.505,-4.37767 279.579,-3.565 C280.652,-2.75233 282.155,-2.346 284.087,-2.346 " vector-effect="none"/>
  </g>
  <g stroke-linecap="square" stroke-width="1" transform="matrix(0.318868,0,0,0.318868,0,43.7626)" stroke="#000000" stroke-linejoin="bevel" font-size="32.5" stroke-opacity="1" font-weight="400" fill="none" font-family="MS Shell Dlg 2" font-style="normal"/>
  <g stroke-linecap="square" stroke-width="1" transform="matrix(0.996462,0,0,0.996462,0,0)" stroke="#000000" stroke-linejoin="bevel" font-size="32.5" stroke-opacity="1" font-weight="400" fill="none" font-family="MS Shell Dlg 2" font-style="normal"/>
  <g stroke-linecap="square" stroke-width="1" transform="matrix(11.7692,0,0,11.7692,0,0)" stroke="#000000" stroke-linejoin="bevel" font-size="32.5" stroke-opacity="1" font-weight="400" fill="none" font-family="MS Shell Dlg 2" font-style="normal"/>
  <g stroke-linecap="square" stroke-width="1" transform="matrix(0.996462,0,0,0.996462,0,0)" stroke="#000000" stroke-linejoin="miter" font-size="32.5" stroke-opacity="1" stroke-miterlimit="2" font-weight="400" fill="url(#gradient1)" font-family="MS Shell Dlg 2" font-style="normal">
   <rect width="448" height="47" vector-effect="non-scaling-stroke" y="56" x="0"/>
  </g>
  <g stroke-linecap="square" stroke-width="1" transform="matrix(11.7692,0,0,11.7692,0,0)" stroke="#000000" stroke-linejoin="bevel" font-size="32.5" stroke-opacity="1" font-weight="400" fill="none" font-family="MS Shell Dlg 2" font-style="normal"/>
  <g stroke-linecap="square" stroke-width="1" transform="matrix(0.996462,0,0,0.996462,0,0)" stroke="#000000" stroke-linejoin="bevel" font-size="32.5" stroke-opacity="1" font-weight="400" fill="none" font-family="MS Shell Dlg 2" font-style="normal"/>
  <g stroke-linecap="square" stroke-width="1" transform="matrix(0.318868,0,0,0.318868,0,143.074)" stroke="#000000" stroke-linejoin="bevel" font-size="32.5" stroke-opacity="1" font-weight="400" fill="none" font-family="MS Shell Dlg 2" font-style="normal"/>
  <g transform="matrix(0.996462,0,0,0.996462,0,143.074)" stroke="none" font-size="32.5" font-weight="400" fill="#000000" fill-opacity="1" font-family="MS Shell Dlg 2" font-style="normal">
   <path fill-rule="nonzero" d="M22.26,-2.688 L22.26,0 L1.638,0 L1.638,-2.142 L13.86,-14.112 C15.4,-15.624 16.443,-16.933 16.989,-18.039 C17.535,-19.145 17.808,-20.258 17.808,-21.378 C17.808,-23.114 17.213,-24.465 16.023,-25.431 C14.833,-26.397 13.132,-26.88 10.92,-26.88 C7.476,-26.88 4.802,-25.788 2.898,-23.604 L0.756,-25.452 C1.904,-26.796 3.367,-27.832 5.145,-28.56 C6.923,-29.288 8.932,-29.652 11.172,-29.652 C14.168,-29.652 16.541,-28.945 18.291,-27.531 C20.041,-26.117 20.916,-24.178 20.916,-21.714 C20.916,-20.202 20.58,-18.746 19.908,-17.346 C19.236,-15.946 17.962,-14.336 16.086,-12.516 L6.09,-2.688 L22.26,-2.688 M46.1038,-2.688 L46.1038,0 L25.4818,0 L25.4818,-2.142 L37.7038,-14.112 C39.2437,-15.624 40.2867,-16.933 40.8327,-18.039 C41.3787,-19.145 41.6517,-20.258 41.6517,-21.378 C41.6517,-23.114 41.0567,-24.465 39.8668,-25.431 C38.6768,-26.397 36.9757,-26.88 34.7637,-26.88 C31.3197,-26.88 28.6458,-25.788 26.7418,-23.604 L24.5998,-25.452 C25.7477,-26.796 27.2108,-27.832 28.9888,-28.56 C30.7668,-29.288 32.7757,-29.652 35.0158,-29.652 C38.0117,-29.652 40.3848,-28.945 42.1348,-27.531 C43.8848,-26.117 44.7598,-24.178 44.7598,-21.714 C44.7598,-20.202 44.4237,-18.746 43.7517,-17.346 C43.0798,-15.946 41.8057,-14.336 39.9297,-12.516 L29.9338,-2.688 L46.1038,-2.688 M52.5614,0.21 C51.9454,0.21 51.4204,-0.014 50.9864,-0.462 C50.5524,-0.91 50.3354,-1.456 50.3354,-2.1 C50.3354,-2.744 50.5524,-3.283 50.9864,-3.717 C51.4204,-4.151 51.9454,-4.368 52.5614,-4.368 C53.1774,-4.368 53.7094,-4.151 54.1574,-3.717 C54.6054,-3.283 54.8294,-2.744 54.8294,-2.1 C54.8294,-1.456 54.6054,-0.91 54.1574,-0.462 C53.7094,-0.014 53.1774,0.21 52.5614,0.21 M79.432,-29.4 L79.432,-27.258 L67.126,0 L63.85,0 L75.946,-26.712 L60.826,-26.712 L60.826,-21.21 L57.844,-21.21 L57.844,-29.4 L79.432,-29.4 M101.012,-16.296 C99.7804,-16.296 98.6534,-16.59 97.6314,-17.178 C96.6094,-17.766 95.8044,-18.571 95.2164,-19.593 C94.6284,-20.615 94.3344,-21.742 94.3344,-22.974 C94.3344,-24.178 94.6284,-25.291 95.2164,-26.313 C95.8044,-27.335 96.6094,-28.14 97.6314,-28.728 C98.6534,-29.316 99.7804,-29.61 101.012,-29.61 C102.244,-29.61 103.378,-29.316 104.414,-28.728 C105.45,-28.14 106.262,-27.335 106.85,-26.313 C107.438,-25.291 107.732,-24.178 107.732,-22.974 C107.732,-21.742 107.438,-20.615 106.85,-19.593 C106.262,-18.571 105.45,-17.766 104.414,-17.178 C103.378,-16.59 102.244,-16.296 101.012,-16.296 M101.012,-18.06 C102.384,-18.06 103.539,-18.529 104.477,-19.467 C105.415,-20.405 105.884,-21.574 105.884,-22.974 C105.884,-24.346 105.415,-25.501 104.477,-26.439 C103.539,-27.377 102.384,-27.846 101.012,-27.846 C99.6404,-27.846 98.4924,-27.377 97.5684,-26.439 C96.6444,-25.501 96.1824,-24.346 96.1824,-22.974 C96.1824,-21.574 96.6444,-20.405 97.5684,-19.467 C98.4924,-18.529 99.6404,-18.06 101.012,-18.06 M127.806,0.252 C124.894,0.252 122.269,-0.392 119.931,-1.68 C117.593,-2.968 115.759,-4.753 114.429,-7.035 C113.099,-9.317 112.434,-11.872 112.434,-14.7 C112.434,-17.528 113.099,-20.083 114.429,-22.365 C115.759,-24.647 117.6,-26.432 119.952,-27.72 C122.304,-29.008 124.936,-29.652 127.848,-29.652 C130.032,-29.652 132.048,-29.288 133.896,-28.56 C135.744,-27.832 137.312,-26.768 138.6,-25.368 L136.626,-23.394 C134.33,-25.718 131.432,-26.88 127.932,-26.88 C125.608,-26.88 123.494,-26.348 121.59,-25.284 C119.686,-24.22 118.195,-22.764 117.117,-20.916 C116.039,-19.068 115.5,-16.996 115.5,-14.7 C115.5,-12.404 116.039,-10.332 117.117,-8.484 C118.195,-6.636 119.686,-5.18 121.59,-4.116 C123.494,-3.052 125.608,-2.52 127.932,-2.52 C131.46,-2.52 134.358,-3.696 136.626,-6.048 L138.6,-4.074 C137.312,-2.674 135.737,-1.603 133.875,-0.861 C132.013,-0.119 129.99,0.252 127.806,0.252 " vector-effect="none"/>
  </g>
  <g stroke-linecap="square" stroke-width="1" transform="matrix(0.318868,0,0,0.318868,0,143.074)" stroke="#000000" stroke-linejoin="bevel" font-size="32.5" stroke-opacity="1" font-weight="400" fill="none" font-family="MS Shell Dlg 2" font-style="normal"/>
  <g stroke-linecap="square" stroke-width="1" transform="matrix(0.996462,0,0,0.996462,0,0)" stroke="#000000" stroke-linejoin="bevel" font-size="32.5" stroke-opacity="1" font-weight="400" fill="none" font-family="MS Shell Dlg 2" font-style="normal"/>
  <g stroke-linecap="square" stroke-width="1" transform="matrix(0.318868,0,0,0.318868,304.394,143.074)" stroke="#000000" stroke-linejoin="bevel" font-size="32.5" stroke-opacity="1" font-weight="400" fill="none" font-family="MS Shell Dlg 2" font-style="normal"/>
  <g transform="matrix(0.996462,0,0,0.996462,304.394,143.074)" stroke="none" font-size="32.5" font-weight="400" fill="#000000" fill-opacity="1" font-family="MS Shell Dlg 2" font-style="normal">
   <path fill-rule="nonzero" d="M12.18,-16.8 C15.26,-16.632 17.605,-15.799 19.215,-14.301 C20.825,-12.803 21.63,-10.85 21.63,-8.442 C21.63,-6.762 21.224,-5.271 20.412,-3.969 C19.6,-2.667 18.396,-1.638 16.8,-0.882 C15.204,-0.126 13.258,0.252 10.962,0.252 C8.834,0.252 6.825,-0.091 4.935,-0.777 C3.045,-1.463 1.526,-2.38 0.378,-3.528 L1.848,-5.922 C2.828,-4.914 4.13,-4.095 5.754,-3.465 C7.378,-2.835 9.114,-2.52 10.962,-2.52 C13.37,-2.52 15.232,-3.045 16.548,-4.095 C17.864,-5.145 18.522,-6.594 18.522,-8.442 C18.522,-10.262 17.864,-11.69 16.548,-12.726 C15.232,-13.762 13.244,-14.28 10.584,-14.28 L8.484,-14.28 L8.484,-16.506 L16.632,-26.712 L1.596,-26.712 L1.596,-29.4 L20.496,-29.4 L20.496,-27.258 L12.18,-16.8 M37.5895,0.252 C35.3215,0.252 33.2985,-0.35 31.5205,-1.554 C29.7425,-2.758 28.3565,-4.487 27.3625,-6.741 C26.3685,-8.995 25.8715,-11.648 25.8715,-14.7 C25.8715,-17.752 26.3685,-20.405 27.3625,-22.659 C28.3565,-24.913 29.7425,-26.642 31.5205,-27.846 C33.2985,-29.05 35.3215,-29.652 37.5895,-29.652 C39.8575,-29.652 41.8805,-29.05 43.6585,-27.846 C45.4365,-26.642 46.8295,-24.913 47.8375,-22.659 C48.8455,-20.405 49.3495,-17.752 49.3495,-14.7 C49.3495,-11.648 48.8455,-8.995 47.8375,-6.741 C46.8295,-4.487 45.4365,-2.758 43.6585,-1.554 C41.8805,-0.35 39.8575,0.252 37.5895,0.252 M37.5895,-2.52 C39.2975,-2.52 40.8025,-2.996 42.1045,-3.948 C43.4065,-4.9 44.4215,-6.286 45.1495,-8.106 C45.8775,-9.926 46.2415,-12.124 46.2415,-14.7 C46.2415,-17.276 45.8775,-19.474 45.1495,-21.294 C44.4215,-23.114 43.4065,-24.5 42.1045,-25.452 C40.8025,-26.404 39.2975,-26.88 37.5895,-26.88 C35.8815,-26.88 34.3765,-26.404 33.0745,-25.452 C31.7725,-24.5 30.7575,-23.114 30.0295,-21.294 C29.3015,-19.474 28.9375,-17.276 28.9375,-14.7 C28.9375,-12.124 29.3015,-9.926 30.0295,-8.106 C30.7575,-6.286 31.7725,-4.9 33.0745,-3.948 C34.3765,-2.996 35.8815,-2.52 37.5895,-2.52 M55.4676,0.21 C54.8516,0.21 54.3266,-0.014 53.8926,-0.462 C53.4586,-0.91 53.2416,-1.456 53.2416,-2.1 C53.2416,-2.744 53.4586,-3.283 53.8926,-3.717 C54.3266,-4.151 54.8516,-4.368 55.4676,-4.368 C56.0836,-4.368 56.6156,-4.151 57.0636,-3.717 C57.5116,-3.283 57.7356,-2.744 57.7356,-2.1 C57.7356,-1.456 57.5116,-0.91 57.0636,-0.462 C56.6156,-0.014 56.0836,0.21 55.4676,0.21 M82.3382,-29.4 L82.3382,-27.258 L70.0322,0 L66.7562,0 L78.8522,-26.712 L63.7323,-26.712 L63.7323,-21.21 L60.7503,-21.21 L60.7503,-29.4 L82.3382,-29.4 M103.919,-16.296 C102.687,-16.296 101.56,-16.59 100.538,-17.178 C99.5156,-17.766 98.7106,-18.571 98.1226,-19.593 C97.5346,-20.615 97.2406,-21.742 97.2406,-22.974 C97.2406,-24.178 97.5346,-25.291 98.1226,-26.313 C98.7106,-27.335 99.5156,-28.14 100.538,-28.728 C101.56,-29.316 102.687,-29.61 103.919,-29.61 C105.151,-29.61 106.285,-29.316 107.321,-28.728 C108.357,-28.14 109.169,-27.335 109.757,-26.313 C110.345,-25.291 110.639,-24.178 110.639,-22.974 C110.639,-21.742 110.345,-20.615 109.757,-19.593 C109.169,-18.571 108.357,-17.766 107.321,-17.178 C106.285,-16.59 105.151,-16.296 103.919,-16.296 M103.919,-18.06 C105.291,-18.06 106.446,-18.529 107.384,-19.467 C108.322,-20.405 108.791,-21.574 108.791,-22.974 C108.791,-24.346 108.322,-25.501 107.384,-26.439 C106.446,-27.377 105.291,-27.846 103.919,-27.846 C102.547,-27.846 101.399,-27.377 100.475,-26.439 C99.5506,-25.501 99.0886,-24.346 99.0886,-22.974 C99.0886,-21.574 99.5506,-20.405 100.475,-19.467 C101.399,-18.529 102.547,-18.06 103.919,-18.06 M130.712,0.252 C127.8,0.252 125.175,-0.392 122.837,-1.68 C120.499,-2.968 118.665,-4.753 117.335,-7.035 C116.005,-9.317 115.34,-11.872 115.34,-14.7 C115.34,-17.528 116.005,-20.083 117.335,-22.365 C118.665,-24.647 120.506,-26.432 122.858,-27.72 C125.21,-29.008 127.842,-29.652 130.754,-29.652 C132.938,-29.652 134.954,-29.288 136.802,-28.56 C138.65,-27.832 140.218,-26.768 141.506,-25.368 L139.532,-23.394 C137.236,-25.718 134.338,-26.88 130.838,-26.88 C128.514,-26.88 126.4,-26.348 124.496,-25.284 C122.592,-24.22 121.101,-22.764 120.023,-20.916 C118.945,-19.068 118.406,-16.996 118.406,-14.7 C118.406,-12.404 118.945,-10.332 120.023,-8.484 C121.101,-6.636 122.592,-5.18 124.496,-4.116 C126.4,-3.052 128.514,-2.52 130.838,-2.52 C134.366,-2.52 137.264,-3.696 139.532,-6.048 L141.506,-4.074 C140.218,-2.674 138.643,-1.603 136.781,-0.861 C134.919,-0.119 132.896,0.252 130.712,0.252 " vector-effect="none"/>
  </g>
  <g stroke-linecap="square" stroke-width="1" transform="matrix(0.318868,0,0,0.318868,304.394,143.074)" stroke="#000000" stroke-linejoin="bevel" font-size="32.5" stroke-opacity="1" font-weight="400" fill="none" font-family="MS Shell Dlg 2" font-style="normal"/>
  <g stroke-linecap="square" stroke-width="1" transform="matrix(0.996462,0,0,0.996462,0,0)" stroke="#000000" stroke-linejoin="bevel" font-size="32.5" stroke-opacity="1" font-weight="400" fill="none" font-family="MS Shell Dlg 2" font-style="normal"/>
  <g stroke-linecap="square" stroke-width="1" transform="matrix(11.7692,0,0,11.7692,0,0)" stroke="#000000" stroke-linejoin="bevel" font-size="32.5" stroke-opacity="1" font-weight="400" fill="none" font-family="MS Shell Dlg 2" font-style="normal"/>
  <g stroke-linecap="square" stroke-width="1" transform="matrix(0.996462,0,0,0.996462,0,0)" stroke="#000000" stroke-linejoin="bevel" font-size="32.5" stroke-opacity="1" font-weight="400" fill="none" font-family="MS Shell Dlg 2" font-style="normal"/>
  <g stroke-linecap="square" stroke-width="1" transform="matrix(0.318868,0,0,0.318868,459,43.7626)" stroke="#000000" stroke-linejoin="bevel" font-size="32.5" stroke-opacity="1" font-weight="400" fill="none" font-family="MS Shell Dlg 2" font-style="normal"/>
  <g transform="matrix(0.996462,0,0,0.996462,459,43.7626)" stroke="none" font-size="32.5" font-weight="400" fill="#000000" fill-opacity="1" font-family="MS Shell Dlg 2" font-style="normal">
   <path fill-rule="nonzero" d="M14.122,0.276 C11.73,0.276 9.43767,-0.107333 7.245,-0.874 C5.05233,-1.64067 3.358,-2.65267 2.162,-3.91 L3.496,-6.532 C4.66133,-5.36667 6.21,-4.42367 8.142,-3.703 C10.074,-2.98233 12.0673,-2.622 14.122,-2.622 C17.0047,-2.622 19.1667,-3.151 20.608,-4.209 C22.0493,-5.267 22.77,-6.63933 22.77,-8.326 C22.77,-9.614 22.379,-10.6413 21.597,-11.408 C20.815,-12.1747 19.8567,-12.765 18.722,-13.179 C17.5873,-13.593 16.008,-14.0453 13.984,-14.536 C11.5613,-15.1493 9.62933,-15.7397 8.188,-16.307 C6.74667,-16.8743 5.51233,-17.7407 4.485,-18.906 C3.45767,-20.0713 2.944,-21.6507 2.944,-23.644 C2.944,-25.2693 3.37333,-26.749 4.232,-28.083 C5.09067,-29.417 6.40933,-30.4827 8.188,-31.28 C9.96667,-32.0773 12.1747,-32.476 14.812,-32.476 C16.652,-32.476 18.4537,-32.223 20.217,-31.717 C21.9803,-31.211 23.506,-30.5133 24.794,-29.624 L23.644,-26.91 C22.2947,-27.7993 20.8533,-28.4663 19.32,-28.911 C17.7867,-29.3557 16.284,-29.578 14.812,-29.578 C11.9907,-29.578 9.867,-29.0337 8.441,-27.945 C7.015,-26.8563 6.302,-25.4533 6.302,-23.736 C6.302,-22.448 6.693,-21.413 7.475,-20.631 C8.257,-19.849 9.23833,-19.251 10.419,-18.837 C11.5997,-18.423 13.1867,-17.9707 15.18,-17.48 C17.5413,-16.8973 19.4503,-16.3223 20.907,-15.755 C22.3637,-15.1877 23.598,-14.329 24.61,-13.179 C25.622,-12.029 26.128,-10.4727 26.128,-8.51 C26.128,-6.88467 25.691,-5.405 24.817,-4.071 C23.943,-2.737 22.6013,-1.679 20.792,-0.897 C18.9827,-0.115 16.7593,0.276 14.122,0.276 M41.2992,-24.38 C44.4579,-24.38 46.8806,-23.5903 48.5672,-22.011 C50.2539,-20.4317 51.0972,-18.0933 51.0973,-14.996 L51.0973,0 L47.9692,0 L47.9692,-3.772 C47.2332,-2.51467 46.1522,-1.53333 44.7262,-0.828 C43.3002,-0.122667 41.6059,0.23 39.6432,0.23 C36.9446,0.23 34.7979,-0.414 33.2033,-1.702 C31.6086,-2.99 30.8112,-4.692 30.8113,-6.808 C30.8112,-8.86267 31.5549,-10.5187 33.0423,-11.776 C34.5296,-13.0333 36.8986,-13.662 40.1493,-13.662 L47.8312,-13.662 L47.8312,-15.134 C47.8312,-17.2193 47.2486,-18.8063 46.0833,-19.895 C44.9179,-20.9837 43.2159,-21.528 40.9772,-21.528 C39.4439,-21.528 37.9719,-21.275 36.5612,-20.769 C35.1506,-20.263 33.9392,-19.5653 32.9272,-18.676 L31.4552,-21.114 C32.6819,-22.1567 34.1539,-22.9617 35.8713,-23.529 C37.5886,-24.0963 39.3979,-24.38 41.2992,-24.38 M40.1493,-2.346 C41.9892,-2.346 43.5686,-2.76767 44.8873,-3.611 C46.2059,-4.45433 47.1872,-5.67333 47.8312,-7.268 L47.8312,-11.224 L40.2412,-11.224 C36.1012,-11.224 34.0313,-9.78267 34.0313,-6.9 C34.0313,-5.48933 34.5679,-4.37767 35.6413,-3.565 C36.7146,-2.75233 38.2172,-2.346 40.1493,-2.346 M59.9603,-34.132 L63.2262,-34.132 L63.2262,0 L59.9603,0 L59.9603,-34.132 M72.3196,-24.196 L75.5856,-24.196 L75.5856,0 L72.3196,0 L72.3196,-24.196 M73.9756,-29.486 C73.301,-29.486 72.7336,-29.716 72.2736,-30.176 C71.8136,-30.636 71.5836,-31.188 71.5836,-31.832 C71.5836,-32.4453 71.8136,-32.982 72.2736,-33.442 C72.7336,-33.902 73.301,-34.132 73.9756,-34.132 C74.6503,-34.132 75.2176,-33.9097 75.6776,-33.465 C76.1376,-33.0203 76.3676,-32.4913 76.3676,-31.878 C76.3676,-31.2033 76.1376,-30.636 75.6776,-30.176 C75.2176,-29.716 74.6503,-29.486 73.9756,-29.486 M97.007,-24.38 C100.043,-24.38 102.458,-23.4983 104.252,-21.735 C106.046,-19.9717 106.943,-17.4033 106.943,-14.03 L106.943,0 L103.677,0 L103.677,-13.708 C103.677,-16.2227 103.048,-18.1393 101.791,-19.458 C100.534,-20.7767 98.7397,-21.436 96.409,-21.436 C93.8023,-21.436 91.74,-20.6617 90.222,-19.113 C88.704,-17.5643 87.945,-15.4253 87.945,-12.696 L87.945,0 L84.679,0 L84.679,-24.196 L87.807,-24.196 L87.807,-19.734 C88.6963,-21.206 89.9307,-22.3483 91.51,-23.161 C93.0893,-23.9737 94.9217,-24.38 97.007,-24.38 M115.82,-24.196 L119.086,-24.196 L119.086,0 L115.82,0 L115.82,-24.196 M117.476,-29.486 C116.801,-29.486 116.234,-29.716 115.774,-30.176 C115.314,-30.636 115.084,-31.188 115.084,-31.832 C115.084,-32.4453 115.314,-32.982 115.774,-33.442 C116.234,-33.902 116.801,-34.132 117.476,-34.132 C118.15,-34.132 118.718,-33.9097 119.178,-33.465 C119.638,-33.0203 119.868,-32.4913 119.868,-31.878 C119.868,-31.2033 119.638,-30.636 119.178,-30.176 C118.718,-29.716 118.15,-29.486 117.476,-29.486 M150.259,-34.132 L150.259,0 L147.131,0 L147.131,-4.784 C146.15,-3.15867 144.854,-1.91667 143.244,-1.058 C141.634,-0.199333 139.817,0.23 137.793,0.23 C135.524,0.23 133.469,-0.291333 131.629,-1.334 C129.789,-2.37667 128.348,-3.83333 127.305,-5.704 C126.262,-7.57467 125.741,-9.706 125.741,-12.098 C125.741,-14.49 126.262,-16.6213 127.305,-18.492 C128.348,-20.3627 129.789,-21.8117 131.629,-22.839 C133.469,-23.8663 135.524,-24.38 137.793,-24.38 C139.756,-24.38 141.527,-23.9737 143.106,-23.161 C144.685,-22.3483 145.981,-21.16 146.993,-19.596 L146.993,-34.132 L150.259,-34.132 M138.069,-2.668 C139.756,-2.668 141.281,-3.059 142.646,-3.841 C144.011,-4.623 145.084,-5.73467 145.866,-7.176 C146.648,-8.61733 147.039,-10.258 147.039,-12.098 C147.039,-13.938 146.648,-15.5787 145.866,-17.02 C145.084,-18.4613 144.011,-19.573 142.646,-20.355 C141.281,-21.137 139.756,-21.528 138.069,-21.528 C136.352,-21.528 134.811,-21.137 133.446,-20.355 C132.081,-19.573 131.008,-18.4613 130.226,-17.02 C129.444,-15.5787 129.053,-13.938 129.053,-12.098 C129.053,-10.258 129.444,-8.61733 130.226,-7.176 C131.008,-5.73467 132.081,-4.623 133.446,-3.841 C134.811,-3.059 136.352,-2.668 138.069,-2.668 M167.831,-24.38 C170.989,-24.38 173.412,-23.5903 175.098,-22.011 C176.785,-20.4317 177.628,-18.0933 177.628,-14.996 L177.628,0 L174.501,0 L174.501,-3.772 C173.764,-2.51467 172.684,-1.53333 171.258,-0.828 C169.831,-0.122667 168.137,0.23 166.174,0.23 C163.476,0.23 161.329,-0.414 159.734,-1.702 C158.14,-2.99 157.342,-4.692 157.342,-6.808 C157.342,-8.86267 158.086,-10.5187 159.574,-11.776 C161.061,-13.0333 163.43,-13.662 166.68,-13.662 L174.363,-13.662 L174.363,-15.134 C174.362,-17.2193 173.78,-18.8063 172.615,-19.895 C171.449,-20.9837 169.747,-21.528 167.508,-21.528 C165.975,-21.528 164.503,-21.275 163.092,-20.769 C161.682,-20.263 160.47,-19.5653 159.458,-18.676 L157.986,-21.114 C159.213,-22.1567 160.685,-22.9617 162.402,-23.529 C164.12,-24.0963 165.929,-24.38 167.831,-24.38 M166.68,-2.346 C168.52,-2.346 170.1,-2.76767 171.419,-3.611 C172.737,-4.45433 173.718,-5.67333 174.363,-7.268 L174.363,-11.224 L166.773,-11.224 C162.632,-11.224 160.563,-9.78267 160.563,-6.9 C160.563,-5.48933 161.099,-4.37767 162.173,-3.565 C163.246,-2.75233 164.748,-2.346 166.68,-2.346 M208.665,-34.132 L208.665,0 L205.537,0 L205.537,-4.784 C204.556,-3.15867 203.26,-1.91667 201.65,-1.058 C200.04,-0.199333 198.223,0.23 196.199,0.23 C193.93,0.23 191.875,-0.291333 190.035,-1.334 C188.195,-2.37667 186.754,-3.83333 185.711,-5.704 C184.669,-7.57467 184.147,-9.706 184.147,-12.098 C184.147,-14.49 184.669,-16.6213 185.711,-18.492 C186.754,-20.3627 188.195,-21.8117 190.035,-22.839 C191.875,-23.8663 193.93,-24.38 196.199,-24.38 C198.162,-24.38 199.933,-23.9737 201.512,-23.161 C203.092,-22.3483 204.387,-21.16 205.399,-19.596 L205.399,-34.132 L208.665,-34.132 M196.475,-2.668 C198.162,-2.668 199.688,-3.059 201.052,-3.841 C202.417,-4.623 203.49,-5.73467 204.272,-7.176 C205.054,-8.61733 205.445,-10.258 205.445,-12.098 C205.445,-13.938 205.054,-15.5787 204.272,-17.02 C203.49,-18.4613 202.417,-19.573 201.052,-20.355 C199.688,-21.137 198.162,-21.528 196.475,-21.528 C194.758,-21.528 193.217,-21.137 191.852,-20.355 C190.488,-19.573 189.414,-18.4613 188.632,-17.02 C187.85,-15.5787 187.459,-13.938 187.459,-12.098 C187.459,-10.258 187.85,-8.61733 188.632,-7.176 C189.414,-5.73467 190.488,-4.623 191.852,-3.841 C193.217,-3.059 194.758,-2.668 196.475,-2.668 " vector-effect="none"/>
  </g>
  <g stroke-linecap="square" stroke-width="1" transform="matrix(0.318868,0,0,0.318868,459,43.7626)" stroke="#000000" stroke-linejoin="bevel" font-size="32.5" stroke-opacity="1" font-weight="400" fill="none" font-family="MS Shell Dlg 2" font-style="normal"/>
  <g stroke-linecap="square" stroke-width="1" transform="matrix(0.996462,0,0,0.996462,0,0)" stroke="#000000" stroke-linejoin="bevel" font-size="32.5" stroke-opacity="1" font-weight="400" fill="none" font-family="MS Shell Dlg 2" font-style="normal"/>
  <g stroke-linecap="square" stroke-width="1" transform="matrix(11.7692,0,0,11.7692,0,0)" stroke="#000000" stroke-linejoin="bevel" font-size="32.5" stroke-opacity="1" font-weight="400" fill="none" font-family="MS Shell Dlg 2" font-style="normal"/>
  <g stroke-linecap="square" stroke-width="1" transform="matrix(0.996462,0,0,0.996462,0,0)" stroke="#000000" stroke-linejoin="miter" font-size="32.5" stroke-opacity="1" stroke-miterlimit="2" font-weight="400" fill="url(#gradient2)" font-family="MS Shell Dlg 2" font-style="normal">
   <rect width="448" height="47" vector-effect="non-scaling-stroke" y="56" x="460"/>
  </g>
  <g stroke-linecap="square" stroke-width="1" transform="matrix(11.7692,0,0,11.7692,0,0)" stroke="#000000" stroke-linejoin="bevel" font-size="32.5" stroke-opacity="1" font-weight="400" fill="none" font-family="MS Shell Dlg 2" font-style="normal"/>
  <g stroke-linecap="square" stroke-width="1" transform="matrix(0.996462,0,0,0.996462,0,0)" stroke="#000000" stroke-linejoin="bevel" font-size="32.5" stroke-opacity="1" font-weight="400" fill="none" font-family="MS Shell Dlg 2" font-style="normal"/>
  <g stroke-linecap="square" stroke-width="1" transform="matrix(0.318868,0,0,0.318868,459,143.074)" stroke="#000000" stroke-linejoin="bevel" font-size="32.5" stroke-opacity="1" font-weight="400" fill="none" font-family="MS Shell Dlg 2" font-style="normal"/>
  <g transform="matrix(0.996462,0,0,0.996462,459,143.074)" stroke="none" font-size="32.5" font-weight="400" fill="#000000" fill-opacity="1" font-family="MS Shell Dlg 2" font-style="normal">
   <path fill-rule="nonzero" d="M12.18,-16.8 C15.26,-16.632 17.605,-15.799 19.215,-14.301 C20.825,-12.803 21.63,-10.85 21.63,-8.442 C21.63,-6.762 21.224,-5.271 20.412,-3.969 C19.6,-2.667 18.396,-1.638 16.8,-0.882 C15.204,-0.126 13.258,0.252 10.962,0.252 C8.834,0.252 6.825,-0.091 4.935,-0.777 C3.045,-1.463 1.526,-2.38 0.378,-3.528 L1.848,-5.922 C2.828,-4.914 4.13,-4.095 5.754,-3.465 C7.378,-2.835 9.114,-2.52 10.962,-2.52 C13.37,-2.52 15.232,-3.045 16.548,-4.095 C17.864,-5.145 18.522,-6.594 18.522,-8.442 C18.522,-10.262 17.864,-11.69 16.548,-12.726 C15.232,-13.762 13.244,-14.28 10.584,-14.28 L8.484,-14.28 L8.484,-16.506 L16.632,-26.712 L1.596,-26.712 L1.596,-29.4 L20.496,-29.4 L20.496,-27.258 L12.18,-16.8 M35.6644,-16.8 C38.7444,-16.632 41.0894,-15.799 42.6994,-14.301 C44.3094,-12.803 45.1144,-10.85 45.1144,-8.442 C45.1144,-6.762 44.7084,-5.271 43.8964,-3.969 C43.0844,-2.667 41.8804,-1.638 40.2844,-0.882 C38.6884,-0.126 36.7424,0.252 34.4464,0.252 C32.3184,0.252 30.3094,-0.091 28.4194,-0.777 C26.5294,-1.463 25.0104,-2.38 23.8624,-3.528 L25.3324,-5.922 C26.3124,-4.914 27.6144,-4.095 29.2384,-3.465 C30.8624,-2.835 32.5984,-2.52 34.4464,-2.52 C36.8544,-2.52 38.7164,-3.045 40.0324,-4.095 C41.3484,-5.145 42.0064,-6.594 42.0064,-8.442 C42.0064,-10.262 41.3484,-11.69 40.0324,-12.726 C38.7164,-13.762 36.7284,-14.28 34.0684,-14.28 L31.9684,-14.28 L31.9684,-16.506 L40.1164,-26.712 L25.0804,-26.712 L25.0804,-29.4 L43.9804,-29.4 L43.9804,-27.258 L35.6644,-16.8 M74.8039,0.252 C70.9959,0.252 68.0279,-0.84 65.8999,-3.024 C63.7719,-5.208 62.7079,-8.386 62.7079,-12.558 L62.7079,-29.4 L65.8159,-29.4 L65.8159,-12.684 C65.8159,-9.268 66.5859,-6.72 68.1259,-5.04 C69.6659,-3.36 71.8919,-2.52 74.8039,-2.52 C77.7439,-2.52 79.9839,-3.36 81.5239,-5.04 C83.0639,-6.72 83.8339,-9.268 83.8339,-12.684 L83.8339,-29.4 L86.8579,-29.4 L86.8579,-12.558 C86.8579,-8.386 85.8009,-5.208 83.6869,-3.024 C81.5729,-0.84 78.6119,0.252 74.8039,0.252 M107.214,-29.4 C110.966,-29.4 113.906,-28.504 116.034,-26.712 C118.162,-24.92 119.226,-22.456 119.226,-19.32 C119.226,-16.184 118.162,-13.727 116.034,-11.949 C113.906,-10.171 110.966,-9.282 107.214,-9.282 L99.3179,-9.282 L99.3179,0 L96.2099,0 L96.2099,-29.4 L107.214,-29.4 M107.13,-12.012 C110.042,-12.012 112.268,-12.649 113.808,-13.923 C115.348,-15.197 116.118,-16.996 116.118,-19.32 C116.118,-21.7 115.348,-23.527 113.808,-24.801 C112.268,-26.075 110.042,-26.712 107.13,-26.712 L99.3179,-26.712 L99.3179,-12.012 L107.13,-12.012 M134.456,0.252 C132.272,0.252 130.18,-0.098 128.178,-0.798 C126.175,-1.498 124.628,-2.422 123.536,-3.57 L124.755,-5.964 C125.818,-4.9 127.232,-4.039 128.997,-3.381 C130.76,-2.723 132.581,-2.394 134.456,-2.394 C137.089,-2.394 139.063,-2.877 140.378,-3.843 C141.694,-4.809 142.352,-6.062 142.352,-7.602 C142.352,-8.778 141.995,-9.716 141.281,-10.416 C140.567,-11.116 139.692,-11.655 138.656,-12.033 C137.62,-12.411 136.178,-12.824 134.331,-13.272 C132.118,-13.832 130.354,-14.371 129.038,-14.889 C127.722,-15.407 126.595,-16.198 125.658,-17.262 C124.719,-18.326 124.251,-19.768 124.251,-21.588 C124.251,-23.072 124.643,-24.423 125.426,-25.641 C126.21,-26.859 127.414,-27.832 129.038,-28.56 C130.663,-29.288 132.678,-29.652 135.087,-29.652 C136.766,-29.652 138.411,-29.421 140.021,-28.959 C141.632,-28.497 143.024,-27.86 144.201,-27.048 L143.15,-24.57 C141.919,-25.382 140.603,-25.991 139.202,-26.397 C137.802,-26.803 136.43,-27.006 135.087,-27.006 C132.51,-27.006 130.572,-26.509 129.27,-25.515 C127.967,-24.521 127.316,-23.24 127.316,-21.672 C127.316,-20.496 127.673,-19.551 128.387,-18.837 C129.101,-18.123 129.997,-17.577 131.076,-17.199 C132.154,-16.821 133.602,-16.408 135.423,-15.96 C137.578,-15.428 139.322,-14.903 140.652,-14.385 C141.982,-13.867 143.108,-13.083 144.033,-12.033 C144.956,-10.983 145.419,-9.562 145.419,-7.77 C145.419,-6.286 145.02,-4.935 144.221,-3.717 C143.423,-2.499 142.198,-1.533 140.546,-0.819 C138.895,-0.105 136.865,0.252 134.456,0.252 " vector-effect="none"/>
  </g>
  <g stroke-linecap="square" stroke-width="1" transform="matrix(0.318868,0,0,0.318868,459,143.074)" stroke="#000000" stroke-linejoin="bevel" font-size="32.5" stroke-opacity="1" font-weight="400" fill="none" font-family="MS Shell Dlg 2" font-style="normal"/>
  <g stroke-linecap="square" stroke-width="1" transform="matrix(0.996462,0,0,0.996462,0,0)" stroke="#000000" stroke-linejoin="bevel" font-size="32.5" stroke-opacity="1" font-weight="400" fill="none" font-family="MS Shell Dlg 2" font-style="normal"/>
  <g stroke-linecap="square" stroke-width="1" transform="matrix(0.318868,0,0,0.318868,755.111,143.074)" stroke="#000000" stroke-linejoin="bevel" font-size="32.5" stroke-opacity="1" font-weight="400" fill="none" font-family="MS Shell Dlg 2" font-style="normal"/>
  <g transform="matrix(0.996462,0,0,0.996462,755.111,143.074)" stroke="none" font-size="32.5" font-weight="400" fill="#000000" fill-opacity="1" font-family="MS Shell Dlg 2" font-style="normal">
   <path fill-rule="nonzero" d="M12.18,-16.8 C15.26,-16.632 17.605,-15.799 19.215,-14.301 C20.825,-12.803 21.63,-10.85 21.63,-8.442 C21.63,-6.762 21.224,-5.271 20.412,-3.969 C19.6,-2.667 18.396,-1.638 16.8,-0.882 C15.204,-0.126 13.258,0.252 10.962,0.252 C8.834,0.252 6.825,-0.091 4.935,-0.777 C3.045,-1.463 1.526,-2.38 0.378,-3.528 L1.848,-5.922 C2.828,-4.914 4.13,-4.095 5.754,-3.465 C7.378,-2.835 9.114,-2.52 10.962,-2.52 C13.37,-2.52 15.232,-3.045 16.548,-4.095 C17.864,-5.145 18.522,-6.594 18.522,-8.442 C18.522,-10.262 17.864,-11.69 16.548,-12.726 C15.232,-13.762 13.244,-14.28 10.584,-14.28 L8.484,-14.28 L8.484,-16.506 L16.632,-26.712 L1.596,-26.712 L1.596,-29.4 L20.496,-29.4 L20.496,-27.258 L12.18,-16.8 M50.8615,-7.728 L44.9815,-7.728 L44.9815,0 L41.9575,0 L41.9575,-7.728 L25.3675,-7.728 L25.3675,-9.912 L40.9495,-29.4 L44.3095,-29.4 L29.2735,-10.416 L42.0415,-10.416 L42.0415,-17.22 L44.9815,-17.22 L44.9815,-10.416 L50.8615,-10.416 L50.8615,-7.728 M79.0695,0.252 C75.2615,0.252 72.2935,-0.84 70.1655,-3.024 C68.0375,-5.208 66.9735,-8.386 66.9735,-12.558 L66.9735,-29.4 L70.0815,-29.4 L70.0815,-12.684 C70.0815,-9.268 70.8515,-6.72 72.3915,-5.04 C73.9315,-3.36 76.1575,-2.52 79.0695,-2.52 C82.0095,-2.52 84.2495,-3.36 85.7895,-5.04 C87.3295,-6.72 88.0995,-9.268 88.0995,-12.684 L88.0995,-29.4 L91.1235,-29.4 L91.1235,-12.558 C91.1235,-8.386 90.0665,-5.208 87.9525,-3.024 C85.8385,-0.84 82.8775,0.252 79.0695,0.252 M111.479,-29.4 C115.231,-29.4 118.171,-28.504 120.299,-26.712 C122.427,-24.92 123.491,-22.456 123.492,-19.32 C123.491,-16.184 122.427,-13.727 120.299,-11.949 C118.171,-10.171 115.231,-9.282 111.479,-9.282 L103.583,-9.282 L103.583,0 L100.476,0 L100.476,-29.4 L111.479,-29.4 M111.396,-12.012 C114.308,-12.012 116.534,-12.649 118.074,-13.923 C119.613,-15.197 120.383,-16.996 120.383,-19.32 C120.383,-21.7 119.613,-23.527 118.074,-24.801 C116.534,-26.075 114.308,-26.712 111.396,-26.712 L103.583,-26.712 L103.583,-12.012 L111.396,-12.012 M138.722,0.252 C136.538,0.252 134.445,-0.098 132.443,-0.798 C130.441,-1.498 128.894,-2.422 127.802,-3.57 L129.02,-5.964 C130.084,-4.9 131.498,-4.039 133.262,-3.381 C135.026,-2.723 136.846,-2.394 138.722,-2.394 C141.354,-2.394 143.328,-2.877 144.644,-3.843 C145.96,-4.809 146.618,-6.062 146.618,-7.602 C146.618,-8.778 146.261,-9.716 145.547,-10.416 C144.833,-11.116 143.958,-11.655 142.922,-12.033 C141.886,-12.411 140.444,-12.824 138.596,-13.272 C136.384,-13.832 134.62,-14.371 133.304,-14.889 C131.988,-15.407 130.861,-16.198 129.923,-17.262 C128.985,-18.326 128.516,-19.768 128.516,-21.588 C128.516,-23.072 128.908,-24.423 129.692,-25.641 C130.476,-26.859 131.68,-27.832 133.304,-28.56 C134.928,-29.288 136.944,-29.652 139.352,-29.652 C141.032,-29.652 142.677,-29.421 144.287,-28.959 C145.897,-28.497 147.29,-27.86 148.466,-27.048 L147.416,-24.57 C146.184,-25.382 144.868,-25.991 143.468,-26.397 C142.068,-26.803 140.696,-27.006 139.352,-27.006 C136.776,-27.006 134.837,-26.509 133.535,-25.515 C132.233,-24.521 131.582,-23.24 131.582,-21.672 C131.582,-20.496 131.939,-19.551 132.653,-18.837 C133.367,-18.123 134.263,-17.577 135.341,-17.199 C136.419,-16.821 137.868,-16.408 139.688,-15.96 C141.844,-15.428 143.587,-14.903 144.917,-14.385 C146.247,-13.867 147.374,-13.083 148.298,-12.033 C149.222,-10.983 149.684,-9.562 149.684,-7.77 C149.684,-6.286 149.285,-4.935 148.487,-3.717 C147.689,-2.499 146.464,-1.533 144.812,-0.819 C143.16,-0.105 141.13,0.252 138.722,0.252 " vector-effect="none"/>
  </g>
  <g stroke-linecap="square" stroke-width="1" transform="matrix(0.318868,0,0,0.318868,755.111,143.074)" stroke="#000000" stroke-linejoin="bevel" font-size="32.5" stroke-opacity="1" font-weight="400" fill="none" font-family="MS Shell Dlg 2" font-style="normal"/>
  <g stroke-linecap="square" stroke-width="1" transform="matrix(0.996462,0,0,0.996462,0,0)" stroke="#000000" stroke-linejoin="bevel" font-size="32.5" stroke-opacity="1" font-weight="400" fill="none" font-family="MS Shell Dlg 2" font-style="normal"/>
  <g stroke-linecap="square" stroke-width="1" transform="matrix(11.7692,0,0,11.7692,0,0)" stroke="#000000" stroke-linejoin="bevel" font-size="32.5" stroke-opacity="1" font-weight="400" fill="none" font-family="MS Shell Dlg 2" font-style="normal"/>
  <g stroke-linecap="square" stroke-width="1" transform="matrix(0.996462,0,0,0.996462,0,0)" stroke="#000000" stroke-linejoin="bevel" font-size="32.5" stroke-opacity="1" font-weight="400" fill="none" font-family="MS Shell Dlg 2" font-style="normal"/>
  <g stroke-linecap="square" stroke-width="1" transform="matrix(0.318868,0,0,0.318868,918,43.7626)" stroke="#000000" stroke-linejoin="bevel" font-size="32.5" stroke-opacity="1" font-weight="400" fill="none" font-family="MS Shell Dlg 2" font-style="normal"/>
  <g transform="matrix(0.996462,0,0,0.996462,918,43.7626)" stroke="none" font-size="32.5" font-weight="400" fill="#000000" fill-opacity="1" font-family="MS Shell Dlg 2" font-style="normal">
   <path fill-rule="nonzero" d="M19.32,0.276 C16.1307,0.276 13.2403,-0.437 10.649,-1.863 C8.05767,-3.289 6.03367,-5.244 4.577,-7.728 C3.12033,-10.212 2.392,-13.0027 2.392,-16.1 C2.392,-19.1973 3.12033,-21.988 4.577,-24.472 C6.03367,-26.956 8.05767,-28.911 10.649,-30.337 C13.2403,-31.763 16.1307,-32.476 19.32,-32.476 C22.5093,-32.476 25.3843,-31.7707 27.945,-30.36 C30.5057,-28.9493 32.522,-26.9943 33.994,-24.495 C35.466,-21.9957 36.202,-19.1973 36.202,-16.1 C36.202,-13.0027 35.466,-10.2043 33.994,-7.705 C32.522,-5.20567 30.5057,-3.25067 27.945,-1.84 C25.3843,-0.429333 22.5093,0.276 19.32,0.276 M19.32,-2.76 C21.8653,-2.76 24.1653,-3.335 26.22,-4.485 C28.2747,-5.635 29.8847,-7.22967 31.05,-9.269 C32.2153,-11.3083 32.798,-13.5853 32.798,-16.1 C32.798,-18.6147 32.2153,-20.8917 31.05,-22.931 C29.8847,-24.9703 28.2747,-26.565 26.22,-27.715 C24.1653,-28.865 21.8653,-29.44 19.32,-29.44 C16.7747,-29.44 14.467,-28.865 12.397,-27.715 C10.327,-26.565 8.70167,-24.9703 7.521,-22.931 C6.34033,-20.8917 5.75,-18.6147 5.75,-16.1 C5.75,-13.5853 6.34033,-11.3083 7.521,-9.269 C8.70167,-7.22967 10.327,-5.635 12.397,-4.485 C14.467,-3.335 16.7747,-2.76 19.32,-2.76 M58.0109,0 L50.3289,-10.12 L42.6009,0 L38.9209,0 L48.4889,-12.42 L39.3809,-24.196 L43.0609,-24.196 L50.3289,-14.72 L57.5969,-24.196 L61.1849,-24.196 L52.0769,-12.42 L61.7369,0 L58.0109,0 M67.1634,-24.196 L70.4294,-24.196 L70.4294,0 L67.1634,0 L67.1634,-24.196 M72.1314,-33.672 L76.5014,-33.672 L69.0494,-27.968 L65.8294,-27.968 L72.1314,-33.672 M101.925,-24.196 L101.925,-2.944 C101.925,1.16533 100.92,4.209 98.9118,6.187 C96.9031,8.165 93.8747,9.154 89.8268,9.154 C87.5881,9.154 85.4644,8.82433 83.4557,8.165 C81.4471,7.50567 79.8141,6.59333 78.5567,5.428 L80.2128,2.944 C81.3781,3.98667 82.7964,4.79933 84.4678,5.382 C86.1391,5.96467 87.8947,6.256 89.7347,6.256 C92.8014,6.256 95.0554,5.543 96.4967,4.117 C97.9381,2.691 98.6588,0.475333 98.6588,-2.53 L98.6588,-5.612 C97.6467,-4.07867 96.3204,-2.91333 94.6797,-2.116 C93.0391,-1.31867 91.2221,-0.92 89.2288,-0.92 C86.9594,-0.92 84.8971,-1.41833 83.0417,-2.415 C81.1864,-3.41167 79.7298,-4.807 78.6718,-6.601 C77.6137,-8.395 77.0847,-10.4267 77.0847,-12.696 C77.0847,-14.9653 77.6137,-16.9893 78.6718,-18.768 C79.7298,-20.5467 81.1787,-21.9267 83.0188,-22.908 C84.8587,-23.8893 86.9287,-24.38 89.2288,-24.38 C91.2834,-24.38 93.1387,-23.966 94.7948,-23.138 C96.4507,-22.31 97.7847,-21.114 98.7968,-19.55 L98.7968,-24.196 L101.925,-24.196 M89.5508,-3.818 C91.2988,-3.818 92.8781,-4.19367 94.2887,-4.945 C95.6994,-5.69633 96.7957,-6.74667 97.5778,-8.096 C98.3597,-9.44533 98.7507,-10.9787 98.7507,-12.696 C98.7507,-14.4133 98.3597,-15.939 97.5778,-17.273 C96.7957,-18.607 95.7071,-19.6497 94.3118,-20.401 C92.9164,-21.1523 91.3294,-21.528 89.5508,-21.528 C87.8027,-21.528 86.2311,-21.16 84.8357,-20.424 C83.4404,-19.688 82.3517,-18.6453 81.5697,-17.296 C80.7878,-15.9467 80.3968,-14.4133 80.3968,-12.696 C80.3968,-10.9787 80.7878,-9.44533 81.5697,-8.096 C82.3517,-6.74667 83.4404,-5.69633 84.8357,-4.945 C86.2311,-4.19367 87.8027,-3.818 89.5508,-3.818 M132.138,-11.086 L111.898,-11.086 C112.082,-8.57133 113.048,-6.53967 114.796,-4.991 C116.544,-3.44233 118.752,-2.668 121.42,-2.668 C122.922,-2.668 124.302,-2.93633 125.56,-3.473 C126.817,-4.00967 127.906,-4.79933 128.826,-5.842 L130.666,-3.726 C129.592,-2.438 128.251,-1.45667 126.641,-0.782 C125.031,-0.107333 123.26,0.23 121.328,0.23 C118.844,0.23 116.643,-0.299 114.727,-1.357 C112.81,-2.415 111.315,-3.87933 110.242,-5.75 C109.168,-7.62067 108.632,-9.73667 108.632,-12.098 C108.632,-14.4593 109.145,-16.5753 110.173,-18.446 C111.2,-20.3167 112.611,-21.7733 114.405,-22.816 C116.199,-23.8587 118.215,-24.38 120.454,-24.38 C122.692,-24.38 124.701,-23.8587 126.48,-22.816 C128.258,-21.7733 129.654,-20.3243 130.666,-18.469 C131.678,-16.6137 132.184,-14.49 132.184,-12.098 L132.138,-11.086 M120.454,-21.574 C118.123,-21.574 116.168,-20.8303 114.589,-19.343 C113.009,-17.8557 112.112,-15.916 111.898,-13.524 L129.056,-13.524 C128.841,-15.916 127.944,-17.8557 126.365,-19.343 C124.785,-20.8303 122.815,-21.574 120.454,-21.574 M151.179,-24.38 C154.215,-24.38 156.63,-23.4983 158.424,-21.735 C160.218,-19.9717 161.115,-17.4033 161.115,-14.03 L161.115,0 L157.849,0 L157.849,-13.708 C157.849,-16.2227 157.22,-18.1393 155.963,-19.458 C154.706,-20.7767 152.912,-21.436 150.581,-21.436 C147.974,-21.436 145.912,-20.6617 144.394,-19.113 C142.876,-17.5643 142.117,-15.4253 142.117,-12.696 L142.117,0 L138.851,0 L138.851,-24.196 L141.979,-24.196 L141.979,-19.734 C142.868,-21.206 144.103,-22.3483 145.682,-23.161 C147.261,-23.9737 149.094,-24.38 151.179,-24.38 M179.975,0.23 C177.645,0.23 175.544,-0.299 173.673,-1.357 C171.803,-2.415 170.331,-3.87933 169.257,-5.75 C168.184,-7.62067 167.647,-9.73667 167.647,-12.098 C167.647,-14.4593 168.184,-16.5753 169.257,-18.446 C170.331,-20.3167 171.803,-21.7733 173.673,-22.816 C175.544,-23.8587 177.645,-24.38 179.975,-24.38 C182.306,-24.38 184.407,-23.8587 186.277,-22.816 C188.148,-21.7733 189.612,-20.3167 190.67,-18.446 C191.728,-16.5753 192.257,-14.4593 192.257,-12.098 C192.257,-9.73667 191.728,-7.62067 190.67,-5.75 C189.612,-3.87933 188.148,-2.415 186.277,-1.357 C184.407,-0.299 182.306,0.23 179.975,0.23 M179.975,-2.668 C181.693,-2.668 183.234,-3.059 184.598,-3.841 C185.963,-4.623 187.029,-5.73467 187.795,-7.176 C188.562,-8.61733 188.945,-10.258 188.945,-12.098 C188.945,-13.938 188.562,-15.5787 187.795,-17.02 C187.029,-18.4613 185.963,-19.573 184.598,-20.355 C183.234,-21.137 181.693,-21.528 179.975,-21.528 C178.258,-21.528 176.717,-21.137 175.352,-20.355 C173.988,-19.573 172.914,-18.4613 172.132,-17.02 C171.35,-15.5787 170.959,-13.938 170.959,-12.098 C170.959,-10.258 171.35,-8.61733 172.132,-7.176 C172.914,-5.73467 173.988,-4.623 175.352,-3.841 C176.717,-3.059 178.258,-2.668 179.975,-2.668 " vector-effect="none"/>
  </g>
  <g stroke-linecap="square" stroke-width="1" transform="matrix(0.318868,0,0,0.318868,918,43.7626)" stroke="#000000" stroke-linejoin="bevel" font-size="32.5" stroke-opacity="1" font-weight="400" fill="none" font-family="MS Shell Dlg 2" font-style="normal"/>
  <g stroke-linecap="square" stroke-width="1" transform="matrix(0.996462,0,0,0.996462,0,0)" stroke="#000000" stroke-linejoin="bevel" font-size="32.5" stroke-opacity="1" font-weight="400" fill="none" font-family="MS Shell Dlg 2" font-style="normal"/>
  <g stroke-linecap="square" stroke-width="1" transform="matrix(11.7692,0,0,11.7692,0,0)" stroke="#000000" stroke-linejoin="bevel" font-size="32.5" stroke-opacity="1" font-weight="400" fill="none" font-family="MS Shell Dlg 2" font-style="normal"/>
  <g stroke-linecap="square" stroke-width="1" transform="matrix(0.996462,0,0,0.996462,0,0)" stroke="#000000" stroke-linejoin="miter" font-size="32.5" stroke-opacity="1" stroke-miterlimit="2" font-weight="400" fill="url(#gradient3)" font-family="MS Shell Dlg 2" font-style="normal">
   <rect width="448" height="47" vector-effect="non-scaling-stroke" y="56" x="921"/>
  </g>
  <g stroke-linecap="square" stroke-width="1" transform="matrix(11.7692,0,0,11.7692,0,0)" stroke="#000000" stroke-linejoin="bevel" font-size="32.5" stroke-opacity="1" font-weight="400" fill="none" font-family="MS Shell Dlg 2" font-style="normal"/>
  <g stroke-linecap="square" stroke-width="1" transform="matrix(0.996462,0,0,0.996462,0,0)" stroke="#000000" stroke-linejoin="bevel" font-size="32.5" stroke-opacity="1" font-weight="400" fill="none" font-family="MS Shell Dlg 2" font-style="normal"/>
  <g stroke-linecap="square" stroke-width="1" transform="matrix(0.318868,0,0,0.318868,918,143.074)" stroke="#000000" stroke-linejoin="bevel" font-size="32.5" stroke-opacity="1" font-weight="400" fill="none" font-family="MS Shell Dlg 2" font-style="normal"/>
  <g transform="matrix(0.996462,0,0,0.996462,918,143.074)" stroke="none" font-size="32.5" font-weight="400" fill="#000000" fill-opacity="1" font-family="MS Shell Dlg 2" font-style="normal">
   <path fill-rule="nonzero" d="M13.902,0.252 C11.634,0.252 9.611,-0.35 7.833,-1.554 C6.055,-2.758 4.669,-4.487 3.675,-6.741 C2.681,-8.995 2.184,-11.648 2.184,-14.7 C2.184,-17.752 2.681,-20.405 3.675,-22.659 C4.669,-24.913 6.055,-26.642 7.833,-27.846 C9.611,-29.05 11.634,-29.652 13.902,-29.652 C16.17,-29.652 18.193,-29.05 19.971,-27.846 C21.749,-26.642 23.142,-24.913 24.15,-22.659 C25.158,-20.405 25.662,-17.752 25.662,-14.7 C25.662,-11.648 25.158,-8.995 24.15,-6.741 C23.142,-4.487 21.749,-2.758 19.971,-1.554 C18.193,-0.35 16.17,0.252 13.902,0.252 M13.902,-2.52 C15.61,-2.52 17.115,-2.996 18.417,-3.948 C19.719,-4.9 20.734,-6.286 21.462,-8.106 C22.19,-9.926 22.554,-12.124 22.554,-14.7 C22.554,-17.276 22.19,-19.474 21.462,-21.294 C20.734,-23.114 19.719,-24.5 18.417,-25.452 C17.115,-26.404 15.61,-26.88 13.902,-26.88 C12.194,-26.88 10.689,-26.404 9.387,-25.452 C8.085,-24.5 7.07,-23.114 6.342,-21.294 C5.614,-19.474 5.25,-17.276 5.25,-14.7 C5.25,-12.124 5.614,-9.926 6.342,-8.106 C7.07,-6.286 8.085,-4.9 9.387,-3.948 C10.689,-2.996 12.194,-2.52 13.902,-2.52 M31.7801,0.21 C31.1641,0.21 30.6391,-0.014 30.2051,-0.462 C29.7711,-0.91 29.5541,-1.456 29.5541,-2.1 C29.5541,-2.744 29.7711,-3.283 30.2051,-3.717 C30.6391,-4.151 31.1641,-4.368 31.7801,-4.368 C32.3961,-4.368 32.9281,-4.151 33.3761,-3.717 C33.8241,-3.283 34.0481,-2.744 34.0481,-2.1 C34.0481,-1.456 33.8241,-0.91 33.3761,-0.462 C32.9281,-0.014 32.3961,0.21 31.7801,0.21 M48.8206,-16.8 C51.9006,-16.632 54.2456,-15.799 55.8556,-14.301 C57.4656,-12.803 58.2706,-10.85 58.2706,-8.442 C58.2706,-6.762 57.8646,-5.271 57.0526,-3.969 C56.2406,-2.667 55.0366,-1.638 53.4406,-0.882 C51.8446,-0.126 49.8986,0.252 47.6026,0.252 C45.4746,0.252 43.4656,-0.091 41.5756,-0.777 C39.6856,-1.463 38.1666,-2.38 37.0186,-3.528 L38.4886,-5.922 C39.4686,-4.914 40.7706,-4.095 42.3946,-3.465 C44.0186,-2.835 45.7546,-2.52 47.6026,-2.52 C50.0106,-2.52 51.8726,-3.045 53.1886,-4.095 C54.5046,-5.145 55.1626,-6.594 55.1626,-8.442 C55.1626,-10.262 54.5046,-11.69 53.1886,-12.726 C51.8726,-13.762 49.8846,-14.28 47.2246,-14.28 L45.1246,-14.28 L45.1246,-16.506 L53.2726,-26.712 L38.2366,-26.712 L38.2366,-29.4 L57.1366,-29.4 L57.1366,-27.258 L48.8206,-16.8 M103.038,-22.26 C105.81,-22.26 107.987,-21.462 109.569,-19.866 C111.151,-18.27 111.942,-15.918 111.942,-12.81 L111.942,0 L108.96,0 L108.96,-12.516 C108.96,-14.812 108.407,-16.562 107.301,-17.766 C106.195,-18.97 104.634,-19.572 102.618,-19.572 C100.322,-19.572 98.5161,-18.865 97.2001,-17.451 C95.8841,-16.037 95.2261,-14.084 95.2261,-11.592 L95.2261,0 L92.2441,0 L92.2441,-12.516 C92.2441,-14.812 91.6911,-16.562 90.5851,-17.766 C89.4791,-18.97 87.9041,-19.572 85.8601,-19.572 C83.5921,-19.572 81.7931,-18.865 80.4631,-17.451 C79.1331,-16.037 78.4681,-14.084 78.4681,-11.592 L78.4681,0 L75.4861,0 L75.4861,-22.092 L78.3421,-22.092 L78.3421,-18.06 C79.1261,-19.404 80.2181,-20.44 81.6181,-21.168 C83.0181,-21.896 84.6281,-22.26 86.4481,-22.26 C88.2961,-22.26 89.8991,-21.868 91.2571,-21.084 C92.6151,-20.3 93.6301,-19.138 94.3021,-17.598 C95.1141,-19.054 96.2831,-20.195 97.8091,-21.021 C99.3351,-21.847 101.078,-22.26 103.038,-22.26 M140.565,-22.092 L140.565,-2.688 C140.565,1.064 139.648,3.843 137.814,5.649 C135.98,7.455 133.215,8.358 129.519,8.358 C127.475,8.358 125.536,8.057 123.702,7.455 C121.868,6.853 120.377,6.02 119.229,4.956 L120.741,2.688 C121.805,3.64 123.1,4.382 124.626,4.914 C126.152,5.446 127.755,5.712 129.435,5.712 C132.235,5.712 134.293,5.061 135.609,3.759 C136.925,2.457 137.583,0.434 137.583,-2.31 L137.583,-5.124 C136.659,-3.724 135.448,-2.66 133.95,-1.932 C132.452,-1.204 130.793,-0.84 128.973,-0.84 C126.901,-0.84 125.018,-1.295 123.324,-2.205 C121.63,-3.115 120.3,-4.389 119.334,-6.027 C118.368,-7.665 117.885,-9.52 117.885,-11.592 C117.885,-13.664 118.368,-15.512 119.334,-17.136 C120.3,-18.76 121.623,-20.02 123.303,-20.916 C124.983,-21.812 126.873,-22.26 128.973,-22.26 C130.849,-22.26 132.543,-21.882 134.055,-21.126 C135.567,-20.37 136.785,-19.278 137.709,-17.85 L137.709,-22.092 L140.565,-22.092 M129.267,-3.486 C130.863,-3.486 132.305,-3.829 133.593,-4.515 C134.881,-5.201 135.882,-6.16 136.596,-7.392 C137.31,-8.624 137.667,-10.024 137.667,-11.592 C137.667,-13.16 137.31,-14.553 136.596,-15.771 C135.882,-16.989 134.888,-17.941 133.614,-18.627 C132.34,-19.313 130.891,-19.656 129.267,-19.656 C127.671,-19.656 126.236,-19.32 124.962,-18.648 C123.688,-17.976 122.694,-17.024 121.98,-15.792 C121.266,-14.56 120.909,-13.16 120.909,-11.592 C120.909,-10.024 121.266,-8.624 121.98,-7.392 C122.694,-6.16 123.688,-5.201 124.962,-4.515 C126.236,-3.829 127.671,-3.486 129.267,-3.486 M157.56,-35.364 L160.29,-35.364 L146.43,4.2 L143.7,4.2 L157.56,-35.364 M162.971,-31.164 L165.952,-31.164 L165.952,0 L162.971,0 L162.971,-31.164" vector-effect="none"/>
  </g>
  <g stroke-linecap="square" stroke-width="1" transform="matrix(0.318868,0,0,0.318868,918,143.074)" stroke="#000000" stroke-linejoin="bevel" font-size="32.5" stroke-opacity="1" font-weight="400" fill="none" font-family="MS Shell Dlg 2" font-style="normal"/>
  <g stroke-linecap="square" stroke-width="1" transform="matrix(0.996462,0,0,0.996462,0,0)" stroke="#000000" stroke-linejoin="bevel" font-size="32.5" stroke-opacity="1" font-weight="400" fill="none" font-family="MS Shell Dlg 2" font-style="normal"/>
  <g stroke-linecap="square" stroke-width="1" transform="matrix(0.318868,0,0,0.318868,1228.19,143.074)" stroke="#000000" stroke-linejoin="bevel" font-size="32.5" stroke-opacity="1" font-weight="400" fill="none" font-family="MS Shell Dlg 2" font-style="normal"/>
  <g transform="matrix(0.996462,0,0,0.996462,1228.19,143.074)" stroke="none" font-size="32.5" font-weight="400" fill="#000000" fill-opacity="1" font-family="MS Shell Dlg 2" font-style="normal">
   <path fill-rule="nonzero" d="M27.174,-7.728 L21.294,-7.728 L21.294,0 L18.27,0 L18.27,-7.728 L1.68,-7.728 L1.68,-9.912 L17.262,-29.4 L20.622,-29.4 L5.586,-10.416 L18.354,-10.416 L18.354,-17.22 L21.294,-17.22 L21.294,-10.416 L27.174,-10.416 L27.174,-7.728 M70.46,-22.26 C73.232,-22.26 75.409,-21.462 76.991,-19.866 C78.573,-18.27 79.364,-15.918 79.364,-12.81 L79.364,0 L76.382,0 L76.382,-12.516 C76.382,-14.812 75.829,-16.562 74.723,-17.766 C73.617,-18.97 72.056,-19.572 70.04,-19.572 C67.744,-19.572 65.938,-18.865 64.622,-17.451 C63.306,-16.037 62.648,-14.084 62.648,-11.592 L62.648,0 L59.666,0 L59.666,-12.516 C59.666,-14.812 59.113,-16.562 58.007,-17.766 C56.901,-18.97 55.326,-19.572 53.282,-19.572 C51.014,-19.572 49.215,-18.865 47.885,-17.451 C46.555,-16.037 45.89,-14.084 45.89,-11.592 L45.89,0 L42.908,0 L42.908,-22.092 L45.764,-22.092 L45.764,-18.06 C46.548,-19.404 47.64,-20.44 49.04,-21.168 C50.44,-21.896 52.05,-22.26 53.87,-22.26 C55.718,-22.26 57.321,-21.868 58.679,-21.084 C60.037,-20.3 61.052,-19.138 61.724,-17.598 C62.536,-19.054 63.705,-20.195 65.231,-21.021 C66.757,-21.847 68.5,-22.26 70.46,-22.26 M107.987,-22.092 L107.987,-2.688 C107.987,1.064 107.07,3.843 105.236,5.649 C103.402,7.455 100.637,8.358 96.941,8.358 C94.897,8.358 92.958,8.057 91.124,7.455 C89.29,6.853 87.799,6.02 86.651,4.956 L88.163,2.688 C89.227,3.64 90.522,4.382 92.048,4.914 C93.574,5.446 95.177,5.712 96.857,5.712 C99.657,5.712 101.715,5.061 103.031,3.759 C104.347,2.457 105.005,0.434 105.005,-2.31 L105.005,-5.124 C104.081,-3.724 102.87,-2.66 101.372,-1.932 C99.874,-1.204 98.215,-0.84 96.395,-0.84 C94.323,-0.84 92.44,-1.295 90.746,-2.205 C89.052,-3.115 87.722,-4.389 86.756,-6.027 C85.79,-7.665 85.307,-9.52 85.307,-11.592 C85.307,-13.664 85.79,-15.512 86.756,-17.136 C87.722,-18.76 89.045,-20.02 90.725,-20.916 C92.405,-21.812 94.295,-22.26 96.395,-22.26 C98.271,-22.26 99.965,-21.882 101.477,-21.126 C102.989,-20.37 104.207,-19.278 105.131,-17.85 L105.131,-22.092 L107.987,-22.092 M96.689,-3.486 C98.285,-3.486 99.727,-3.829 101.015,-4.515 C102.303,-5.201 103.304,-6.16 104.018,-7.392 C104.732,-8.624 105.089,-10.024 105.089,-11.592 C105.089,-13.16 104.732,-14.553 104.018,-15.771 C103.304,-16.989 102.31,-17.941 101.036,-18.627 C99.762,-19.313 98.313,-19.656 96.689,-19.656 C95.093,-19.656 93.658,-19.32 92.384,-18.648 C91.11,-17.976 90.116,-17.024 89.402,-15.792 C88.688,-14.56 88.331,-13.16 88.331,-11.592 C88.331,-10.024 88.688,-8.624 89.402,-7.392 C90.116,-6.16 91.11,-5.201 92.384,-4.515 C93.658,-3.829 95.093,-3.486 96.689,-3.486 M124.982,-35.364 L127.712,-35.364 L113.852,4.2 L111.122,4.2 L124.982,-35.364 M130.392,-31.164 L133.374,-31.164 L133.374,0 L130.392,0 L130.392,-31.164" vector-effect="none"/>
  </g>
  <g stroke-linecap="square" stroke-width="1" transform="matrix(0.318868,0,0,0.318868,1228.19,143.074)" stroke="#000000" stroke-linejoin="bevel" font-size="32.5" stroke-opacity="1" font-weight="400" fill="none" font-family="MS Shell Dlg 2" font-style="normal"/>
  <g stroke-linecap="square" stroke-width="1" transform="matrix(0.996462,0,0,0.996462,0,0)" stroke="#000000" stroke-linejoin="bevel" font-size="32.5" stroke-opacity="1" font-weight="400" fill="none" font-family="MS Shell Dlg 2" font-style="normal"/>
  <g stroke-linecap="square" stroke-width="1" transform="matrix(11.7692,0,0,11.7692,0,0)" stroke="#000000" stroke-linejoin="bevel" font-size="32.5" stroke-opacity="1" font-weight="400" fill="none" font-family="MS Shell Dlg 2" font-style="normal"/>
  <g stroke-linecap="square" stroke-width="1" transform="matrix(0.996462,0,0,0.996462,0,0)" stroke="#000000" stroke-linejoin="bevel" font-size="32.5" stroke-opacity="1" font-weight="400" fill="none" font-family="MS Shell Dlg 2" font-style="normal"/>
  <g stroke-linecap="square" stroke-width="1" transform="matrix(0.318868,0,0,0.318868,1377,43.7626)" stroke="#000000" stroke-linejoin="bevel" font-size="32.5" stroke-opacity="1" font-weight="400" fill="none" font-family="MS Shell Dlg 2" font-style="normal"/>
  <g transform="matrix(0.996462,0,0,0.996462,1377,43.7626)" stroke="none" font-size="32.5" font-weight="400" fill="#000000" fill-opacity="1" font-family="MS Shell Dlg 2" font-style="normal">
   <path fill-rule="nonzero" d="M19.228,0.276 C16.0387,0.276 13.1637,-0.429333 10.603,-1.84 C8.04233,-3.25067 6.03367,-5.20567 4.577,-7.705 C3.12033,-10.2043 2.392,-13.0027 2.392,-16.1 C2.392,-19.1973 3.12033,-21.9957 4.577,-24.495 C6.03367,-26.9943 8.05,-28.9493 10.626,-30.36 C13.202,-31.7707 16.0847,-32.476 19.274,-32.476 C21.666,-32.476 23.874,-32.0773 25.898,-31.28 C27.922,-30.4827 29.6393,-29.3173 31.05,-27.784 L28.888,-25.622 C26.3733,-28.1673 23.1993,-29.44 19.366,-29.44 C16.8207,-29.44 14.5053,-28.8573 12.42,-27.692 C10.3347,-26.5267 8.70167,-24.932 7.521,-22.908 C6.34033,-20.884 5.75,-18.6147 5.75,-16.1 C5.75,-13.5853 6.34033,-11.316 7.521,-9.292 C8.70167,-7.268 10.3347,-5.67333 12.42,-4.508 C14.5053,-3.34267 16.8207,-2.76 19.366,-2.76 C23.23,-2.76 26.404,-4.048 28.888,-6.624 L31.05,-4.462 C29.6393,-2.92867 27.9143,-1.75567 25.875,-0.943 C23.8357,-0.130333 21.62,0.276 19.228,0.276 M37.6165,-34.132 L40.8825,-34.132 L40.8825,0 L37.6165,0 L37.6165,-34.132 M59.8659,0.23 C57.5352,0.23 55.4345,-0.299 53.5639,-1.357 C51.6932,-2.415 50.2212,-3.87933 49.1479,-5.75 C48.0745,-7.62067 47.5379,-9.73667 47.5379,-12.098 C47.5379,-14.4593 48.0745,-16.5753 49.1479,-18.446 C50.2212,-20.3167 51.6932,-21.7733 53.5639,-22.816 C55.4345,-23.8587 57.5352,-24.38 59.8659,-24.38 C62.1965,-24.38 64.2972,-23.8587 66.1679,-22.816 C68.0385,-21.7733 69.5029,-20.3167 70.5609,-18.446 C71.6189,-16.5753 72.1479,-14.4593 72.1479,-12.098 C72.1479,-9.73667 71.6189,-7.62067 70.5609,-5.75 C69.5029,-3.87933 68.0385,-2.415 66.1679,-1.357 C64.2972,-0.299 62.1965,0.23 59.8659,0.23 M59.8659,-2.668 C61.5832,-2.668 63.1242,-3.059 64.4889,-3.841 C65.8535,-4.623 66.9192,-5.73467 67.6859,-7.176 C68.4525,-8.61733 68.8359,-10.258 68.8359,-12.098 C68.8359,-13.938 68.4525,-15.5787 67.6859,-17.02 C66.9192,-18.4613 65.8535,-19.573 64.4889,-20.355 C63.1242,-21.137 61.5832,-21.528 59.8659,-21.528 C58.1485,-21.528 56.6075,-21.137 55.2429,-20.355 C53.8782,-19.573 52.8049,-18.4613 52.0229,-17.02 C51.2409,-15.5787 50.8499,-13.938 50.8499,-12.098 C50.8499,-10.258 51.2409,-8.61733 52.0229,-7.176 C52.8049,-5.73467 53.8782,-4.623 55.2429,-3.841 C56.6075,-3.059 58.1485,-2.668 59.8659,-2.668 M81.932,-19.458 C82.6987,-21.0833 83.841,-22.31 85.359,-23.138 C86.877,-23.966 88.7553,-24.38 90.994,-24.38 L90.994,-21.206 L90.212,-21.252 C87.6667,-21.252 85.6733,-20.47 84.232,-18.906 C82.7907,-17.342 82.07,-15.1493 82.07,-12.328 L82.07,0 L78.804,0 L78.804,-24.196 L81.932,-24.196 L81.932,-19.458 M106.538,0.23 C104.207,0.23 102.106,-0.299 100.236,-1.357 C98.3651,-2.415 96.8931,-3.87933 95.8197,-5.75 C94.7464,-7.62067 94.2097,-9.73667 94.2097,-12.098 C94.2097,-14.4593 94.7464,-16.5753 95.8197,-18.446 C96.8931,-20.3167 98.3651,-21.7733 100.236,-22.816 C102.106,-23.8587 104.207,-24.38 106.538,-24.38 C108.868,-24.38 110.969,-23.8587 112.84,-22.816 C114.71,-21.7733 116.175,-20.3167 117.233,-18.446 C118.291,-16.5753 118.82,-14.4593 118.82,-12.098 C118.82,-9.73667 118.291,-7.62067 117.233,-5.75 C116.175,-3.87933 114.71,-2.415 112.84,-1.357 C110.969,-0.299 108.868,0.23 106.538,0.23 M106.538,-2.668 C108.255,-2.668 109.796,-3.059 111.161,-3.841 C112.525,-4.623 113.591,-5.73467 114.358,-7.176 C115.124,-8.61733 115.508,-10.258 115.508,-12.098 C115.508,-13.938 115.124,-15.5787 114.358,-17.02 C113.591,-18.4613 112.525,-19.573 111.161,-20.355 C109.796,-21.137 108.255,-21.528 106.538,-21.528 C104.82,-21.528 103.279,-21.137 101.915,-20.355 C100.55,-19.573 99.4767,-18.4613 98.6947,-17.02 C97.9128,-15.5787 97.5217,-13.938 97.5218,-12.098 C97.5217,-10.258 97.9128,-8.61733 98.6947,-7.176 C99.4767,-5.73467 100.55,-4.623 101.915,-3.841 C103.279,-3.059 104.82,-2.668 106.538,-2.668 M133.48,-31.602 C132.069,-31.602 131.004,-31.2187 130.283,-30.452 C129.562,-29.6853 129.202,-28.5507 129.202,-27.048 L129.202,-24.196 L136.654,-24.196 L136.654,-21.436 L129.294,-21.436 L129.294,0 L126.028,0 L126.028,-21.436 L121.704,-21.436 L121.704,-24.196 L126.028,-24.196 L126.028,-27.186 C126.028,-29.394 126.664,-31.142 127.937,-32.43 C129.21,-33.718 131.011,-34.362 133.342,-34.362 C134.262,-34.362 135.151,-34.2317 136.01,-33.971 C136.869,-33.7103 137.589,-33.3347 138.172,-32.844 L137.068,-30.406 C136.117,-31.2033 134.921,-31.602 133.48,-31.602 M144.75,-24.196 L148.016,-24.196 L148.016,0 L144.75,0 L144.75,-24.196 M146.406,-29.486 C145.731,-29.486 145.164,-29.716 144.704,-30.176 C144.244,-30.636 144.014,-31.188 144.014,-31.832 C144.014,-32.4453 144.244,-32.982 144.704,-33.442 C145.164,-33.902 145.731,-34.132 146.406,-34.132 C147.081,-34.132 147.648,-33.9097 148.108,-33.465 C148.568,-33.0203 148.798,-32.4913 148.798,-31.878 C148.798,-31.2033 148.568,-30.636 148.108,-30.176 C147.648,-29.716 147.081,-29.486 146.406,-29.486 M157.117,-34.132 L160.383,-34.132 L160.383,0 L157.117,0 L157.117,-34.132 M177.94,-24.38 C181.099,-24.38 183.521,-23.5903 185.208,-22.011 C186.895,-20.4317 187.738,-18.0933 187.738,-14.996 L187.738,0 L184.61,0 L184.61,-3.772 C183.874,-2.51467 182.793,-1.53333 181.367,-0.828 C179.941,-0.122667 178.247,0.23 176.284,0.23 C173.585,0.23 171.439,-0.414 169.844,-1.702 C168.249,-2.99 167.452,-4.692 167.452,-6.808 C167.452,-8.86267 168.196,-10.5187 169.683,-11.776 C171.17,-13.0333 173.539,-13.662 176.79,-13.662 L184.472,-13.662 L184.472,-15.134 C184.472,-17.2193 183.889,-18.8063 182.724,-19.895 C181.559,-20.9837 179.857,-21.528 177.618,-21.528 C176.085,-21.528 174.613,-21.275 173.202,-20.769 C171.791,-20.263 170.58,-19.5653 169.568,-18.676 L168.096,-21.114 C169.323,-22.1567 170.795,-22.9617 172.512,-23.529 C174.229,-24.0963 176.039,-24.38 177.94,-24.38 M176.79,-2.346 C178.63,-2.346 180.209,-2.76767 181.528,-3.611 C182.847,-4.45433 183.828,-5.67333 184.472,-7.268 L184.472,-11.224 L176.882,-11.224 C172.742,-11.224 170.672,-9.78267 170.672,-6.9 C170.672,-5.48933 171.209,-4.37767 172.282,-3.565 C173.355,-2.75233 174.858,-2.346 176.79,-2.346 M194.807,-13.892 L206.859,-13.892 L206.859,-11.04 L194.807,-11.04 L194.807,-13.892 M222.627,-24.38 C225.786,-24.38 228.209,-23.5903 229.895,-22.011 C231.582,-20.4317 232.425,-18.0933 232.425,-14.996 L232.425,0 L229.297,0 L229.297,-3.772 C228.561,-2.51467 227.48,-1.53333 226.054,-0.828 C224.628,-0.122667 222.934,0.23 220.971,0.23 C218.273,0.23 216.126,-0.414 214.531,-1.702 C212.937,-2.99 212.139,-4.692 212.139,-6.808 C212.139,-8.86267 212.883,-10.5187 214.37,-11.776 C215.858,-13.0333 218.227,-13.662 221.477,-13.662 L229.159,-13.662 L229.159,-15.134 C229.159,-17.2193 228.577,-18.8063 227.411,-19.895 C226.246,-20.9837 224.544,-21.528 222.305,-21.528 C220.772,-21.528 219.3,-21.275 217.889,-20.769 C216.479,-20.263 215.267,-19.5653 214.255,-18.676 L212.783,-21.114 C214.01,-22.1567 215.482,-22.9617 217.199,-23.529 C218.917,-24.0963 220.726,-24.38 222.627,-24.38 M221.477,-2.346 C223.317,-2.346 224.897,-2.76767 226.215,-3.611 C227.534,-4.45433 228.515,-5.67333 229.159,-7.268 L229.159,-11.224 L221.569,-11.224 C217.429,-11.224 215.359,-9.78267 215.359,-6.9 C215.359,-5.48933 215.896,-4.37767 216.969,-3.565 C218.043,-2.75233 219.545,-2.346 221.477,-2.346 M258.901,8.924 C257.184,6.10267 255.865,2.85967 254.945,-0.805 C254.025,-4.46967 253.565,-8.40267 253.565,-12.604 C253.565,-16.8053 254.025,-20.7537 254.945,-24.449 C255.865,-28.1443 257.184,-31.372 258.901,-34.132 L262.029,-34.132 C260.22,-31.0347 258.894,-27.7073 258.05,-24.15 C257.207,-20.5927 256.785,-16.744 256.785,-12.604 C256.785,-8.464 257.207,-4.61533 258.05,-1.058 C258.894,2.49933 260.22,5.82667 262.029,8.924 L258.901,8.924 M290.264,-24.196 L290.264,0 L287.136,0 L287.136,-4.416 C286.278,-2.944 285.097,-1.80167 283.594,-0.989 C282.092,-0.176333 280.374,0.23 278.442,0.23 C275.284,0.23 272.792,-0.651667 270.967,-2.415 C269.143,-4.17833 268.23,-6.762 268.23,-10.166 L268.23,-24.196 L271.496,-24.196 L271.496,-10.488 C271.496,-7.94267 272.125,-6.01067 273.382,-4.692 C274.64,-3.37333 276.434,-2.714 278.764,-2.714 C281.31,-2.714 283.318,-3.48833 284.79,-5.037 C286.262,-6.58567 286.998,-8.74 286.998,-11.5 L286.998,-24.196 L290.264,-24.196 M321.815,-24.196 L321.815,-2.944 C321.815,1.16533 320.811,4.209 318.802,6.187 C316.794,8.165 313.765,9.154 309.717,9.154 C307.479,9.154 305.355,8.82433 303.346,8.165 C301.338,7.50567 299.705,6.59333 298.447,5.428 L300.103,2.944 C301.269,3.98667 302.687,4.79933 304.358,5.382 C306.03,5.96467 307.785,6.256 309.625,6.256 C312.692,6.256 314.946,5.543 316.387,4.117 C317.829,2.691 318.549,0.475333 318.549,-2.53 L318.549,-5.612 C317.537,-4.07867 316.211,-2.91333 314.57,-2.116 C312.93,-1.31867 311.113,-0.92 309.119,-0.92 C306.85,-0.92 304.788,-1.41833 302.932,-2.415 C301.077,-3.41167 299.62,-4.807 298.562,-6.601 C297.504,-8.395 296.975,-10.4267 296.975,-12.696 C296.975,-14.9653 297.504,-16.9893 298.562,-18.768 C299.62,-20.5467 301.069,-21.9267 302.909,-22.908 C304.749,-23.8893 306.819,-24.38 309.119,-24.38 C311.174,-24.38 313.029,-23.966 314.685,-23.138 C316.341,-22.31 317.675,-21.114 318.687,-19.55 L318.687,-24.196 L321.815,-24.196 M309.441,-3.818 C311.189,-3.818 312.769,-4.19367 314.179,-4.945 C315.59,-5.69633 316.686,-6.74667 317.468,-8.096 C318.25,-9.44533 318.641,-10.9787 318.641,-12.696 C318.641,-14.4133 318.25,-15.939 317.468,-17.273 C316.686,-18.607 315.598,-19.6497 314.202,-20.401 C312.807,-21.1523 311.22,-21.528 309.441,-21.528 C307.693,-21.528 306.122,-21.16 304.726,-20.424 C303.331,-19.688 302.242,-18.6453 301.46,-17.296 C300.678,-15.9467 300.287,-14.4133 300.287,-12.696 C300.287,-10.9787 300.678,-9.44533 301.46,-8.096 C302.242,-6.74667 303.331,-5.69633 304.726,-4.945 C306.122,-4.19367 307.693,-3.818 309.441,-3.818 M340.436,-38.732 L343.426,-38.732 L328.246,4.6 L325.256,4.6 L340.436,-38.732 M373.418,-24.38 C376.453,-24.38 378.838,-23.506 380.57,-21.758 C382.303,-20.01 383.169,-17.434 383.169,-14.03 L383.169,0 L379.904,0 L379.904,-13.708 C379.904,-16.2227 379.298,-18.1393 378.086,-19.458 C376.875,-20.7767 375.165,-21.436 372.957,-21.436 C370.443,-21.436 368.465,-20.6617 367.023,-19.113 C365.582,-17.5643 364.862,-15.4253 364.862,-12.696 L364.862,0 L361.595,0 L361.595,-13.708 C361.595,-16.2227 360.99,-18.1393 359.779,-19.458 C358.567,-20.7767 356.842,-21.436 354.604,-21.436 C352.12,-21.436 350.149,-20.6617 348.693,-19.113 C347.236,-17.5643 346.508,-15.4253 346.508,-12.696 L346.508,0 L343.241,0 L343.241,-24.196 L346.37,-24.196 L346.37,-19.78 C347.228,-21.252 348.424,-22.3867 349.957,-23.184 C351.491,-23.9813 353.254,-24.38 355.247,-24.38 C357.271,-24.38 359.027,-23.9507 360.514,-23.092 C362.002,-22.2333 363.113,-20.9607 363.849,-19.274 C364.739,-20.8687 366.019,-22.1183 367.69,-23.023 C369.362,-23.9277 371.271,-24.38 373.418,-24.38 M392.038,-34.132 L395.304,-34.132 L395.304,0 L392.038,0 L392.038,-34.132 M401.684,8.924 C403.493,5.82667 404.827,2.507 405.686,-1.035 C406.544,-4.577 406.974,-8.43333 406.974,-12.604 C406.974,-16.7747 406.544,-20.631 405.686,-24.173 C404.827,-27.715 403.493,-31.0347 401.684,-34.132 L404.812,-34.132 C406.529,-31.372 407.855,-28.1443 408.791,-24.449 C409.726,-20.7537 410.194,-16.8053 410.194,-12.604 C410.194,-8.40267 409.734,-4.462 408.814,-0.782 C407.894,2.898 406.56,6.13333 404.812,8.924 L401.684,8.924" vector-effect="none"/>
  </g>
  <g stroke-linecap="square" stroke-width="1" transform="matrix(0.318868,0,0,0.318868,1377,43.7626)" stroke="#000000" stroke-linejoin="bevel" font-size="32.5" stroke-opacity="1" font-weight="400" fill="none" font-family="MS Shell Dlg 2" font-style="normal"/>
  <g stroke-linecap="square" stroke-width="1" transform="matrix(0.996462,0,0,0.996462,0,0)" stroke="#000000" stroke-linejoin="bevel" font-size="32.5" stroke-opacity="1" font-weight="400" fill="none" font-family="MS Shell Dlg 2" font-style="normal"/>
  <g stroke-linecap="square" stroke-width="1" transform="matrix(11.7692,0,0,11.7692,0,0)" stroke="#000000" stroke-linejoin="bevel" font-size="32.5" stroke-opacity="1" font-weight="400" fill="none" font-family="MS Shell Dlg 2" font-style="normal"/>
  <g stroke-linecap="square" stroke-width="1" transform="matrix(0.996462,0,0,0.996462,0,0)" stroke="#000000" stroke-linejoin="miter" font-size="32.5" stroke-opacity="1" stroke-miterlimit="2" font-weight="400" fill="url(#gradient4)" font-family="MS Shell Dlg 2" font-style="normal">
   <rect width="448" height="47" vector-effect="non-scaling-stroke" y="56" x="1381"/>
  </g>
  <g stroke-linecap="square" stroke-width="1" transform="matrix(11.7692,0,0,11.7692,0,0)" stroke="#000000" stroke-linejoin="bevel" font-size="32.5" stroke-opacity="1" font-weight="400" fill="none" font-family="MS Shell Dlg 2" font-style="normal"/>
  <g stroke-linecap="square" stroke-width="1" transform="matrix(0.996462,0,0,0.996462,0,0)" stroke="#000000" stroke-linejoin="bevel" font-size="32.5" stroke-opacity="1" font-weight="400" fill="none" font-family="MS Shell Dlg 2" font-style="normal"/>
  <g stroke-linecap="square" stroke-width="1" transform="matrix(0.318868,0,0,0.318868,1377,143.074)" stroke="#000000" stroke-linejoin="bevel" font-size="32.5" stroke-opacity="1" font-weight="400" fill="none" font-family="MS Shell Dlg 2" font-style="normal"/>
  <g transform="matrix(0.996462,0,0,0.996462,1377,143.074)" stroke="none" font-size="32.5" font-weight="400" fill="#000000" fill-opacity="1" font-family="MS Shell Dlg 2" font-style="normal">
   <path fill-rule="nonzero" d="M13.902,0.252 C11.634,0.252 9.611,-0.35 7.833,-1.554 C6.055,-2.758 4.669,-4.487 3.675,-6.741 C2.681,-8.995 2.184,-11.648 2.184,-14.7 C2.184,-17.752 2.681,-20.405 3.675,-22.659 C4.669,-24.913 6.055,-26.642 7.833,-27.846 C9.611,-29.05 11.634,-29.652 13.902,-29.652 C16.17,-29.652 18.193,-29.05 19.971,-27.846 C21.749,-26.642 23.142,-24.913 24.15,-22.659 C25.158,-20.405 25.662,-17.752 25.662,-14.7 C25.662,-11.648 25.158,-8.995 24.15,-6.741 C23.142,-4.487 21.749,-2.758 19.971,-1.554 C18.193,-0.35 16.17,0.252 13.902,0.252 M13.902,-2.52 C15.61,-2.52 17.115,-2.996 18.417,-3.948 C19.719,-4.9 20.734,-6.286 21.462,-8.106 C22.19,-9.926 22.554,-12.124 22.554,-14.7 C22.554,-17.276 22.19,-19.474 21.462,-21.294 C20.734,-23.114 19.719,-24.5 18.417,-25.452 C17.115,-26.404 15.61,-26.88 13.902,-26.88 C12.194,-26.88 10.689,-26.404 9.387,-25.452 C8.085,-24.5 7.07,-23.114 6.342,-21.294 C5.614,-19.474 5.25,-17.276 5.25,-14.7 C5.25,-12.124 5.614,-9.926 6.342,-8.106 C7.07,-6.286 8.085,-4.9 9.387,-3.948 C10.689,-2.996 12.194,-2.52 13.902,-2.52 " vector-effect="none"/>
  </g>
  <g stroke-linecap="square" stroke-width="1" transform="matrix(0.318868,0,0,0.318868,1377,143.074)" stroke="#000000" stroke-linejoin="bevel" font-size="32.5" stroke-opacity="1" font-weight="400" fill="none" font-family="MS Shell Dlg 2" font-style="normal"/>
  <g stroke-linecap="square" stroke-width="1" transform="matrix(0.996462,0,0,0.996462,0,0)" stroke="#000000" stroke-linejoin="bevel" font-size="32.5" stroke-opacity="1" font-weight="400" fill="none" font-family="MS Shell Dlg 2" font-style="normal"/>
  <g stroke-linecap="square" stroke-width="1" transform="matrix(0.318868,0,0,0.318868,1800.47,143.074)" stroke="#000000" stroke-linejoin="bevel" font-size="32.5" stroke-opacity="1" font-weight="400" fill="none" font-family="MS Shell Dlg 2" font-style="normal"/>
  <g transform="matrix(0.996462,0,0,0.996462,1800.47,143.074)" stroke="none" font-size="32.5" font-weight="400" fill="#000000" fill-opacity="1" font-family="MS Shell Dlg 2" font-style="normal">
   <path fill-rule="nonzero" d="M22.26,-2.688 L22.26,0 L1.638,0 L1.638,-2.142 L13.86,-14.112 C15.4,-15.624 16.443,-16.933 16.989,-18.039 C17.535,-19.145 17.808,-20.258 17.808,-21.378 C17.808,-23.114 17.213,-24.465 16.023,-25.431 C14.833,-26.397 13.132,-26.88 10.92,-26.88 C7.476,-26.88 4.802,-25.788 2.898,-23.604 L0.756,-25.452 C1.904,-26.796 3.367,-27.832 5.145,-28.56 C6.923,-29.288 8.932,-29.652 11.172,-29.652 C14.168,-29.652 16.541,-28.945 18.291,-27.531 C20.041,-26.117 20.916,-24.178 20.916,-21.714 C20.916,-20.202 20.58,-18.746 19.908,-17.346 C19.236,-15.946 17.962,-14.336 16.086,-12.516 L6.09,-2.688 L22.26,-2.688" vector-effect="none"/>
  </g>
  <g stroke-linecap="square" stroke-width="1" transform="matrix(0.318868,0,0,0.318868,1800.47,143.074)" stroke="#000000" stroke-linejoin="bevel" font-size="32.5" stroke-opacity="1" font-weight="400" fill="none" font-family="MS Shell Dlg 2" font-style="normal"/>
  <g stroke-linecap="square" stroke-width="1" transform="matrix(0.996462,0,0,0.996462,0,0)" stroke="#000000" stroke-linejoin="bevel" font-size="32.5" stroke-opacity="1" font-weight="400" fill="none" font-family="MS Shell Dlg 2" font-style="normal"/>
  <g stroke-linecap="square" stroke-width="1" transform="matrix(11.7692,0,0,11.7692,0,0)" stroke="#000000" stroke-linejoin="bevel" font-size="32.5" stroke-opacity="1" font-weight="400" fill="none" font-family="MS Shell Dlg 2" font-style="normal"/>
  <g stroke-linecap="square" stroke-width="1" transform="matrix(0.996462,0,0,0.996462,0,0)" stroke="#000000" stroke-linejoin="bevel" font-size="32.5" stroke-opacity="1" font-weight="400" fill="none" font-family="MS Shell Dlg 2" font-style="normal"/>
  <g stroke-linecap="square" stroke-width="1" transform="matrix(11.7692,0,0,11.7692,0,0)" stroke="#000000" stroke-linejoin="bevel" font-size="32.5" stroke-opacity="1" font-weight="400" fill="none" font-family="MS Shell Dlg 2" font-style="normal"/>
  <g stroke-linecap="square" stroke-width="1" transform="matrix(11.7692,0,0,11.7692,0,0)" stroke="#000000" stroke-linejoin="bevel" font-size="32.5" stroke-opacity="1" font-weight="400" fill="none" font-family="MS Shell Dlg 2" font-style="normal"/>
  <g stroke-linecap="square" stroke-width="1" transform="matrix(11.7692,0,0,11.7692,0,0)" stroke="#000000" stroke-linejoin="bevel" font-size="32.5" stroke-opacity="1" font-weight="400" fill="none" font-family="MS Shell Dlg 2" font-style="normal"/>
  <g stroke-linecap="square" stroke-width="1" transform="matrix(1,0,0,1,0,0)" stroke="#000000" stroke-linejoin="bevel" font-size="32.5" stroke-opacity="1" font-weight="400" fill="none" font-family="MS Shell Dlg 2" font-style="normal"/>
 </g>
 <metadata>
  <rdf:RDF xmlns:rdfs="http://www.w3.org/2000/01/rdf-schema#" xmlns:rdf="http://www.w3.org/1999/02/22-rdf-syntax-ns#" xmlns:dc="http://purl.org/dc/elements/1.1/">
   <rdf:Description dc:format="image/svg+xml" dc:identifier="" dc:title="" dc:date="2021-12-09T10:37:00" dc:description="">
    <dc:creator>
     <rdf:Bag>
      <rdf:li>INAPESCA</rdf:li>
     </rdf:Bag>
    </dc:creator>
    <dc:publisher>
     <rdf:Bag>
      <rdf:li>QGIS 3.34.0-Prizren</rdf:li>
     </rdf:Bag>
    </dc:publisher>
    <dc:subject>
     <rdf:Bag/>
    </dc:subject>
   </rdf:Description>
   <cc:Work rdf:about="">
    <dc:format>image/svg+xml</dc:format>
    <dc:title></dc:title>
    <dc:date>2021-12-09T10:37:00</dc:date>
    <dc:identifier></dc:identifier>
    <dc:description></dc:description>
    <dc:creator>
     <cc:Agent>
      <dc:title>INAPESCA</dc:title>
     </cc:Agent>
    </dc:creator>
    <dc:publisher>
     <cc:Agent>
      <dc:title>QGIS 3.34.0-Prizren</dc:title>
     </cc:Agent>
    </dc:publisher>
   </cc:Work>
  </rdf:RDF>
 </metadata>
</svg>
