<?xml version='1.0' encoding='UTF-8' standalone='no'?>
<svg xmlns:xlink="http://www.w3.org/1999/xlink" xmlns:cc="http://creativecommons.org/ns#" height="10.922mm" baseProfile="tiny" viewBox="0 0 708 129" width="59.944mm" version="1.2" xmlns="http://www.w3.org/2000/svg">
 <defs>
  <linearGradient y2="0" gradientUnits="userSpaceOnUse" x2="696.85" y1="0" x1="0" id="gradient1">
   <stop stop-color="#3400cc" stop-opacity="1" offset="0"/>
   <stop stop-color="#0060ff" stop-opacity="1" offset="0.058"/>
   <stop stop-color="#009cff" stop-opacity="1" offset="0.116"/>
   <stop stop-color="#00ffff" stop-opacity="1" offset="0.174"/>
   <stop stop-color="#00ffb7" stop-opacity="1" offset="0.232"/>
   <stop stop-color="#00ff87" stop-opacity="1" offset="0.29"/>
   <stop stop-color="#00ff57" stop-opacity="1" offset="0.348"/>
   <stop stop-color="#57ff00" stop-opacity="1" offset="0.406"/>
   <stop stop-color="#6fff00" stop-opacity="1" offset="0.464"/>
   <stop stop-color="#9fff00" stop-opacity="1" offset="0.522"/>
   <stop stop-color="#ffef00" stop-opacity="1" offset="0.58"/>
   <stop stop-color="#ffcf00" stop-opacity="1" offset="0.638"/>
   <stop stop-color="#ffaf00" stop-opacity="1" offset="0.696"/>
   <stop stop-color="#ff7f00" stop-opacity="1" offset="0.754"/>
   <stop stop-color="#ff5f00" stop-opacity="1" offset="0.812"/>
   <stop stop-color="#ff3f00" stop-opacity="1" offset="0.87"/>
   <stop stop-color="#ff2f00" stop-opacity="1" offset="0.928"/>
   <stop stop-color="#7a0403" stop-opacity="1" offset="1"/>
  </linearGradient>
 </defs>
 <g fill="none" stroke-width="1" stroke-linecap="square" stroke-linejoin="bevel" fill-rule="evenodd" stroke="black">
  <g fill="none" stroke-width="1" font-size="34.375" stroke-linecap="square" stroke-opacity="1" font-family="MS Shell Dlg 2" stroke-linejoin="bevel" transform="matrix(1,0,0,1,0,0)" stroke="#000000" font-weight="400" font-style="normal"/>
  <g fill="none" stroke-width="1" font-size="34.375" stroke-linecap="square" stroke-opacity="1" font-family="MS Shell Dlg 2" stroke-linejoin="bevel" transform="matrix(1,0,0,1,0,0)" stroke="#000000" font-weight="400" font-style="normal"/>
  <g fill="none" stroke-width="1" font-size="34.375" stroke-linecap="square" stroke-opacity="1" font-family="MS Shell Dlg 2" stroke-linejoin="bevel" transform="matrix(11.7273,0,0,11.7273,0,0)" stroke="#000000" font-weight="400" font-style="normal"/>
  <g fill="none" stroke-width="1" font-size="34.375" stroke-linecap="square" stroke-opacity="1" font-family="MS Shell Dlg 2" stroke-linejoin="bevel" transform="matrix(0.992909,0,0,0.992909,0,0)" stroke="#000000" font-weight="400" font-style="normal"/>
  <g fill="#ffffff" font-size="34.375" fill-opacity="0" font-family="MS Shell Dlg 2" transform="matrix(0.992909,0,0,0.992909,0,0)" stroke="none" font-weight="400" font-style="normal">
   <path d="M-2,-2 L711,-2 L711,132 L-2,132 L-2,-2" fill-rule="evenodd" vector-effect="none"/>
  </g>
  <g fill="none" stroke-width="1" font-size="34.375" stroke-linecap="square" stroke-opacity="1" font-family="MS Shell Dlg 2" stroke-linejoin="bevel" transform="matrix(0.992909,0,0,0.992909,0,0)" stroke="#000000" font-weight="400" font-style="normal"/>
  <g fill="none" stroke-width="1" font-size="34.375" stroke-linecap="square" stroke-opacity="1" font-family="MS Shell Dlg 2" stroke-linejoin="bevel" transform="matrix(11.7273,0,0,11.7273,0,0)" stroke="#000000" font-weight="400" font-style="normal"/>
  <g fill="none" stroke-width="1" font-size="34.375" stroke-linecap="square" stroke-opacity="1" font-family="MS Shell Dlg 2" stroke-linejoin="bevel" transform="matrix(11.7273,0,0,11.7273,0,0)" stroke="#000000" font-weight="400" font-style="normal"/>
  <g fill="none" stroke-width="1" font-size="34.375" stroke-linecap="square" stroke-opacity="1" font-family="MS Shell Dlg 2" stroke-linejoin="bevel" transform="matrix(11.7273,0,0,11.7273,0,0)" stroke="#000000" font-weight="400" font-style="normal"/>
  <g fill="none" stroke-width="1" font-size="34.375" stroke-linecap="square" stroke-opacity="1" font-family="MS Shell Dlg 2" stroke-linejoin="bevel" transform="matrix(11.7273,0,0,11.7273,0,0)" stroke="#000000" font-weight="400" font-style="normal"/>
  <g fill="none" stroke-width="1" font-size="34.375" stroke-linecap="square" stroke-opacity="1" font-family="MS Shell Dlg 2" stroke-linejoin="bevel" transform="matrix(11.7273,0,0,11.7273,-1.04159e-14,0)" stroke="#000000" font-weight="400" font-style="normal"/>
  <g fill="none" stroke-width="1" font-size="34.375" stroke-linecap="square" stroke-opacity="1" font-family="MS Shell Dlg 2" stroke-linejoin="bevel" transform="matrix(11.7273,0,0,11.7273,-1.04159e-14,0)" stroke="#000000" font-weight="400" font-style="normal"/>
  <g fill="none" stroke-width="1" font-size="34.375" stroke-linecap="square" stroke-opacity="1" font-family="MS Shell Dlg 2" stroke-linejoin="bevel" transform="matrix(0.992909,0,0,0.992909,-1.04159e-14,0)" stroke="#000000" font-weight="400" font-style="normal"/>
  <g fill="none" stroke-width="1" font-size="34.375" stroke-linecap="square" stroke-opacity="1" font-family="MS Shell Dlg 2" stroke-linejoin="bevel" transform="matrix(11.7273,0,0,11.7273,-1.04159e-14,0)" stroke="#000000" font-weight="400" font-style="normal"/>
  <g fill="none" stroke-width="1" font-size="35" stroke-linecap="square" stroke-opacity="1" font-family="Arial" stroke-linejoin="bevel" transform="matrix(1.17273,0,0,1.17273,-1.04159e-14,0)" stroke="#000000" font-weight="400" font-style="normal">
   <text fill="#000000" xml:space="preserve" font-size="35" fill-opacity="1" y="32" font-family="Arial" x="0" stroke="none" font-weight="400" font-style="normal">Batimetría</text>
  </g>
  <g fill="none" stroke-width="1" font-size="34.375" stroke-linecap="square" stroke-opacity="1" font-family="MS Shell Dlg 2" stroke-linejoin="bevel" transform="matrix(11.7273,0,0,11.7273,-1.04159e-14,0)" stroke="#000000" font-weight="400" font-style="normal"/>
  <g fill="url(#gradient1)" stroke-width="1" font-size="34.375" stroke-linecap="square" stroke-opacity="1" font-family="MS Shell Dlg 2" stroke-linejoin="miter" transform="matrix(0.992909,0,0,0.992909,-1.04159e-14,0)" stroke="#000000" stroke-miterlimit="2" font-weight="400" font-style="normal">
   <rect height="35" y="49" x="0" width="696" vector-effect="non-scaling-stroke"/>
  </g>
  <g fill="none" stroke-width="1" font-size="34.375" stroke-linecap="square" stroke-opacity="1" font-family="MS Shell Dlg 2" stroke-linejoin="bevel" transform="matrix(11.7273,0,0,11.7273,-1.04159e-14,0)" stroke="#000000" font-weight="400" font-style="normal"/>
  <g fill="none" stroke-width="1" font-size="34.375" stroke-linecap="square" stroke-opacity="1" font-family="MS Shell Dlg 2" stroke-linejoin="bevel" transform="matrix(0.992909,0,0,0.992909,-1.04159e-14,0)" stroke="#000000" font-weight="400" font-style="normal"/>
  <g fill="none" stroke-width="1" font-size="34.375" stroke-linecap="square" stroke-opacity="1" font-family="MS Shell Dlg 2" stroke-linejoin="bevel" transform="matrix(0.317731,0,0,0.317731,-1.04159e-14,120.678)" stroke="#000000" font-weight="400" font-style="normal"/>
  <g fill="#000000" font-size="34.375" fill-opacity="1" font-family="MS Shell Dlg 2" transform="matrix(0.992909,0,0,0.992909,-1.04159e-14,120.678)" stroke="none" font-weight="400" font-style="normal">
   <path d="M1.33301,-9.02344 L1.33301,-12.7354 L12.6738,-12.7354 L12.6738,-9.02344 L1.33301,-9.02344 M15.7637,-7.93652 L19.4551,-8.42871 C19.8789,-6.33691 20.6001,-4.82959 21.6187,-3.90674 C22.6372,-2.98389 23.8779,-2.52246 25.3408,-2.52246 C27.0771,-2.52246 28.5435,-3.12402 29.7397,-4.32715 C30.936,-5.53027 31.5342,-7.02051 31.5342,-8.79785 C31.5342,-10.4932 30.9805,-11.8911 29.873,-12.9917 C28.7656,-14.0923 27.3574,-14.6426 25.6484,-14.6426 C24.9512,-14.6426 24.083,-14.5059 23.0439,-14.2324 L23.4541,-17.4727 C23.7002,-17.4453 23.8984,-17.4316 24.0488,-17.4316 C25.6211,-17.4316 27.0361,-17.8418 28.2939,-18.6621 C29.5518,-19.4824 30.1807,-20.7471 30.1807,-22.4561 C30.1807,-23.8096 29.7227,-24.9307 28.8066,-25.8193 C27.8906,-26.708 26.708,-27.1523 25.2588,-27.1523 C23.8232,-27.1523 22.627,-26.7012 21.6699,-25.7988 C20.7129,-24.8965 20.0977,-23.543 19.8242,-21.7383 L16.1328,-22.3945 C16.584,-24.8691 17.6094,-26.7866 19.209,-28.147 C20.8086,-29.5073 22.7979,-30.1875 25.1768,-30.1875 C26.8174,-30.1875 28.3281,-29.8354 29.709,-29.1313 C31.0898,-28.4272 32.146,-27.4668 32.8774,-26.25 C33.6089,-25.0332 33.9746,-23.7412 33.9746,-22.374 C33.9746,-21.0752 33.626,-19.8926 32.9287,-18.8262 C32.2314,-17.7598 31.1992,-16.9121 29.832,-16.2832 C31.6094,-15.873 32.9902,-15.022 33.9746,-13.73 C34.959,-12.438 35.4512,-10.8213 35.4512,-8.87988 C35.4512,-6.25488 34.4941,-4.02979 32.5801,-2.20459 C30.666,-0.379395 28.2461,0.533203 25.3203,0.533203 C22.6816,0.533203 20.4907,-0.25293 18.7476,-1.8252 C17.0044,-3.39746 16.0098,-5.43457 15.7637,-7.93652 M40.7324,0 L40.7324,-4.2041 L44.9365,-4.2041 L44.9365,0 C44.9365,1.54492 44.6631,2.79248 44.1162,3.74268 C43.5693,4.69287 42.7012,5.42773 41.5117,5.94727 L40.4863,4.36816 C41.2656,4.02637 41.8398,3.52393 42.209,2.86084 C42.5781,2.19775 42.7832,1.24414 42.8242,0 L40.7324,0 M70.1436,-3.54785 L70.1436,0 L50.2715,0 C50.2441,-0.888672 50.3877,-1.74316 50.7021,-2.56348 C51.208,-3.91699 52.0181,-5.25 53.1323,-6.5625 C54.2466,-7.875 55.8564,-9.39258 57.9619,-11.1152 C61.2295,-13.7949 63.4375,-15.9175 64.5859,-17.4829 C65.7344,-19.0483 66.3086,-20.5283 66.3086,-21.9229 C66.3086,-23.3857 65.7856,-24.6196 64.7397,-25.6245 C63.6938,-26.6294 62.3301,-27.1318 60.6484,-27.1318 C58.8711,-27.1318 57.4492,-26.5986 56.3828,-25.5322 C55.3164,-24.4658 54.7764,-22.9893 54.7627,-21.1025 L50.9688,-21.4922 C51.2285,-24.3223 52.2061,-26.479 53.9014,-27.9624 C55.5967,-29.4458 57.873,-30.1875 60.7305,-30.1875 C63.6152,-30.1875 65.8984,-29.3877 67.5801,-27.7881 C69.2617,-26.1885 70.1025,-24.2061 70.1025,-21.8408 C70.1025,-20.6377 69.8564,-19.4551 69.3643,-18.293 C68.8721,-17.1309 68.0552,-15.9072 66.9136,-14.6221 C65.772,-13.3369 63.875,-11.5732 61.2227,-9.33105 C59.0078,-7.47168 57.5859,-6.21045 56.957,-5.54736 C56.3281,-4.88428 55.8086,-4.21777 55.3984,-3.54785 L70.1436,-3.54785 M73.9893,-26.127 L73.9893,-29.6748 L93.4512,-29.6748 L93.4512,-26.8037 C91.5371,-24.7666 89.6401,-22.0596 87.7603,-18.6826 C85.8804,-15.3057 84.4277,-11.833 83.4023,-8.26465 C82.6641,-5.74902 82.1924,-2.99414 81.9873,0 L78.1934,0 C78.2344,-2.36523 78.6992,-5.22266 79.5879,-8.57227 C80.4766,-11.9219 81.7515,-15.1519 83.4126,-18.2622 C85.0737,-21.3726 86.8408,-23.9941 88.7139,-26.127 L73.9893,-26.127 M116.144,-3.54785 L116.144,0 L96.2715,0 C96.2441,-0.888672 96.3877,-1.74316 96.7021,-2.56348 C97.208,-3.91699 98.0181,-5.25 99.1323,-6.5625 C100.247,-7.875 101.856,-9.39258 103.962,-11.1152 C107.229,-13.7949 109.438,-15.9175 110.586,-17.4829 C111.734,-19.0483 112.309,-20.5283 112.309,-21.9229 C112.309,-23.3857 111.786,-24.6196 110.74,-25.6245 C109.694,-26.6294 108.33,-27.1318 106.648,-27.1318 C104.871,-27.1318 103.449,-26.5986 102.383,-25.5322 C101.316,-24.4658 100.776,-22.9893 100.763,-21.1025 L96.9688,-21.4922 C97.2285,-24.3223 98.2061,-26.479 99.9014,-27.9624 C101.597,-29.4458 103.873,-30.1875 106.73,-30.1875 C109.615,-30.1875 111.898,-29.3877 113.58,-27.7881 C115.262,-26.1885 116.103,-24.2061 116.103,-21.8408 C116.103,-20.6377 115.856,-19.4551 115.364,-18.293 C114.872,-17.1309 114.055,-15.9072 112.914,-14.6221 C111.772,-13.3369 109.875,-11.5732 107.223,-9.33105 C105.008,-7.47168 103.586,-6.21045 102.957,-5.54736 C102.328,-4.88428 101.809,-4.21777 101.398,-3.54785 L116.144,-3.54785 M132.769,0 L132.769,-21.7793 L136.07,-21.7793 L136.07,-18.7236 C136.754,-19.79 137.663,-20.6479 138.798,-21.2974 C139.933,-21.9468 141.225,-22.2715 142.674,-22.2715 C144.287,-22.2715 145.61,-21.9365 146.642,-21.2666 C147.674,-20.5967 148.402,-19.6602 148.826,-18.457 C150.549,-21 152.791,-22.2715 155.553,-22.2715 C157.713,-22.2715 159.374,-21.6733 160.536,-20.4771 C161.698,-19.2808 162.279,-17.4385 162.279,-14.9502 L162.279,0 L158.608,0 L158.608,-13.7197 C158.608,-15.1963 158.489,-16.2593 158.25,-16.9087 C158.01,-17.5581 157.576,-18.0811 156.947,-18.4775 C156.318,-18.874 155.58,-19.0723 154.732,-19.0723 C153.201,-19.0723 151.93,-18.563 150.918,-17.5444 C149.906,-16.5259 149.4,-14.8955 149.4,-12.6533 L149.4,0 L145.709,0 L145.709,-14.1504 C145.709,-15.791 145.408,-17.0215 144.807,-17.8418 C144.205,-18.6621 143.221,-19.0723 141.854,-19.0723 C140.814,-19.0723 139.854,-18.7988 138.972,-18.252 C138.09,-17.7051 137.451,-16.9053 137.055,-15.8525 C136.658,-14.7998 136.46,-13.2822 136.46,-11.2998 L136.46,0 L132.769,0" fill-rule="nonzero" vector-effect="none"/>
  </g>
  <g fill="none" stroke-width="1" font-size="34.375" stroke-linecap="square" stroke-opacity="1" font-family="MS Shell Dlg 2" stroke-linejoin="bevel" transform="matrix(0.317731,0,0,0.317731,-1.04159e-14,120.678)" stroke="#000000" font-weight="400" font-style="normal"/>
  <g fill="none" stroke-width="1" font-size="34.375" stroke-linecap="square" stroke-opacity="1" font-family="MS Shell Dlg 2" stroke-linejoin="bevel" transform="matrix(0.992909,0,0,0.992909,-1.04159e-14,0)" stroke="#000000" font-weight="400" font-style="normal"/>
  <g fill="none" stroke-width="1" font-size="34.375" stroke-linecap="square" stroke-opacity="1" font-family="MS Shell Dlg 2" stroke-linejoin="bevel" transform="matrix(0.317731,0,0,0.317731,607.512,120.678)" stroke="#000000" font-weight="400" font-style="normal"/>
  <g fill="#000000" font-size="34.375" fill-opacity="1" font-family="MS Shell Dlg 2" transform="matrix(0.992909,0,0,0.992909,607.512,120.678)" stroke="none" font-weight="400" font-style="normal">
   <path d="M1.33301,-9.02344 L1.33301,-12.7354 L12.6738,-12.7354 L12.6738,-9.02344 L1.33301,-9.02344 M29.6475,0 L25.9561,0 L25.9561,-23.5225 C25.0674,-22.6748 23.9019,-21.8271 22.4595,-20.9795 C21.0171,-20.1318 19.7217,-19.4961 18.5732,-19.0723 L18.5732,-22.6406 C20.6377,-23.6113 22.4424,-24.7871 23.9873,-26.168 C25.5322,-27.5488 26.626,-28.8887 27.2686,-30.1875 L29.6475,-30.1875 L29.6475,0 M51.7686,0 L51.7686,-21.7793 L55.0703,-21.7793 L55.0703,-18.7236 C55.7539,-19.79 56.6631,-20.6479 57.7979,-21.2974 C58.9326,-21.9468 60.2246,-22.2715 61.6738,-22.2715 C63.2871,-22.2715 64.6099,-21.9365 65.6421,-21.2666 C66.6743,-20.5967 67.4023,-19.6602 67.8262,-18.457 C69.5488,-21 71.791,-22.2715 74.5527,-22.2715 C76.7129,-22.2715 78.374,-21.6733 79.5361,-20.4771 C80.6982,-19.2808 81.2793,-17.4385 81.2793,-14.9502 L81.2793,0 L77.6084,0 L77.6084,-13.7197 C77.6084,-15.1963 77.4888,-16.2593 77.2495,-16.9087 C77.0103,-17.5581 76.5762,-18.0811 75.9473,-18.4775 C75.3184,-18.874 74.5801,-19.0723 73.7324,-19.0723 C72.2012,-19.0723 70.9297,-18.563 69.918,-17.5444 C68.9063,-16.5259 68.4004,-14.8955 68.4004,-12.6533 L68.4004,0 L64.709,0 L64.709,-14.1504 C64.709,-15.791 64.4082,-17.0215 63.8066,-17.8418 C63.2051,-18.6621 62.2207,-19.0723 60.8535,-19.0723 C59.8145,-19.0723 58.854,-18.7988 57.9722,-18.252 C57.0903,-17.7051 56.4512,-16.9053 56.0547,-15.8525 C55.6582,-14.7998 55.46,-13.2822 55.46,-11.2998 L55.46,0 L51.7686,0" fill-rule="nonzero" vector-effect="none"/>
  </g>
  <g fill="none" stroke-width="1" font-size="34.375" stroke-linecap="square" stroke-opacity="1" font-family="MS Shell Dlg 2" stroke-linejoin="bevel" transform="matrix(0.317731,0,0,0.317731,607.512,120.678)" stroke="#000000" font-weight="400" font-style="normal"/>
  <g fill="none" stroke-width="1" font-size="34.375" stroke-linecap="square" stroke-opacity="1" font-family="MS Shell Dlg 2" stroke-linejoin="bevel" transform="matrix(0.992909,0,0,0.992909,-1.04159e-14,0)" stroke="#000000" font-weight="400" font-style="normal"/>
  <g fill="none" stroke-width="1" font-size="34.375" stroke-linecap="square" stroke-opacity="1" font-family="MS Shell Dlg 2" stroke-linejoin="bevel" transform="matrix(11.7273,0,0,11.7273,-1.04159e-14,0)" stroke="#000000" font-weight="400" font-style="normal"/>
  <g fill="none" stroke-width="1" font-size="34.375" stroke-linecap="square" stroke-opacity="1" font-family="MS Shell Dlg 2" stroke-linejoin="bevel" transform="matrix(0.992909,0,0,0.992909,-1.04159e-14,0)" stroke="#000000" font-weight="400" font-style="normal"/>
  <g fill="none" stroke-width="1" font-size="34.375" stroke-linecap="square" stroke-opacity="1" font-family="MS Shell Dlg 2" stroke-linejoin="bevel" transform="matrix(11.7273,0,0,11.7273,-1.04159e-14,0)" stroke="#000000" font-weight="400" font-style="normal"/>
  <g fill="none" stroke-width="1" font-size="34.375" stroke-linecap="square" stroke-opacity="1" font-family="MS Shell Dlg 2" stroke-linejoin="bevel" transform="matrix(11.7273,0,0,11.7273,-1.04159e-14,0)" stroke="#000000" font-weight="400" font-style="normal"/>
  <g fill="none" stroke-width="1" font-size="34.375" stroke-linecap="square" stroke-opacity="1" font-family="MS Shell Dlg 2" stroke-linejoin="bevel" transform="matrix(11.7273,0,0,11.7273,-1.04159e-14,0)" stroke="#000000" font-weight="400" font-style="normal"/>
  <g fill="none" stroke-width="1" font-size="34.375" stroke-linecap="square" stroke-opacity="1" font-family="MS Shell Dlg 2" stroke-linejoin="bevel" transform="matrix(1,0,0,1,0,0)" stroke="#000000" font-weight="400" font-style="normal"/>
 </g>
 <metadata>
  <rdf:RDF xmlns:rdf="http://www.w3.org/1999/02/22-rdf-syntax-ns#" xmlns:dc="http://purl.org/dc/elements/1.1/" xmlns:rdfs="http://www.w3.org/2000/01/rdf-schema#">
   <rdf:Description dc:description="" dc:format="image/svg+xml" dc:identifier="" dc:date="2025-04-10T12:27:42" dc:title="">
    <dc:creator>
     <rdf:Bag>
      <rdf:li>Administrador</rdf:li>
     </rdf:Bag>
    </dc:creator>
    <dc:publisher>
     <rdf:Bag>
      <rdf:li>QGIS 3.28.2-Firenze</rdf:li>
     </rdf:Bag>
    </dc:publisher>
    <dc:subject>
     <rdf:Bag/>
    </dc:subject>
   </rdf:Description>
   <cc:Work rdf:about="">
    <dc:format>image/svg+xml</dc:format>
    <dc:title></dc:title>
    <dc:date>2025-04-10T12:27:42</dc:date>
    <dc:identifier></dc:identifier>
    <dc:description></dc:description>
    <dc:creator>
     <cc:Agent>
      <dc:title>Administrador</dc:title>
     </cc:Agent>
    </dc:creator>
    <dc:publisher>
     <cc:Agent>
      <dc:title>QGIS 3.28.2-Firenze</dc:title>
     </cc:Agent>
    </dc:publisher>
   </cc:Work>
  </rdf:RDF>
 </metadata>
</svg>
